<svg xmlns="http://www.w3.org/2000/svg" xmlns:xlink="http://www.w3.org/1999/xlink" width="800" zoomAndPan="magnify" viewBox="0 0 600 374.999991" height="500" preserveAspectRatio="xMidYMid meet" version="1.0"><defs><g/><clipPath id="9e94c87d65"><path d="M 184.125 109 L 415.875 109 L 415.875 272.417969 L 184.125 272.417969 Z M 184.125 109 " clip-rule="nonzero"/></clipPath><clipPath id="492dbc5abb"><path d="M 255 27.167969 L 345 27.167969 L 345 116 L 255 116 Z M 255 27.167969 " clip-rule="nonzero"/></clipPath></defs><rect x="-60" width="720" fill="#ffffff" y="-37.499999" height="449.999989" fill-opacity="1"/><rect x="-60" width="720" fill="#800000" y="-37.499999" height="449.999989" fill-opacity="1"/><g fill="#ffffff" fill-opacity="1"><g transform="translate(174.941987, 328.839349)"><g><path d="M 20.925781 -0.601562 L 21.882812 -0.0351562 L 22.878906 0.0703125 L 23.65625 -0.175781 L 24.011719 -0.886719 L 24.082031 -13.832031 L 23.976562 -14.4375 L 23.976562 -17.945312 L 24.082031 -18.796875 L 23.976562 -23.726562 L 23.621094 -24.4375 L 22.914062 -24.828125 L 18.515625 -24.792969 L 17.839844 -24.402344 L 17.449219 -23.65625 L 17.414062 -22.914062 L 17.519531 -22.34375 L 17.414062 -20.855469 L 17.484375 -20.074219 L 17.414062 -13.726562 L 17.203125 -13.125 L 16.671875 -13.371094 L 14.152344 -15.890625 L 13.160156 -16.671875 L 6.171875 -23.726562 L 5.640625 -24.152344 L 4.824219 -24.578125 L 3.757812 -24.828125 L 2.945312 -24.472656 L 2.625 -23.800781 L 2.625 -13.050781 L 2.589844 -12.449219 L 2.660156 -10.996094 L 2.554688 -10.390625 L 2.625 -4.574219 L 2.554688 -3.902344 L 2.625 -0.921875 L 2.945312 -0.25 L 3.6875 0 L 5.144531 0.0703125 L 5.921875 0 L 7.304688 0.105469 L 8.050781 0.0703125 L 8.761719 -0.285156 L 9.117188 -1.382812 L 9.152344 -10.355469 L 9.222656 -11.066406 L 9.46875 -11.667969 L 9.929688 -11.492188 L 10.390625 -10.890625 L 12.910156 -8.476562 L 13.371094 -7.945312 L 13.976562 -7.554688 L 19.472656 -2.09375 L 20.394531 -1.0625 Z M 20.925781 -0.601562 "/></g></g></g><g fill="#ffffff" fill-opacity="1"><g transform="translate(201.679526, 328.839349)"><g><path d="M 2.554688 -1.027344 L 3.015625 -0.355469 L 3.6875 0.0351562 L 11.703125 -0.0351562 L 12.34375 0.0703125 L 14.507812 -0.0351562 L 16.671875 0.105469 L 17.34375 0.0351562 L 18.089844 -0.320312 L 18.40625 -0.992188 L 18.480469 -1.667969 L 18.445312 -3.867188 L 18.515625 -4.539062 L 18.054688 -5.25 L 16.988281 -5.605469 L 12.308594 -5.675781 L 11.632812 -5.570312 L 10.851562 -5.640625 L 10.074219 -5.570312 L 9.328125 -5.996094 L 9.007812 -7.09375 L 9.042969 -8.832031 L 9.363281 -9.578125 L 10.003906 -9.964844 L 11.386719 -9.964844 L 12.09375 -10.039062 L 13.976562 -9.929688 L 14.933594 -10.003906 L 15.675781 -9.929688 L 16.316406 -9.964844 L 17.023438 -10.355469 L 17.378906 -11.03125 L 17.449219 -13.832031 L 17.378906 -14.542969 L 17.058594 -15.214844 L 16.457031 -15.605469 L 15.039062 -15.640625 L 14.328125 -15.570312 L 13.585938 -15.570312 L 12.769531 -15.640625 L 9.964844 -15.605469 L 9.363281 -15.996094 L 8.9375 -16.636719 L 8.867188 -17.734375 L 9.222656 -18.761719 L 10.320312 -19.082031 L 17.132812 -19.117188 L 17.875 -19.507812 L 18.265625 -20.144531 L 18.195312 -21.601562 L 18.089844 -22.273438 L 18.125 -23.054688 L 18.230469 -23.726562 L 17.875 -24.4375 L 17.132812 -24.757812 L 14.292969 -24.792969 L 13.65625 -24.722656 L 12.945312 -24.828125 L 11.386719 -24.757812 L 10.675781 -24.828125 L 9.292969 -24.792969 L 8.65625 -24.863281 L 4.007812 -24.757812 L 2.980469 -24.507812 L 2.625 -23.726562 L 2.695312 -22.308594 L 2.554688 -21.28125 L 2.695312 -19.472656 L 2.625 -18.726562 L 2.695312 -18.089844 L 2.695312 -11.738281 L 2.589844 -10.996094 L 2.695312 -9.613281 L 2.625 -8.191406 L 2.730469 -7.449219 L 2.660156 -6.667969 L 2.695312 -5.996094 L 2.589844 -5.355469 L 2.660156 -4.539062 L 2.660156 -3.832031 L 2.730469 -2.449219 L 2.695312 -1.738281 Z M 2.554688 -1.027344 "/></g></g></g><g fill="#ffffff" fill-opacity="1"><g transform="translate(221.99864, 328.839349)"><g><path d="M 8.65625 -0.710938 L 9.1875 -0.0351562 L 9.964844 0.210938 L 11.351562 0.210938 L 12.164062 -0.0703125 L 12.734375 -0.78125 L 13.371094 -2.023438 L 13.867188 -3.441406 L 14.152344 -4.007812 L 14.328125 -4.71875 L 15.75 -8.085938 L 15.890625 -8.691406 L 16.527344 -10.074219 L 16.742188 -10.710938 L 17.023438 -10.746094 L 17.378906 -10.039062 L 17.558594 -9.433594 L 17.910156 -8.761719 L 18.230469 -8.085938 L 18.40625 -7.378906 L 18.976562 -6.101562 L 19.1875 -5.425781 L 19.71875 -4.113281 L 20.109375 -3.40625 L 20.359375 -2.765625 L 20.5 -2.09375 L 21.03125 -0.816406 L 21.671875 -0.0351562 L 22.488281 0.285156 L 23.691406 0.210938 L 24.578125 -0.105469 L 25.183594 -0.746094 L 25.324219 -1.417969 L 25.964844 -2.730469 L 26.351562 -4.113281 L 26.921875 -5.355469 L 27.382812 -6.773438 L 27.738281 -7.414062 L 27.878906 -8.085938 L 28.160156 -8.832031 L 28.445312 -9.859375 L 29.226562 -11.492188 L 30.042969 -14.117188 L 30.433594 -14.789062 L 30.785156 -16.101562 L 31.105469 -16.8125 L 31.246094 -17.484375 L 31.601562 -18.125 L 32.242188 -20.144531 L 32.632812 -20.75 L 33.554688 -23.726562 L 33.410156 -24.578125 L 32.3125 -24.863281 L 28.445312 -24.792969 L 27.808594 -24.828125 L 26.992188 -24.4375 L 26.460938 -23.800781 L 26.28125 -23.089844 L 25.964844 -22.488281 L 25.359375 -20.394531 L 25.039062 -19.683594 L 24.863281 -19.046875 L 24.4375 -17.984375 L 22.878906 -11.847656 L 22.558594 -11.917969 L 22.453125 -12.554688 L 22.0625 -13.160156 L 21.953125 -13.832031 L 20.679688 -17.238281 L 20.535156 -17.910156 L 20.21875 -18.621094 L 20.109375 -19.332031 L 18.621094 -23.410156 L 18.089844 -24.117188 L 17.167969 -24.4375 L 16.492188 -24.472656 L 15.710938 -24.082031 L 15.285156 -23.375 L 14.648438 -21.992188 L 14.328125 -20.605469 L 13.335938 -18.019531 L 13.125 -17.238281 L 12.34375 -15.25 L 12.238281 -14.578125 L 11.988281 -13.902344 L 11.597656 -13.160156 L 11.492188 -12.554688 L 11.101562 -11.847656 L 10.890625 -11.8125 L 8.867188 -19.648438 L 8.511719 -20.324219 L 7.980469 -21.707031 L 7.839844 -22.453125 L 7.625 -23.089844 L 7.449219 -23.800781 L 6.882812 -24.4375 L 5.996094 -24.863281 L 5.390625 -24.792969 L 3.15625 -24.828125 L 2.589844 -24.757812 L 1.242188 -24.757812 L 0.496094 -24.507812 L 0.320312 -23.691406 L 0.496094 -22.769531 L 0.816406 -22.097656 L 1.242188 -20.785156 L 1.5625 -20.144531 L 1.738281 -19.402344 L 2.09375 -18.796875 L 2.765625 -16.777344 L 3.085938 -16.101562 L 3.261719 -15.464844 L 3.582031 -14.753906 L 3.722656 -14.117188 L 4.539062 -12.164062 L 4.644531 -11.492188 L 5 -10.746094 L 5.109375 -10.074219 L 7.730469 -3.441406 L 8.085938 -2.058594 Z M 8.65625 -0.710938 "/></g></g></g><g fill="#ffffff" fill-opacity="1"><g transform="translate(255.82837, 328.839349)"><g/></g></g><g fill="#ffffff" fill-opacity="1"><g transform="translate(265.438278, 328.839349)"><g><path d="M 9.542969 0.320312 L 12.34375 0.390625 L 13.050781 0.320312 L 13.761719 0.140625 L 14.472656 0.0351562 L 15.179688 -0.25 L 15.820312 -0.320312 L 16.492188 -0.636719 L 18.90625 -2.09375 L 19.933594 -3.15625 L 20.289062 -3.652344 L 20.679688 -4.433594 L 20.890625 -5.070312 L 21.105469 -5.675781 L 21.316406 -7.449219 L 21.246094 -8.582031 L 20.714844 -10.640625 L 20.324219 -11.207031 L 19.402344 -12.273438 L 18.761719 -12.839844 L 18.195312 -13.125 L 17.558594 -13.511719 L 14.789062 -14.363281 L 14.082031 -14.472656 L 13.371094 -14.507812 L 12.625 -14.648438 L 11.597656 -14.648438 L 9.71875 -15.039062 L 8.40625 -15.675781 L 7.875 -16.171875 L 7.730469 -17.238281 L 7.910156 -18.195312 L 8.335938 -18.65625 L 8.867188 -19.046875 L 9.433594 -19.367188 L 10.074219 -19.507812 L 11.207031 -19.542969 L 12.34375 -19.402344 L 12.980469 -19.222656 L 13.621094 -18.796875 L 14.222656 -18.300781 L 14.753906 -17.59375 L 15.535156 -17.132812 L 17.203125 -17.273438 L 18.160156 -17.203125 L 18.871094 -17.203125 L 19.507812 -17.132812 L 20.179688 -17.628906 L 20.464844 -18.230469 L 20.324219 -18.90625 L 20.253906 -19.578125 L 19.257812 -21.421875 L 18.480469 -22.488281 L 16.136719 -24.117188 L 14.152344 -24.792969 L 12.769531 -25.078125 L 10.039062 -25.148438 L 9.257812 -24.933594 L 8.546875 -24.898438 L 7.910156 -24.792969 L 6.5625 -24.367188 L 5.355469 -23.65625 L 3.652344 -22.488281 L 2.410156 -20.820312 L 1.773438 -18.871094 L 1.667969 -17.132812 L 1.703125 -16.03125 L 1.949219 -14.613281 L 2.519531 -13.371094 L 3.832031 -11.738281 L 6.242188 -10.429688 L 7.519531 -10.003906 L 13.089844 -9.363281 L 14.363281 -8.761719 L 14.824219 -8.335938 L 15.039062 -7.449219 L 14.753906 -6.5625 L 14.292969 -6.03125 L 13.089844 -5.496094 L 11.988281 -5.425781 L 11.351562 -5.320312 L 9.542969 -5.496094 L 8.9375 -5.816406 L 8.335938 -6.207031 L 7.164062 -7.484375 L 6.457031 -7.769531 L 5.816406 -7.695312 L 5.144531 -7.804688 L 2.410156 -7.660156 L 1.773438 -7.378906 L 1.488281 -6.632812 L 1.597656 -5.921875 L 1.738281 -5.214844 L 1.949219 -4.574219 L 2.625 -3.261719 L 3.121094 -2.800781 L 3.582031 -2.269531 L 4.824219 -1.488281 L 5.320312 -0.957031 L 5.996094 -0.636719 L 6.703125 -0.425781 L 8.085938 0.0703125 Z M 9.542969 0.320312 "/></g></g></g><g fill="#ffffff" fill-opacity="1"><g transform="translate(288.06235, 328.839349)"><g><path d="M 6.808594 -1.097656 L 7.09375 -0.355469 L 7.839844 0 L 8.511719 -0.0703125 L 9.222656 0 L 9.894531 -0.0703125 L 12.09375 -0.0703125 L 12.804688 -0.355469 L 13.089844 -1.0625 L 13.050781 -1.738281 L 13.125 -2.554688 L 13.089844 -3.972656 L 12.980469 -4.574219 L 13.089844 -5.320312 L 13.160156 -7.484375 L 13.089844 -8.121094 L 13.195312 -9.613281 L 13.050781 -16.671875 L 13.160156 -17.378906 L 13.089844 -18.160156 L 13.371094 -18.796875 L 14.152344 -19.117188 L 14.753906 -19.152344 L 15.464844 -19.117188 L 16.101562 -19.1875 L 18.054688 -19.152344 L 18.871094 -19.472656 L 19.222656 -20.179688 L 19.152344 -20.925781 L 19.222656 -23.835938 L 18.871094 -24.542969 L 18.160156 -24.898438 L 17.308594 -24.828125 L 16.742188 -24.898438 L 16.066406 -24.898438 L 15.285156 -24.792969 L 14.578125 -24.792969 L 13.867188 -24.863281 L 13.160156 -24.863281 L 12.34375 -24.757812 L 1.773438 -24.828125 L 0.992188 -24.472656 L 0.636719 -23.765625 L 0.601562 -20.21875 L 0.992188 -19.4375 L 1.703125 -19.082031 L 2.625 -19.1875 L 5.78125 -19.152344 L 6.417969 -18.761719 L 6.773438 -18.089844 L 6.882812 -14.1875 L 6.773438 -13.089844 L 6.84375 -12.414062 L 6.773438 -11.703125 L 6.773438 -10.285156 L 6.882812 -9.257812 L 6.738281 -8.191406 L 6.773438 -7.484375 L 6.738281 -6.738281 L 6.84375 -4.574219 L 6.773438 -3.867188 Z M 6.808594 -1.097656 "/></g></g></g><g fill="#ffffff" fill-opacity="1"><g transform="translate(307.885013, 328.839349)"><g><path d="M 10.464844 0.285156 L 12.164062 0.425781 L 13.9375 0.355469 L 15.359375 0.0351562 L 16.101562 -0.25 L 16.8125 -0.425781 L 17.378906 -0.78125 L 18.019531 -1.0625 L 18.585938 -1.453125 L 20.179688 -2.871094 L 20.570312 -3.511719 L 21.03125 -4.042969 L 21.246094 -4.753906 L 21.601562 -5.355469 L 21.847656 -6.03125 L 22.097656 -9.613281 L 21.992188 -12.484375 L 22.132812 -13.230469 L 22.132812 -13.867188 L 21.992188 -14.578125 L 21.953125 -15.25 L 22.027344 -15.996094 L 21.992188 -16.988281 L 22.0625 -18.089844 L 22.027344 -18.871094 L 22.132812 -19.542969 L 22.027344 -20.253906 L 22.0625 -23.125 L 21.953125 -23.726562 L 21.671875 -24.507812 L 20.535156 -24.828125 L 17.203125 -24.863281 L 16.421875 -24.542969 L 16.066406 -23.765625 L 16.101562 -20.289062 L 16.03125 -19.578125 L 16.066406 -18.195312 L 15.996094 -17.449219 L 16.101562 -16.707031 L 15.996094 -13.902344 L 16.136719 -13.265625 L 16.066406 -12.484375 L 16.101562 -11.207031 L 16.03125 -10.5 L 16.066406 -8.691406 L 15.925781 -7.554688 L 15.605469 -6.882812 L 15.285156 -6.382812 L 14.71875 -5.851562 L 13.300781 -5.390625 L 12.34375 -5.320312 L 11.171875 -5.390625 L 10.535156 -5.570312 L 9.753906 -5.957031 L 9.222656 -6.417969 L 8.796875 -6.917969 L 8.582031 -7.660156 L 8.511719 -13.902344 L 8.40625 -14.613281 L 8.371094 -16.8125 L 8.441406 -17.449219 L 8.441406 -20.289062 L 8.335938 -21.316406 L 8.335938 -21.992188 L 8.511719 -23.054688 L 8.511719 -23.800781 L 8.121094 -24.472656 L 7.269531 -24.792969 L 3.546875 -24.828125 L 2.835938 -24.4375 L 2.519531 -23.726562 L 2.519531 -21.601562 L 2.339844 -20.996094 L 2.484375 -19.507812 L 2.375 -18.160156 L 2.554688 -16.03125 L 2.410156 -15.359375 L 2.519531 -14.578125 L 2.449219 -13.902344 L 2.484375 -13.195312 L 2.410156 -12.519531 L 2.519531 -11.101562 L 2.484375 -8.546875 L 2.589844 -7.519531 L 2.589844 -6.773438 L 2.800781 -6.066406 L 2.910156 -5.390625 L 3.121094 -4.71875 L 3.832031 -3.511719 L 4.789062 -2.339844 L 5.25 -1.878906 L 6.457031 -1.171875 L 6.988281 -0.746094 L 7.660156 -0.460938 L 8.476562 -0.210938 L 9.007812 0.0703125 L 9.789062 0.105469 Z M 10.464844 0.285156 "/></g></g></g><g fill="#ffffff" fill-opacity="1"><g transform="translate(332.353053, 328.839349)"><g><path d="M 2.660156 -1.097656 L 3.085938 -0.320312 L 3.652344 0 L 4.46875 0 L 5.214844 0.105469 L 5.921875 0.105469 L 6.667969 0 L 13.050781 -0.0351562 L 15.324219 -0.355469 L 17.378906 -0.992188 L 20.394531 -3.015625 L 21.8125 -4.644531 L 22.914062 -6.417969 L 23.089844 -7.09375 L 23.445312 -7.769531 L 23.585938 -8.476562 L 23.835938 -9.117188 L 23.941406 -9.859375 L 24.117188 -10.605469 L 24.082031 -11.207031 L 24.226562 -13.476562 L 23.691406 -15.5 L 23.621094 -16.246094 L 23.445312 -16.882812 L 22.914062 -18.300781 L 22.097656 -19.507812 L 21.8125 -20.109375 L 20.890625 -21.210938 L 20.289062 -21.671875 L 19.292969 -22.628906 L 17.984375 -23.445312 L 17.273438 -23.800781 L 15.324219 -24.4375 L 13.867188 -24.722656 L 8.832031 -24.757812 L 8.121094 -24.828125 L 5.851562 -24.757812 L 5.144531 -24.828125 L 4.503906 -24.792969 L 3.757812 -24.828125 L 3.121094 -24.4375 L 2.589844 -23.765625 L 2.589844 -22.308594 L 2.660156 -21.601562 L 2.625 -20.890625 L 2.695312 -19.542969 L 2.589844 -18.761719 L 2.695312 -18.054688 L 2.589844 -17.34375 L 2.730469 -14.507812 L 2.625 -13.160156 L 2.730469 -11.632812 L 2.625 -10.960938 L 2.730469 -10.214844 L 2.625 -8.832031 L 2.695312 -5.996094 L 2.625 -5.285156 L 2.730469 -2.449219 Z M 10.179688 -5.710938 L 9.328125 -6.03125 L 9.007812 -6.808594 L 9.078125 -7.519531 L 8.9375 -8.15625 L 9.042969 -8.867188 L 9.042969 -17.984375 L 9.46875 -18.621094 L 10.5 -19.011719 L 11.242188 -18.976562 L 11.988281 -19.011719 L 13.050781 -18.941406 L 14.472656 -18.515625 L 15.675781 -17.734375 L 16.5625 -16.742188 L 16.953125 -16.066406 L 17.414062 -15.5 L 17.839844 -13.40625 L 17.945312 -12.308594 L 17.769531 -10.570312 L 17.558594 -9.894531 L 17.023438 -8.617188 L 16.5625 -7.980469 L 16.101562 -7.484375 L 15.675781 -6.917969 L 15.109375 -6.5625 L 14.398438 -6.207031 L 13.125 -5.851562 Z M 10.179688 -5.710938 "/></g></g></g><g fill="#ffffff" fill-opacity="1"><g transform="translate(358.133148, 328.839349)"><g><path d="M 2.554688 -1.027344 L 3.015625 -0.355469 L 3.6875 0.0351562 L 11.703125 -0.0351562 L 12.34375 0.0703125 L 14.507812 -0.0351562 L 16.671875 0.105469 L 17.34375 0.0351562 L 18.089844 -0.320312 L 18.40625 -0.992188 L 18.480469 -1.667969 L 18.445312 -3.867188 L 18.515625 -4.539062 L 18.054688 -5.25 L 16.988281 -5.605469 L 12.308594 -5.675781 L 11.632812 -5.570312 L 10.851562 -5.640625 L 10.074219 -5.570312 L 9.328125 -5.996094 L 9.007812 -7.09375 L 9.042969 -8.832031 L 9.363281 -9.578125 L 10.003906 -9.964844 L 11.386719 -9.964844 L 12.09375 -10.039062 L 13.976562 -9.929688 L 14.933594 -10.003906 L 15.675781 -9.929688 L 16.316406 -9.964844 L 17.023438 -10.355469 L 17.378906 -11.03125 L 17.449219 -13.832031 L 17.378906 -14.542969 L 17.058594 -15.214844 L 16.457031 -15.605469 L 15.039062 -15.640625 L 14.328125 -15.570312 L 13.585938 -15.570312 L 12.769531 -15.640625 L 9.964844 -15.605469 L 9.363281 -15.996094 L 8.9375 -16.636719 L 8.867188 -17.734375 L 9.222656 -18.761719 L 10.320312 -19.082031 L 17.132812 -19.117188 L 17.875 -19.507812 L 18.265625 -20.144531 L 18.195312 -21.601562 L 18.089844 -22.273438 L 18.125 -23.054688 L 18.230469 -23.726562 L 17.875 -24.4375 L 17.132812 -24.757812 L 14.292969 -24.792969 L 13.65625 -24.722656 L 12.945312 -24.828125 L 11.386719 -24.757812 L 10.675781 -24.828125 L 9.292969 -24.792969 L 8.65625 -24.863281 L 4.007812 -24.757812 L 2.980469 -24.507812 L 2.625 -23.726562 L 2.695312 -22.308594 L 2.554688 -21.28125 L 2.695312 -19.472656 L 2.625 -18.726562 L 2.695312 -18.089844 L 2.695312 -11.738281 L 2.589844 -10.996094 L 2.695312 -9.613281 L 2.625 -8.191406 L 2.730469 -7.449219 L 2.660156 -6.667969 L 2.695312 -5.996094 L 2.589844 -5.355469 L 2.660156 -4.539062 L 2.660156 -3.832031 L 2.730469 -2.449219 L 2.695312 -1.738281 Z M 2.554688 -1.027344 "/></g></g></g><g fill="#ffffff" fill-opacity="1"><g transform="translate(378.452262, 328.839349)"><g><path d="M 20.925781 -0.566406 L 21.953125 -0.105469 L 22.878906 0.175781 L 23.691406 -0.210938 L 24.011719 -0.957031 L 24.191406 -10.605469 L 24.046875 -11.597656 L 24.117188 -12.378906 L 23.976562 -16.636719 L 24.082031 -18.054688 L 24.011719 -18.726562 L 24.011719 -20.144531 L 24.152344 -20.855469 L 24.082031 -21.917969 L 24.152344 -23.765625 L 23.726562 -24.402344 L 22.949219 -24.757812 L 22.238281 -24.828125 L 21.566406 -24.828125 L 20.785156 -24.757812 L 20.039062 -24.863281 L 19.402344 -24.792969 L 18.691406 -24.828125 L 17.839844 -24.472656 L 17.484375 -23.726562 L 17.449219 -17.273438 L 17.59375 -16.527344 L 17.59375 -15.855469 L 17.449219 -15.109375 L 17.484375 -13.691406 L 17.308594 -13.125 L 16.8125 -13.265625 L 15.25 -14.863281 L 14.71875 -15.285156 L 13.476562 -16.5625 L 12.910156 -16.988281 L 12.519531 -17.484375 L 11.777344 -18.265625 L 10.675781 -19.1875 L 10.285156 -19.71875 L 9.613281 -20.179688 L 9.257812 -20.714844 L 8.65625 -21.140625 L 8.191406 -21.742188 L 6.277344 -23.691406 L 4.859375 -24.652344 L 3.902344 -24.933594 L 3.050781 -24.507812 L 2.589844 -23.835938 L 2.660156 -18.871094 L 2.589844 -18.160156 L 2.695312 -16.707031 L 2.625 -16.066406 L 2.660156 -15.324219 L 2.554688 -14.578125 L 2.695312 -9.503906 L 2.625 -8.867188 L 2.625 -8.191406 L 2.554688 -7.414062 L 2.554688 -6.738281 L 2.660156 -5.996094 L 2.625 -4.539062 L 2.695312 -3.832031 L 2.589844 -2.484375 L 2.695312 -1.773438 L 2.695312 -1.097656 L 3.015625 -0.320312 L 3.6875 0.0703125 L 4.894531 0 L 6.667969 0.105469 L 7.414062 0 L 8.230469 0.0703125 L 8.9375 -0.285156 L 9.257812 -0.992188 L 9.152344 -1.703125 L 9.257812 -10.390625 L 9.117188 -11.136719 L 9.46875 -11.5625 L 9.929688 -11.457031 L 15.003906 -6.492188 L 15.570312 -6.03125 L 19.011719 -2.589844 L 19.472656 -2.023438 L 20.039062 -1.5625 L 20.464844 -1.027344 Z M 20.925781 -0.566406 "/></g></g></g><g fill="#ffffff" fill-opacity="1"><g transform="translate(405.189801, 328.839349)"><g><path d="M 6.808594 -1.097656 L 7.09375 -0.355469 L 7.839844 0 L 8.511719 -0.0703125 L 9.222656 0 L 9.894531 -0.0703125 L 12.09375 -0.0703125 L 12.804688 -0.355469 L 13.089844 -1.0625 L 13.050781 -1.738281 L 13.125 -2.554688 L 13.089844 -3.972656 L 12.980469 -4.574219 L 13.089844 -5.320312 L 13.160156 -7.484375 L 13.089844 -8.121094 L 13.195312 -9.613281 L 13.050781 -16.671875 L 13.160156 -17.378906 L 13.089844 -18.160156 L 13.371094 -18.796875 L 14.152344 -19.117188 L 14.753906 -19.152344 L 15.464844 -19.117188 L 16.101562 -19.1875 L 18.054688 -19.152344 L 18.871094 -19.472656 L 19.222656 -20.179688 L 19.152344 -20.925781 L 19.222656 -23.835938 L 18.871094 -24.542969 L 18.160156 -24.898438 L 17.308594 -24.828125 L 16.742188 -24.898438 L 16.066406 -24.898438 L 15.285156 -24.792969 L 14.578125 -24.792969 L 13.867188 -24.863281 L 13.160156 -24.863281 L 12.34375 -24.757812 L 1.773438 -24.828125 L 0.992188 -24.472656 L 0.636719 -23.765625 L 0.601562 -20.21875 L 0.992188 -19.4375 L 1.703125 -19.082031 L 2.625 -19.1875 L 5.78125 -19.152344 L 6.417969 -18.761719 L 6.773438 -18.089844 L 6.882812 -14.1875 L 6.773438 -13.089844 L 6.84375 -12.414062 L 6.773438 -11.703125 L 6.773438 -10.285156 L 6.882812 -9.257812 L 6.738281 -8.191406 L 6.773438 -7.484375 L 6.738281 -6.738281 L 6.84375 -4.574219 L 6.773438 -3.867188 Z M 6.808594 -1.097656 "/></g></g></g><path fill="#e1ebf4" d="M 336.585938 71.515625 C 336.585938 91.757812 320.21875 108.148438 300 108.148438 C 279.78125 108.148438 263.414062 91.757812 263.414062 71.515625 C 263.414062 51.269531 279.78125 34.882812 300 34.882812 C 320.21875 34.882812 336.585938 51.269531 336.585938 71.515625 Z M 336.585938 71.515625 " fill-opacity="1" fill-rule="nonzero"/><path fill="#ffffff" d="M 338.511719 71.515625 C 338.511719 52.042969 321.179688 34.109375 302.117188 32.953125 C 301.539062 32.953125 300.769531 32.953125 300 32.953125 C 299.230469 32.953125 298.652344 32.953125 297.882812 32.953125 C 278.820312 34.109375 261.492188 52.042969 261.492188 71.515625 C 261.492188 72.863281 263.414062 74.019531 263.609375 75.371094 C 265.535156 57.054688 281.128906 42.59375 300 42.59375 C 318.871094 42.59375 334.464844 57.054688 336.390625 75.371094 C 336.585938 74.019531 338.511719 72.863281 338.511719 71.515625 Z M 338.511719 71.515625 " fill-opacity="0.5" fill-rule="nonzero"/><path fill="#fc785e" d="M 372.015625 142.46875 L 304.621094 165.027344 L 296.148438 165.410156 L 225.867188 142.273438 C 225.867188 142.273438 242.429688 118.367188 265.726562 110.460938 C 267.265625 112.003906 269.191406 113.355469 270.925781 114.511719 C 274.96875 117.210938 279.203125 119.332031 283.824219 120.875 C 289.023438 122.609375 294.417969 123.378906 300 123.378906 C 305.199219 123.378906 310.207031 122.609375 315.019531 121.257812 C 320.988281 119.523438 326.570312 116.632812 331.386719 112.777344 C 331.578125 112.582031 331.964844 112.390625 332.15625 112.195312 C 334.660156 113.160156 338.316406 114.894531 342.554688 116.824219 C 353.914062 122.800781 368.742188 131.863281 372.015625 142.46875 Z M 372.015625 142.46875 " fill-opacity="1" fill-rule="nonzero"/><path fill="#f9dbd7" d="M 283.824219 121.066406 L 272.660156 123.574219 C 258.988281 126.65625 247.050781 133.40625 237.421875 142.851562 L 232.222656 140.925781 C 233.957031 138.804688 235.6875 136.875 237.613281 134.949219 C 244.546875 128.199219 252.632812 122.800781 261.683594 119.136719 L 261.296875 117.402344 L 271.117188 114.511719 C 274.96875 117.402344 279.203125 119.523438 283.824219 121.066406 Z M 283.824219 121.066406 " fill-opacity="0.3" fill-rule="nonzero"/><path fill="#f9dbd7" d="M 366.621094 139.574219 L 361.039062 141.503906 C 351.601562 132.632812 340.050781 126.464844 327.148438 123.574219 L 314.828125 121.453125 C 320.796875 119.714844 326.378906 116.824219 331.191406 112.96875 L 342.359375 117.015625 L 339.664062 119.910156 C 347.558594 123.378906 354.683594 128.007812 360.847656 133.792969 C 363.15625 135.71875 364.890625 137.648438 366.621094 139.574219 Z M 366.621094 139.574219 " fill-opacity="0.3" fill-rule="nonzero"/><path fill="#94e1e4" d="M 196.601562 162.519531 L 198.527344 134.949219 L 300 166.570312 L 400.511719 131.285156 L 402.050781 165.027344 C 402.050781 165.027344 412.257812 166.570312 412.640625 173.703125 C 413.027344 180.835938 411.292969 193.945312 403.589844 196.839844 L 401.667969 234.4375 L 398.199219 238.871094 L 300 268.949219 L 200.453125 237.519531 L 196.601562 230.386719 Z M 196.601562 162.519531 " fill-opacity="1" fill-rule="nonzero"/><g clip-path="url(#9e94c87d65)"><path fill="#2d4356" d="M 405.902344 161.554688 L 405.902344 133.214844 C 405.902344 129.742188 403.785156 127.621094 400.894531 127.621094 C 400.125 127.621094 399.355469 127.816406 398.585938 128.007812 L 374.324219 136.683594 C 364.3125 124.152344 350.832031 114.703125 335.042969 109.691406 C 332.734375 112.003906 330.039062 114.125 327.34375 115.859375 C 342.9375 119.332031 356.609375 127.816406 366.816406 139.574219 L 306.738281 161.171875 C 304.621094 161.75 301.925781 162.132812 299.039062 162.132812 C 296.535156 162.132812 294.03125 161.75 292.105469 161.171875 L 232.222656 140.925781 C 242.621094 128.394531 256.675781 119.332031 272.851562 115.667969 C 270.15625 113.933594 267.460938 112.003906 264.957031 109.691406 C 248.398438 114.703125 234.535156 124.921875 224.328125 138.226562 L 201.414062 130.515625 C 200.644531 130.320312 199.875 130.128906 199.296875 130.128906 C 196.410156 130.128906 194.097656 132.25 194.097656 135.71875 L 194.097656 161.363281 C 188.320312 163.871094 184.472656 169.074219 184.472656 175.4375 L 184.472656 187.199219 C 184.472656 193.5625 188.320312 198.765625 194.097656 201.273438 L 194.097656 232.121094 C 194.097656 236.363281 197.371094 240.992188 201.414062 242.148438 L 292.105469 271.457031 C 294.222656 272.226562 296.917969 272.417969 299.613281 272.417969 C 302.117188 272.417969 304.8125 272.226562 306.738281 271.457031 L 398.394531 243.304688 C 402.4375 242.148438 405.710938 237.519531 405.710938 233.28125 L 405.710938 201.273438 C 411.484375 198.765625 415.335938 193.5625 415.335938 187.199219 L 415.335938 175.628906 C 415.53125 169.460938 411.679688 164.0625 405.902344 161.554688 Z M 200.835938 194.910156 C 196.023438 194.910156 192.171875 191.441406 192.171875 187.199219 L 192.171875 175.628906 C 192.171875 171.390625 196.023438 167.917969 200.835938 167.917969 C 205.652344 167.917969 209.503906 171.390625 209.503906 175.628906 L 209.503906 187.199219 C 209.503906 191.441406 205.652344 194.910156 200.835938 194.910156 Z M 296.148438 264.515625 C 295.378906 264.515625 294.800781 264.320312 294.417969 264.128906 L 203.726562 235.015625 C 202.957031 234.628906 201.800781 233.085938 201.800781 232.316406 L 201.800781 202.625 C 210.464844 202.046875 217.203125 195.488281 217.203125 187.199219 L 217.203125 175.628906 C 217.203125 167.339844 210.464844 160.589844 201.800781 160.207031 L 201.800781 138.996094 L 289.601562 168.496094 C 291.71875 169.269531 294.03125 169.652344 296.148438 169.652344 Z M 398.199219 233.472656 C 398.199219 234.242188 397.046875 235.785156 396.273438 236.171875 L 304.621094 264.320312 C 304.429688 264.320312 304.238281 264.515625 303.851562 264.515625 L 303.851562 169.652344 C 305.777344 169.460938 307.703125 169.074219 309.242188 168.304688 L 398.199219 136.492188 L 398.199219 160.207031 C 389.535156 160.785156 382.796875 167.339844 382.796875 175.628906 L 382.796875 187.199219 C 382.796875 195.488281 389.535156 202.238281 398.199219 202.625 Z M 407.828125 187.199219 C 407.828125 191.441406 403.976562 194.910156 399.164062 194.910156 C 394.347656 194.910156 390.5 191.441406 390.5 187.199219 L 390.5 175.628906 C 390.5 171.390625 394.347656 167.917969 399.164062 167.917969 C 403.976562 167.917969 407.828125 171.390625 407.828125 175.628906 Z M 407.828125 187.199219 " fill-opacity="1" fill-rule="nonzero"/></g><path fill="#f5ffff" d="M 398.199219 136.492188 L 398.199219 144.203125 L 309.242188 176.015625 C 307.703125 176.59375 305.777344 176.980469 303.851562 177.367188 L 303.851562 169.652344 C 305.777344 169.460938 307.703125 169.074219 309.242188 168.304688 Z M 398.199219 136.492188 " fill-opacity="0.3" fill-rule="nonzero"/><path fill="#f5ffff" d="M 296.148438 169.847656 L 296.148438 177.558594 C 294.222656 177.367188 291.914062 176.980469 289.601562 176.402344 L 201.800781 146.710938 L 201.800781 138.996094 L 289.601562 168.496094 C 291.914062 169.269531 294.222656 169.652344 296.148438 169.847656 Z M 296.148438 169.847656 " fill-opacity="0.3" fill-rule="nonzero"/><path fill="#426666" d="M 398.199219 225.761719 L 398.199219 233.472656 C 398.199219 234.242188 397.046875 235.785156 396.273438 236.171875 L 304.621094 264.320312 C 304.429688 264.320312 304.238281 264.515625 303.851562 264.515625 L 303.851562 256.800781 C 304.042969 256.800781 304.429688 256.609375 304.621094 256.609375 L 396.273438 228.460938 C 397.046875 228.265625 398.199219 226.722656 398.199219 225.761719 Z M 398.199219 225.761719 " fill-opacity="0.3" fill-rule="nonzero"/><path fill="#426666" d="M 296.148438 256.800781 L 296.148438 264.515625 C 295.378906 264.515625 294.800781 264.320312 294.417969 264.128906 L 203.726562 235.015625 C 202.761719 234.628906 201.800781 233.085938 201.800781 232.316406 L 201.800781 224.601562 C 201.800781 225.566406 202.957031 227.109375 203.726562 227.300781 L 294.417969 256.609375 C 294.800781 256.609375 295.378906 256.800781 296.148438 256.800781 Z M 296.148438 256.800781 " fill-opacity="0.3" fill-rule="nonzero"/><path fill="#e1ebf4" d="M 407.828125 175.628906 L 407.828125 187.199219 C 407.828125 191.441406 403.976562 194.910156 399.164062 194.910156 C 394.347656 194.910156 390.5 191.441406 390.5 187.199219 L 390.5 175.628906 C 390.5 171.390625 394.347656 167.917969 399.164062 167.917969 C 403.976562 167.917969 407.828125 171.390625 407.828125 175.628906 Z M 407.828125 175.628906 " fill-opacity="1" fill-rule="nonzero"/><path fill="#e1ebf4" d="M 209.503906 175.628906 L 209.503906 187.199219 C 209.503906 191.441406 205.652344 194.910156 200.835938 194.910156 C 196.023438 194.910156 192.171875 191.441406 192.171875 187.199219 L 192.171875 175.628906 C 192.171875 171.390625 196.023438 167.917969 200.835938 167.917969 C 205.652344 167.917969 209.503906 171.390625 209.503906 175.628906 Z M 209.503906 175.628906 " fill-opacity="1" fill-rule="nonzero"/><path fill="#9fa5aa" d="M 338.511719 71.515625 C 338.511719 90.988281 321.179688 108.917969 302.117188 110.078125 C 301.539062 110.078125 300.769531 110.078125 300 110.078125 C 299.230469 110.078125 298.652344 110.078125 297.882812 110.078125 C 278.820312 108.917969 261.492188 90.988281 261.492188 71.515625 C 261.492188 70.164062 263.414062 69.007812 263.609375 67.660156 C 265.535156 85.976562 281.128906 100.4375 300 100.4375 C 318.871094 100.4375 334.464844 85.976562 336.390625 67.660156 C 336.585938 69.007812 338.511719 70.164062 338.511719 71.515625 Z M 338.511719 71.515625 " fill-opacity="0.5" fill-rule="nonzero"/><path fill="#9fa5aa" d="M 407.828125 179.488281 L 407.828125 187.199219 C 407.828125 191.441406 403.976562 194.910156 399.164062 194.910156 C 398.777344 194.910156 398.585938 194.910156 398.199219 194.910156 C 393.773438 194.527344 390.5 191.246094 390.5 187.199219 L 390.5 179.488281 C 390.5 183.726562 394.347656 187.199219 399.164062 187.199219 C 403.976562 187.199219 407.828125 183.726562 407.828125 179.488281 Z M 407.828125 179.488281 " fill-opacity="0.5" fill-rule="nonzero"/><path fill="#9fa5aa" d="M 209.503906 179.488281 L 209.503906 187.199219 C 209.503906 191.246094 206.035156 194.527344 201.800781 194.910156 C 201.414062 194.910156 201.222656 194.910156 200.835938 194.910156 C 196.023438 194.910156 192.171875 191.441406 192.171875 187.199219 L 192.171875 179.488281 C 192.171875 183.726562 196.023438 187.199219 200.835938 187.199219 C 205.652344 187.199219 209.503906 183.726562 209.503906 179.488281 Z M 209.503906 179.488281 " fill-opacity="0.5" fill-rule="nonzero"/><g clip-path="url(#492dbc5abb)"><path fill="#2d4356" d="M 300 27.167969 C 275.546875 27.167969 255.714844 47.027344 255.714844 71.515625 C 255.714844 96 275.546875 115.859375 300 115.859375 C 324.453125 115.859375 344.285156 96 344.285156 71.515625 C 344.285156 47.027344 324.453125 27.167969 300 27.167969 Z M 300 108.148438 C 279.78125 108.148438 263.414062 91.757812 263.414062 71.515625 C 263.414062 51.269531 279.78125 34.882812 300 34.882812 C 320.21875 34.882812 336.585938 51.269531 336.585938 71.515625 C 336.585938 91.757812 320.21875 108.148438 300 108.148438 Z M 300 108.148438 " fill-opacity="1" fill-rule="nonzero"/></g></svg>