<svg xmlns="http://www.w3.org/2000/svg" xmlns:xlink="http://www.w3.org/1999/xlink" width="800" zoomAndPan="magnify" viewBox="0 0 600 374.999991" height="500" preserveAspectRatio="xMidYMid meet" version="1.0"><defs><g/><clipPath id="070f747950"><path d="M 190.058594 210 L 409.808594 210 L 409.808594 270.304688 L 190.058594 270.304688 Z M 190.058594 210 " clip-rule="nonzero"/></clipPath><clipPath id="4b81ed02a5"><path d="M 206 50.554688 L 287 50.554688 L 287 128 L 206 128 Z M 206 50.554688 " clip-rule="nonzero"/></clipPath><clipPath id="9563c0d5c6"><path d="M 190.058594 129 L 270 129 L 270 195 L 190.058594 195 Z M 190.058594 129 " clip-rule="nonzero"/></clipPath><clipPath id="61c9281b13"><path d="M 330 129 L 409.808594 129 L 409.808594 195 L 330 195 Z M 330 129 " clip-rule="nonzero"/></clipPath><clipPath id="0073dfefff"><path d="M 313 50.554688 L 393 50.554688 L 393 128 L 313 128 Z M 313 50.554688 " clip-rule="nonzero"/></clipPath></defs><rect x="-60" width="720" fill="#ffffff" y="-37.499999" height="449.999989" fill-opacity="1"/><rect x="-60" width="720" fill="#ffd800" y="-37.499999" height="449.999989" fill-opacity="1"/><path fill="#f35e52" d="M 236.519531 192.214844 C 236.25 178.347656 252.953125 170.242188 256.304688 168.757812 L 278.148438 159.097656 C 273.761719 154.132812 270.289062 146.84375 268.855469 136.222656 C 268.847656 136.152344 268.835938 136.085938 268.824219 136.011719 L 259.445312 133.21875 L 246.582031 145.449219 L 230.519531 133.21875 L 197.523438 151.027344 L 193.667969 157.460938 L 193.667969 194.789062 L 236.519531 194.789062 L 236.519531 192.214844 " fill-opacity="1" fill-rule="nonzero"/><path fill="#f35e52" d="M 389.5 140.300781 L 365.714844 133.21875 L 352.855469 145.449219 L 336.792969 133.21875 L 331.003906 136.34375 C 329.664062 146.113281 326.570312 153.738281 321.777344 159.179688 L 343.722656 168.816406 C 348.339844 171.011719 363.40625 179.183594 363.359375 192.238281 L 363.359375 194.789062 L 405.566406 194.789062 L 405.566406 154.214844 L 389.5 140.300781 " fill-opacity="1" fill-rule="nonzero"/><path fill="#d57a41" d="M 271.949219 66.964844 L 246.804688 74.5 L 221.65625 66.964844 L 246.804688 57.714844 L 271.949219 66.964844 " fill-opacity="1" fill-rule="nonzero"/><path fill="#d57a41" d="M 267.371094 75.511719 L 267.371094 87.578125 C 267.289062 87.609375 267.203125 87.628906 267.132812 87.660156 C 267.046875 87.679688 266.960938 87.695312 266.894531 87.730469 C 261.664062 89.222656 254.347656 90.097656 246.804688 90.097656 C 239.246094 90.097656 231.890625 89.222656 226.664062 87.714844 C 226.527344 87.660156 226.371094 87.628906 226.234375 87.59375 L 226.234375 75.511719 L 245.828125 81.378906 C 246.136719 81.464844 246.476562 81.519531 246.804688 81.519531 C 247.128906 81.519531 247.472656 81.464844 247.78125 81.378906 L 267.371094 75.511719 " fill-opacity="1" fill-rule="nonzero"/><path fill="#f68179" d="M 231.292969 137.007812 L 208.722656 146.984375 C 204.90625 148.699219 197.019531 153.617188 197.097656 157.820312 L 197.097656 161.117188 C 197.183594 156.941406 204.949219 152.097656 208.71875 150.410156 L 231.292969 140.4375 L 241.300781 148.863281 L 242.160156 146.152344 L 233.199219 138.609375 L 231.292969 137.007812 " fill-opacity="1" fill-rule="nonzero"/><path fill="#ab6238" d="M 266.917969 87.71875 C 266.902344 87.722656 266.886719 87.730469 266.863281 87.738281 C 266.871094 87.738281 266.878906 87.734375 266.882812 87.734375 C 266.890625 87.730469 266.894531 87.730469 266.898438 87.726562 C 266.90625 87.722656 266.910156 87.722656 266.917969 87.71875 M 267.371094 84.144531 C 267.285156 84.175781 267.199219 84.195312 267.132812 84.230469 C 267.046875 84.246094 266.960938 84.265625 266.894531 84.300781 C 261.664062 85.792969 254.34375 86.667969 246.804688 86.667969 C 239.246094 86.667969 231.890625 85.792969 226.664062 84.28125 C 226.527344 84.230469 226.375 84.195312 226.234375 84.160156 L 226.234375 87.585938 C 226.292969 87.601562 226.351562 87.621094 226.410156 87.636719 C 226.480469 87.65625 226.554688 87.675781 226.625 87.699219 C 226.636719 87.703125 226.652344 87.707031 226.664062 87.710938 C 227.636719 87.992188 228.679688 88.253906 229.785156 88.488281 C 234.566406 89.503906 240.492188 90.085938 246.5625 90.097656 C 246.640625 90.097656 246.722656 90.097656 246.804688 90.097656 C 253.503906 90.097656 260.027344 89.410156 265.066406 88.207031 C 265.710938 88.054688 266.328125 87.890625 266.917969 87.71875 C 266.949219 87.707031 266.980469 87.695312 267.011719 87.6875 C 267.046875 87.675781 267.085938 87.664062 267.125 87.652344 C 267.179688 87.636719 267.234375 87.621094 267.289062 87.605469 C 267.316406 87.597656 267.34375 87.585938 267.371094 87.578125 L 267.371094 84.144531 " fill-opacity="1" fill-rule="nonzero"/><path fill="#f9f4f0" d="M 221.660156 66.964844 L 222.183594 67.121094 L 226.804688 68.507812 L 221.660156 66.964844 M 271.949219 66.964844 L 266.800781 68.507812 L 270.828125 67.300781 L 271.949219 66.964844 " fill-opacity="1" fill-rule="nonzero"/><path fill="#da9363" d="M 246.804688 57.714844 L 235.363281 61.921875 L 221.65625 66.964844 L 226.804688 68.507812 L 246.804688 61.148438 L 266.800781 68.507812 L 271.949219 66.964844 L 254.691406 60.617188 L 246.804688 57.714844 " fill-opacity="1" fill-rule="nonzero"/><path fill="#d57a41" d="M 378.21875 66.964844 L 353.074219 74.5 L 327.929688 66.964844 L 353.074219 57.714844 L 378.21875 66.964844 " fill-opacity="1" fill-rule="nonzero"/><path fill="#d57a41" d="M 373.644531 75.511719 L 373.644531 87.578125 C 373.558594 87.609375 373.472656 87.628906 373.402344 87.660156 C 373.320312 87.679688 373.230469 87.695312 373.164062 87.730469 C 367.9375 89.222656 360.617188 90.097656 353.074219 90.097656 C 345.515625 90.097656 338.164062 89.222656 332.933594 87.714844 C 332.796875 87.660156 332.644531 87.628906 332.507812 87.59375 L 332.507812 75.511719 L 352.097656 81.378906 C 352.40625 81.464844 352.75 81.519531 353.074219 81.519531 C 353.402344 81.519531 353.746094 81.464844 354.050781 81.378906 L 373.644531 75.511719 " fill-opacity="1" fill-rule="nonzero"/><path fill="#f68179" d="M 368.449219 137.003906 L 364.664062 140.175781 L 357.675781 146.03125 L 358.53125 148.738281 L 368.449219 140.4375 L 391.09375 150.390625 C 394.914062 152.175781 402.78125 157.171875 402.78125 161.304688 L 402.78125 157.886719 C 402.78125 157.878906 402.78125 157.871094 402.78125 157.867188 C 402.765625 153.734375 394.90625 148.742188 391.09375 146.957031 L 376.816406 140.683594 L 368.449219 137.003906 " fill-opacity="1" fill-rule="nonzero"/><path fill="#ab6238" d="M 373.191406 87.71875 C 373.175781 87.722656 373.15625 87.730469 373.132812 87.738281 C 373.140625 87.738281 373.148438 87.734375 373.152344 87.734375 C 373.160156 87.730469 373.167969 87.730469 373.171875 87.726562 C 373.175781 87.722656 373.183594 87.722656 373.191406 87.71875 M 373.644531 84.144531 C 373.558594 84.175781 373.472656 84.195312 373.402344 84.230469 C 373.316406 84.246094 373.234375 84.265625 373.164062 84.300781 C 367.9375 85.792969 360.617188 86.667969 353.074219 86.667969 C 345.515625 86.667969 338.164062 85.792969 332.933594 84.28125 C 332.796875 84.230469 332.644531 84.195312 332.507812 84.160156 L 332.507812 87.585938 C 332.5625 87.601562 332.621094 87.621094 332.679688 87.636719 C 332.753906 87.65625 332.828125 87.675781 332.898438 87.699219 C 332.910156 87.703125 332.921875 87.707031 332.933594 87.710938 C 333.863281 87.980469 334.851562 88.226562 335.898438 88.453125 C 340.722656 89.496094 346.726562 90.085938 352.878906 90.097656 C 352.945312 90.097656 353.007812 90.097656 353.074219 90.097656 C 359.742188 90.097656 366.238281 89.414062 371.265625 88.226562 C 371.933594 88.066406 372.578125 87.898438 373.191406 87.71875 C 373.21875 87.707031 373.25 87.695312 373.28125 87.691406 C 373.316406 87.675781 373.359375 87.664062 373.394531 87.652344 C 373.453125 87.636719 373.507812 87.621094 373.566406 87.605469 C 373.589844 87.59375 373.617188 87.585938 373.644531 87.578125 L 373.644531 84.144531 " fill-opacity="1" fill-rule="nonzero"/><path fill="#f9f4f0" d="M 327.929688 66.964844 L 328.613281 67.167969 L 333.074219 68.507812 L 333.078125 68.507812 L 327.929688 66.964844 M 378.21875 66.964844 L 373.070312 68.507812 L 373.074219 68.507812 L 377.25 67.253906 L 378.21875 66.964844 " fill-opacity="1" fill-rule="nonzero"/><path fill="#da9363" d="M 353.074219 57.714844 L 342.523438 61.597656 L 327.929688 66.964844 L 333.078125 68.507812 L 353.074219 61.148438 L 373.070312 68.507812 L 378.21875 66.964844 L 361.851562 60.941406 L 353.074219 57.714844 " fill-opacity="1" fill-rule="nonzero"/><path fill="#e4eef6" d="M 228.519531 215.761719 L 367.644531 213.382812 L 374.5 217.53125 L 383.644531 249.28125 L 326.222656 240.386719 L 301.226562 251.285156 L 271.230469 241.558594 L 215.523438 249.851562 L 228.519531 215.761719 " fill-opacity="1" fill-rule="nonzero"/><path fill="#f35e52" d="M 246.804688 229.117188 L 352.433594 229.117188 L 352.433594 188.539062 L 336.363281 174.625 L 312.578125 167.546875 L 299.71875 179.773438 L 283.65625 167.546875 L 250.660156 185.351562 L 246.804688 191.785156 L 246.804688 229.117188 " fill-opacity="1" fill-rule="nonzero"/><g clip-path="url(#070f747950)"><path fill="#2c3d53" d="M 409.363281 265.550781 L 392.085938 224.277344 C 391.675781 223.3125 390.871094 222.59375 389.875 222.300781 C 388.128906 221.804688 383.171875 220.429688 376.402344 218.871094 L 374.894531 215.042969 C 374.5 214.0625 373.695312 213.324219 372.699219 213.015625 C 371.414062 212.640625 368.039062 211.625 363.359375 210.460938 L 363.359375 217.566406 C 365.484375 218.097656 367.441406 218.628906 369.136719 219.125 L 379.796875 246.070312 C 362.589844 241.027344 318.519531 230.503906 299.941406 248.441406 C 292.125 240.886719 279.800781 238.382812 266.859375 238.382812 C 249.03125 238.382812 230.039062 243.152344 220.082031 246.070312 L 230.761719 219.125 C 232.441406 218.628906 234.394531 218.097656 236.519531 217.546875 L 236.519531 210.460938 C 231.839844 211.625 228.464844 212.640625 227.179688 213.015625 C 226.183594 213.324219 225.378906 214.0625 225 215.042969 L 223.476562 218.871094 C 216.707031 220.429688 211.75 221.804688 210.003906 222.300781 C 209.007812 222.59375 208.203125 223.3125 207.792969 224.277344 L 190.515625 265.550781 C 190.070312 266.597656 190.171875 267.816406 190.824219 268.777344 C 191.457031 269.738281 192.519531 270.304688 193.667969 270.304688 L 286.226562 270.304688 C 286.65625 270.304688 287.066406 270.21875 287.460938 270.082031 L 299.941406 265.242188 L 312.417969 270.082031 C 312.8125 270.21875 313.222656 270.304688 313.652344 270.304688 L 406.210938 270.304688 C 407.359375 270.304688 408.421875 269.738281 409.074219 268.777344 C 409.707031 267.816406 409.808594 266.597656 409.363281 265.550781 M 314.285156 263.441406 L 301.175781 258.359375 C 300.386719 258.050781 299.492188 258.050781 298.707031 258.359375 L 285.59375 263.441406 L 198.828125 263.441406 L 213.484375 228.464844 C 215.503906 227.898438 217.835938 227.296875 220.390625 226.679688 L 211.050781 250.242188 C 210.550781 251.476562 210.824219 252.902344 211.769531 253.878906 C 212.695312 254.839844 214.101562 255.183594 215.367188 254.738281 C 233.296875 248.527344 282.953125 236.5625 297.195312 255.664062 C 297.847656 256.523438 298.859375 257.039062 299.941406 257.039062 C 301.019531 257.039062 302.046875 256.523438 302.683594 255.664062 C 316.90625 236.5625 366.582031 248.527344 384.527344 254.738281 C 385.78125 255.183594 387.183594 254.839844 388.109375 253.878906 C 389.054688 252.902344 389.328125 251.476562 388.832031 250.242188 L 379.488281 226.679688 C 382.042969 227.296875 384.390625 227.898438 386.398438 228.464844 L 401.050781 263.441406 L 314.285156 263.441406 " fill-opacity="1" fill-rule="nonzero"/></g><path fill="#8dd9dd" d="M 401.050781 263.441406 L 314.285156 263.441406 L 301.171875 258.359375 C 300.386719 258.050781 299.496094 258.050781 298.707031 258.359375 L 285.59375 263.441406 L 198.828125 263.441406 L 213.484375 228.464844 C 215.503906 227.898438 217.835938 227.296875 220.390625 226.679688 L 211.046875 250.242188 C 210.550781 251.476562 210.824219 252.902344 211.769531 253.878906 C 212.695312 254.839844 214.101562 255.183594 215.367188 254.738281 C 233.296875 248.527344 282.953125 236.5625 297.199219 255.664062 C 297.847656 256.523438 298.859375 257.039062 299.9375 257.039062 C 301.019531 257.039062 302.046875 256.523438 302.683594 255.664062 C 316.910156 236.5625 366.582031 248.527344 384.527344 254.738281 C 385.777344 255.183594 387.183594 254.839844 388.109375 253.878906 C 389.050781 252.902344 389.328125 251.476562 388.828125 250.242188 L 379.488281 226.679688 C 382.042969 227.296875 384.390625 227.898438 386.394531 228.464844 L 401.050781 263.441406 " fill-opacity="1" fill-rule="nonzero"/><g clip-path="url(#4b81ed02a5)"><path fill="#2c3d53" d="M 254.925781 96.644531 C 255.070312 96.421875 255.195312 96.1875 255.359375 95.972656 C 256.582031 94.105469 258.320312 92.71875 260.398438 91.953125 L 274.230469 86.867188 L 274.230469 73.449219 L 283.78125 70.585938 C 285.195312 70.160156 286.179688 68.878906 286.226562 67.402344 C 286.269531 65.921875 285.367188 64.585938 283.980469 64.074219 L 247.984375 50.835938 C 247.222656 50.554688 246.386719 50.554688 245.621094 50.835938 L 209.628906 64.074219 C 208.886719 64.347656 208.300781 64.867188 207.90625 65.503906 C 207.3125 66.125 206.941406 66.960938 206.941406 67.886719 L 206.941406 80.046875 C 206.941406 81.941406 208.476562 83.480469 210.367188 83.480469 C 212.261719 83.480469 213.796875 81.941406 213.796875 80.046875 L 213.796875 71.773438 L 219.378906 73.449219 L 219.378906 90.027344 C 219.378906 91.367188 220.171875 92.558594 221.375 93.121094 C 221.554688 94.710938 221.792969 96.277344 222.035156 97.800781 C 222.203125 98.859375 222.371094 99.917969 222.515625 100.972656 C 223.324219 106.949219 225.785156 125.132812 244.886719 127.71875 C 245.5625 127.808594 246.183594 127.855469 246.808594 127.855469 C 247.496094 127.855469 248.183594 127.800781 248.949219 127.6875 C 253.25 127.074219 256.699219 125.707031 259.484375 123.847656 C 257.238281 122.890625 255.40625 121.148438 254.316406 118.96875 C 252.484375 119.921875 250.386719 120.550781 247.972656 120.894531 C 247.125 121.019531 246.597656 121.027344 245.804688 120.914062 C 236.042969 119.59375 231.109375 113.355469 229.308594 100.050781 C 229.15625 98.945312 228.984375 97.835938 228.808594 96.726562 C 228.726562 96.21875 228.65625 95.734375 228.582031 95.242188 C 233.867188 96.355469 240.175781 96.964844 246.804688 96.964844 C 249.589844 96.964844 252.308594 96.851562 254.925781 96.644531 M 221.65625 66.964844 L 246.804688 57.714844 L 271.953125 66.964844 L 246.804688 74.503906 L 221.65625 66.964844 M 226.664062 87.710938 C 226.519531 87.671875 226.375 87.628906 226.234375 87.585938 L 226.234375 75.503906 L 245.820312 81.375 C 246.140625 81.46875 246.472656 81.519531 246.804688 81.519531 C 247.136719 81.519531 247.46875 81.46875 247.789062 81.375 L 267.371094 75.503906 L 267.371094 87.582031 C 267.289062 87.605469 267.207031 87.628906 267.125 87.65625 C 266.964844 87.699219 266.808594 87.757812 266.660156 87.828125 C 266.769531 87.777344 266.886719 87.730469 266.929688 87.714844 C 261.699219 89.230469 254.367188 90.101562 246.804688 90.101562 C 239.238281 90.101562 231.898438 89.230469 226.664062 87.710938 " fill-opacity="1" fill-rule="nonzero"/></g><g clip-path="url(#9563c0d5c6)"><path fill="#2c3d53" d="M 190.242188 191.359375 C 190.242188 193.253906 191.777344 194.789062 193.667969 194.789062 C 195.5625 194.789062 197.097656 193.253906 197.097656 191.359375 L 197.097656 157.820312 C 197.019531 153.617188 204.90625 148.699219 208.722656 146.984375 L 231.292969 137.007812 L 242.167969 146.144531 L 233.253906 174.296875 C 232.878906 175.472656 233.164062 176.753906 234 177.660156 L 238.964844 183.058594 C 240.128906 181.019531 241.613281 179.1875 243.238281 177.566406 L 240.390625 174.472656 L 246.804688 154.214844 L 252.09375 170.917969 C 253.964844 169.84375 255.492188 169.117188 256.28125 168.765625 L 258.320312 167.867188 L 251.40625 146.03125 L 262.175781 137.003906 L 269.476562 140.210938 C 269.183594 138.621094 268.992188 137.25 268.855469 136.222656 C 268.71875 135.214844 268.558594 134.203125 268.398438 133.195312 C 268.347656 132.863281 268.292969 132.515625 268.242188 132.175781 L 262.984375 129.863281 C 261.789062 129.339844 260.402344 129.539062 259.40625 130.375 L 246.71875 141.007812 L 234.066406 130.375 C 233.0625 129.535156 231.675781 129.335938 230.476562 129.863281 L 205.9375 140.707031 C 204.3125 141.4375 190.058594 148.09375 190.242188 157.886719 L 190.242188 191.359375 " fill-opacity="1" fill-rule="nonzero"/></g><g clip-path="url(#61c9281b13)"><path fill="#2c3d53" d="M 393.917969 140.699219 L 369.253906 129.863281 C 368.058594 129.339844 366.675781 129.535156 365.675781 130.375 L 352.992188 141.007812 L 340.335938 130.375 C 339.335938 129.535156 337.945312 129.335938 336.746094 129.863281 L 331.644531 132.117188 C 331.589844 132.476562 331.535156 132.84375 331.480469 133.191406 C 331.320312 134.203125 331.160156 135.210938 331.023438 136.21875 C 330.886719 137.238281 330.699219 138.597656 330.410156 140.171875 L 337.5625 137.007812 L 348.4375 146.144531 L 341.558594 167.867188 L 343.539062 168.738281 C 343.558594 168.746094 343.582031 168.757812 343.601562 168.765625 C 344.59375 169.226562 346.074219 169.972656 347.769531 170.960938 L 353.074219 154.214844 L 359.492188 174.472656 L 356.578125 177.636719 C 358.199219 179.265625 359.683594 181.097656 360.84375 183.132812 L 365.882812 177.660156 C 366.714844 176.753906 367 175.46875 366.628906 174.296875 L 357.675781 146.03125 L 368.445312 137.003906 L 391.09375 146.957031 C 394.914062 148.738281 402.796875 153.757812 402.78125 157.882812 L 402.78125 191.359375 C 402.78125 193.253906 404.316406 194.789062 406.210938 194.789062 C 408.105469 194.789062 409.640625 193.253906 409.640625 191.359375 L 409.640625 157.894531 C 409.671875 148.300781 395.589844 141.476562 393.917969 140.699219 " fill-opacity="1" fill-rule="nonzero"/></g><g clip-path="url(#0073dfefff)"><path fill="#2c3d53" d="M 370.570312 100.050781 C 368.75 113.457031 364.019531 119.5 354.246094 120.894531 C 353.394531 121.019531 352.867188 121.027344 352.078125 120.914062 C 345.742188 120.058594 341.453125 117.117188 338.722656 111.535156 L 334.222656 112.882812 L 334.222656 117.441406 C 337.449219 122.320312 342.652344 126.566406 351.15625 127.71875 C 351.832031 127.808594 352.457031 127.855469 353.082031 127.855469 C 353.765625 127.855469 354.453125 127.800781 355.21875 127.6875 C 372.144531 125.273438 375.964844 111.285156 377.363281 100.972656 C 377.507812 99.917969 377.675781 98.855469 377.84375 97.796875 C 378.085938 96.273438 378.324219 94.707031 378.503906 93.121094 C 379.707031 92.558594 380.5 91.367188 380.5 90.027344 L 380.5 73.449219 L 390.054688 70.585938 C 391.464844 70.160156 392.449219 68.878906 392.496094 67.402344 C 392.542969 65.921875 391.636719 64.585938 390.253906 64.074219 L 354.257812 50.835938 C 353.492188 50.554688 352.65625 50.554688 351.894531 50.835938 L 315.898438 64.074219 C 315.15625 64.347656 314.570312 64.867188 314.179688 65.503906 C 313.582031 66.125 313.210938 66.960938 313.210938 67.886719 L 313.210938 80.046875 C 313.210938 81.1875 313.773438 82.191406 314.625 82.816406 L 316.359375 83.449219 C 316.453125 83.460938 316.542969 83.480469 316.636719 83.480469 C 318.53125 83.480469 320.066406 81.941406 320.066406 80.046875 L 320.066406 71.773438 L 325.652344 73.449219 L 325.652344 86.867188 L 339.480469 91.953125 C 341.851562 92.824219 343.726562 94.519531 344.894531 96.621094 C 347.535156 96.832031 350.265625 96.964844 353.074219 96.964844 C 359.722656 96.964844 366.046875 96.351562 371.296875 95.242188 C 371.222656 95.734375 371.152344 96.21875 371.070312 96.722656 C 370.894531 97.835938 370.71875 98.945312 370.570312 100.050781 M 353.074219 57.714844 L 378.222656 66.964844 L 353.074219 74.503906 L 327.925781 66.964844 L 353.074219 57.714844 M 353.074219 90.101562 C 345.507812 90.101562 338.167969 89.230469 332.933594 87.710938 C 332.789062 87.671875 332.648438 87.628906 332.507812 87.585938 L 332.507812 75.503906 L 352.09375 81.375 C 352.414062 81.46875 352.742188 81.519531 353.074219 81.519531 C 353.40625 81.519531 353.738281 81.46875 354.058594 81.375 L 373.644531 75.503906 L 373.644531 87.582031 C 373.5625 87.605469 373.476562 87.628906 373.394531 87.65625 C 373.234375 87.699219 373.078125 87.757812 372.929688 87.828125 C 373.039062 87.777344 373.160156 87.730469 373.199219 87.714844 C 367.972656 89.230469 360.636719 90.101562 353.074219 90.101562 " fill-opacity="1" fill-rule="nonzero"/></g><path fill="#2c3d53" d="M 340.785156 175.019531 L 316.121094 164.1875 C 314.921875 163.65625 313.53125 163.863281 312.539062 164.703125 L 299.855469 175.328125 L 287.203125 164.703125 C 286.191406 163.863281 284.804688 163.65625 283.605469 164.1875 L 259.078125 175.035156 C 257.449219 175.757812 243.1875 182.414062 243.375 192.214844 L 243.375 225.683594 C 243.375 227.570312 244.917969 229.117188 246.804688 229.117188 C 248.707031 229.117188 250.230469 227.570312 250.230469 225.683594 L 250.230469 192.148438 C 250.148438 187.941406 258.046875 183.015625 261.855469 181.300781 L 284.425781 171.328125 L 295.292969 180.476562 L 286.382812 208.625 C 286.023438 209.789062 286.296875 211.078125 287.136719 211.988281 L 297.144531 222.867188 C 297.796875 223.570312 298.707031 223.964844 299.664062 223.964844 L 300.214844 223.964844 C 301.171875 223.964844 302.082031 223.570312 302.734375 222.867188 L 312.746094 211.988281 C 313.582031 211.078125 313.859375 209.789062 313.5 208.625 L 304.535156 180.355469 L 315.316406 171.328125 L 337.957031 181.285156 C 341.78125 183.066406 349.664062 188.078125 349.648438 192.214844 L 349.648438 225.683594 C 349.648438 227.570312 351.191406 229.117188 353.074219 229.117188 C 354.960938 229.117188 356.503906 227.570312 356.503906 225.683594 L 356.503906 192.214844 C 356.539062 182.621094 342.449219 175.808594 340.785156 175.019531 M 306.351562 208.792969 L 299.941406 215.761719 L 293.527344 208.792969 L 299.941406 188.542969 L 306.351562 208.792969 " fill-opacity="1" fill-rule="nonzero"/><path fill="#fcd965" d="M 306.347656 208.796875 L 299.9375 215.761719 L 293.527344 208.796875 L 299.9375 188.542969 L 306.347656 208.796875 " fill-opacity="1" fill-rule="nonzero"/><path fill="#fcd965" d="M 252.089844 170.910156 L 246.804688 154.21875 L 240.394531 174.46875 L 243.222656 177.546875 C 246.125 174.648438 249.445312 172.425781 252.089844 170.910156 " fill-opacity="1" fill-rule="nonzero"/><path fill="#fcd965" d="M 356.542969 177.671875 L 359.484375 174.472656 L 353.074219 154.21875 L 347.769531 170.980469 C 350.445312 172.5625 353.691406 174.800781 356.542969 177.671875 " fill-opacity="1" fill-rule="nonzero"/><path fill="#e4eef6" d="M 247.96875 120.886719 C 250.382812 120.546875 252.484375 119.917969 254.3125 118.96875 C 253.617188 117.582031 253.214844 116.023438 253.214844 114.367188 L 253.214844 102.214844 C 253.214844 100.210938 253.820312 98.300781 254.894531 96.644531 C 252.289062 96.851562 249.578125 96.964844 246.804688 96.964844 C 240.171875 96.964844 233.863281 96.347656 228.582031 95.25 C 228.652344 95.730469 228.71875 96.226562 228.804688 96.726562 C 228.976562 97.839844 229.167969 98.9375 229.304688 100.054688 C 231.101562 113.355469 236.039062 119.601562 245.808594 120.921875 C 246.597656 121.027344 247.128906 121.027344 247.96875 120.886719 " fill-opacity="1" fill-rule="nonzero"/><path fill="#e4eef6" d="M 353.074219 96.964844 C 350.269531 96.964844 347.546875 96.832031 344.910156 96.621094 C 345.792969 98.210938 346.28125 100.035156 346.214844 101.960938 C 346.058594 106.382812 343.117188 110.210938 338.890625 111.484375 L 338.71875 111.535156 C 341.449219 117.121094 345.742188 120.066406 352.082031 120.921875 C 352.867188 121.027344 353.402344 121.027344 354.242188 120.890625 C 364.027344 119.5 368.742188 113.457031 370.574219 100.054688 C 370.730469 98.9375 370.902344 97.839844 371.070312 96.722656 C 371.15625 96.226562 371.226562 95.730469 371.296875 95.25 C 366.050781 96.347656 359.726562 96.964844 353.074219 96.964844 " fill-opacity="1" fill-rule="nonzero"/><path fill="#d1d3d3" d="M 254.292969 118.929688 C 254.296875 118.941406 254.304688 118.957031 254.3125 118.96875 C 254.304688 118.957031 254.296875 118.941406 254.292969 118.929688 M 253.355469 115.980469 C 253.351562 115.984375 253.347656 115.984375 253.34375 115.984375 C 253.511719 117.023438 253.835938 118.011719 254.289062 118.921875 C 253.835938 118.007812 253.519531 117.023438 253.355469 115.980469 M 228.582031 95.25 C 228.757812 95.285156 228.9375 95.320312 229.117188 95.359375 C 229.113281 95.355469 229.113281 95.351562 229.113281 95.351562 C 228.925781 95.316406 228.753906 95.285156 228.582031 95.25 " fill-opacity="1" fill-rule="nonzero"/><path fill="#c1c7ce" d="M 228.582031 95.25 C 228.652344 95.730469 228.71875 96.226562 228.804688 96.726562 C 228.976562 97.839844 229.167969 98.9375 229.304688 100.054688 C 231.101562 113.355469 236.039062 119.601562 245.808594 120.921875 C 246.175781 120.972656 246.488281 120.996094 246.796875 120.996094 C 247.15625 120.996094 247.519531 120.960938 247.96875 120.886719 C 250.382812 120.546875 252.484375 119.917969 254.3125 118.96875 C 254.304688 118.957031 254.296875 118.941406 254.292969 118.929688 C 254.292969 118.925781 254.289062 118.925781 254.289062 118.921875 C 253.835938 118.011719 253.511719 117.023438 253.34375 115.984375 C 251.75 116.683594 249.96875 117.171875 247.96875 117.457031 C 247.519531 117.53125 247.15625 117.5625 246.796875 117.5625 C 246.488281 117.5625 246.175781 117.539062 245.808594 117.492188 C 236.039062 116.167969 231.101562 109.921875 229.304688 96.621094 C 229.253906 96.195312 229.183594 95.785156 229.117188 95.359375 C 228.9375 95.320312 228.757812 95.285156 228.582031 95.25 " fill-opacity="1" fill-rule="nonzero"/><path fill="#d1d3d3" d="M 371.296875 95.25 C 371.203125 95.265625 371.105469 95.285156 371.007812 95.304688 C 370.925781 95.320312 370.84375 95.335938 370.761719 95.351562 C 370.761719 95.355469 370.761719 95.355469 370.761719 95.359375 C 370.941406 95.320312 371.121094 95.285156 371.296875 95.25 " fill-opacity="1" fill-rule="nonzero"/><path fill="#5f6f7f" d="M 371.011719 95.304688 C 370.925781 95.316406 370.84375 95.335938 370.765625 95.351562 C 370.847656 95.335938 370.929688 95.320312 371.011719 95.304688 " fill-opacity="1" fill-rule="nonzero"/><path fill="#d1d3d3" d="M 340.378906 110.902344 C 339.941406 111.113281 339.484375 111.296875 339.011719 111.445312 C 339.484375 111.296875 339.941406 111.113281 340.378906 110.90625 C 340.378906 110.90625 340.378906 110.902344 340.378906 110.902344 " fill-opacity="1" fill-rule="nonzero"/><path fill="#c1c7ce" d="M 371.296875 95.25 C 371.121094 95.285156 370.941406 95.320312 370.761719 95.359375 C 370.695312 95.785156 370.625 96.195312 370.574219 96.621094 C 368.742188 110.023438 364.027344 116.066406 354.242188 117.457031 C 353.789062 117.53125 353.429688 117.5625 353.070312 117.5625 C 352.757812 117.5625 352.445312 117.539062 352.082031 117.492188 C 346.902344 116.789062 343.09375 114.6875 340.378906 110.90625 C 339.941406 111.117188 339.484375 111.296875 339.011719 111.445312 C 338.972656 111.457031 338.929688 111.472656 338.890625 111.484375 L 338.71875 111.535156 C 341.449219 117.121094 345.742188 120.066406 352.082031 120.921875 C 352.445312 120.972656 352.757812 120.996094 353.070312 120.996094 C 353.429688 120.996094 353.789062 120.960938 354.242188 120.890625 C 364.027344 119.5 368.742188 113.457031 370.574219 100.054688 C 370.730469 98.9375 370.902344 97.839844 371.070312 96.722656 C 371.15625 96.226562 371.226562 95.730469 371.296875 95.25 " fill-opacity="1" fill-rule="nonzero"/><path fill="#d7744d" d="M 241.199219 171.914062 L 241.011719 172.503906 L 240.394531 174.46875 L 241.203125 171.914062 L 241.199219 171.914062 " fill-opacity="1" fill-rule="nonzero"/><path fill="#5f6150" d="M 241.199219 171.914062 L 241.011719 172.507812 L 241.199219 171.914062 " fill-opacity="1" fill-rule="nonzero"/><path fill="#d6b856" d="M 241.203125 171.917969 L 240.394531 174.46875 L 243.222656 177.546875 C 243.777344 176.992188 244.34375 176.464844 244.921875 175.960938 L 241.203125 171.917969 " fill-opacity="1" fill-rule="nonzero"/><path fill="#d9ceab" d="M 354.851562 176.074219 C 355.019531 176.222656 355.1875 176.375 355.351562 176.527344 C 355.1875 176.375 355.019531 176.222656 354.851562 176.074219 " fill-opacity="1" fill-rule="nonzero"/><path fill="#d7744d" d="M 358.679688 171.914062 L 358.675781 171.914062 L 359.484375 174.472656 L 358.746094 172.117188 L 358.679688 171.914062 " fill-opacity="1" fill-rule="nonzero"/><path fill="#5f6150" d="M 358.679688 171.914062 L 358.742188 172.117188 L 358.679688 171.914062 " fill-opacity="1" fill-rule="nonzero"/><path fill="#d6b856" d="M 358.675781 171.914062 L 354.851562 176.074219 C 355.019531 176.222656 355.183594 176.375 355.351562 176.527344 C 355.753906 176.894531 356.152344 177.277344 356.542969 177.671875 L 359.484375 174.472656 L 358.675781 171.914062 " fill-opacity="1" fill-rule="nonzero"/><path fill="#fef5f6" d="M 269.523438 140.234375 C 269.789062 141.570312 270.089844 142.84375 270.425781 144.0625 L 270.441406 144.070312 C 270.105469 142.847656 269.796875 141.578125 269.53125 140.234375 L 269.523438 140.234375 " fill-opacity="1" fill-rule="nonzero"/><path fill="#f68179" d="M 262.175781 137.007812 L 258.8125 139.824219 L 251.40625 146.03125 L 252.261719 148.738281 L 262.179688 140.4375 L 270.425781 144.0625 C 270.089844 142.84375 269.789062 141.570312 269.523438 140.234375 L 269.476562 140.210938 L 262.175781 137.007812 " fill-opacity="1" fill-rule="nonzero"/><path fill="#646b7b" d="M 258.8125 139.824219 L 251.398438 146.03125 L 252.253906 148.742188 L 252.261719 148.738281 L 251.40625 146.03125 L 258.8125 139.824219 M 262.179688 137.003906 L 262.175781 137.007812 L 269.476562 140.210938 L 262.179688 137.003906 " fill-opacity="1" fill-rule="nonzero"/><path fill="#fef5f6" d="M 330.363281 140.183594 L 330.355469 140.1875 C 330.09375 141.511719 329.789062 142.785156 329.453125 144.019531 L 329.476562 144.011719 C 329.808594 142.777344 330.105469 141.503906 330.363281 140.183594 " fill-opacity="1" fill-rule="nonzero"/><path fill="#f68179" d="M 337.5625 137.007812 L 330.410156 140.171875 C 330.410156 140.167969 330.410156 140.164062 330.410156 140.164062 L 330.363281 140.183594 C 330.105469 141.503906 329.808594 142.777344 329.476562 144.007812 L 337.5625 140.4375 L 347.574219 148.863281 L 348.429688 146.152344 L 339.660156 138.769531 L 337.5625 137.007812 " fill-opacity="1" fill-rule="nonzero"/><path fill="#646b7b" d="M 337.5625 137.003906 L 330.410156 140.164062 C 330.410156 140.164062 330.410156 140.167969 330.410156 140.171875 L 337.5625 137.007812 L 339.660156 138.769531 L 337.5625 137.003906 " fill-opacity="1" fill-rule="nonzero"/><path fill="#2c3d53" d="M 337.117188 98.40625 L 301.121094 85.15625 C 300.351562 84.882812 299.527344 84.882812 298.757812 85.15625 L 262.761719 98.40625 C 262.023438 98.664062 261.441406 99.195312 261.046875 99.832031 C 260.449219 100.449219 260.070312 101.289062 260.070312 102.21875 L 260.070312 114.367188 C 260.070312 116.273438 261.613281 117.800781 263.5 117.800781 C 265.402344 117.800781 266.925781 116.273438 266.925781 114.367188 L 266.925781 106.09375 L 272.515625 107.777344 L 272.515625 124.355469 C 272.515625 125.695312 273.300781 126.878906 274.503906 127.445312 C 274.691406 129.042969 274.929688 130.605469 275.171875 132.128906 C 275.34375 133.175781 275.515625 134.242188 275.652344 135.304688 C 276.457031 141.277344 278.925781 159.453125 298.019531 162.042969 C 298.703125 162.132812 299.324219 162.183594 299.9375 162.183594 C 300.625 162.183594 301.308594 162.132812 302.082031 162.007812 C 319.015625 159.589844 322.820312 145.601562 324.226562 135.304688 C 324.382812 134.242188 324.535156 133.175781 324.707031 132.113281 C 324.949219 130.605469 325.1875 129.023438 325.375 127.445312 C 326.574219 126.878906 327.363281 125.695312 327.363281 124.355469 L 327.363281 107.777344 L 336.910156 104.910156 C 338.332031 104.480469 339.308594 103.195312 339.363281 101.71875 C 339.414062 100.242188 338.503906 98.902344 337.117188 98.40625 M 317.9375 131.050781 C 317.765625 132.164062 317.59375 133.265625 317.441406 134.378906 C 315.605469 147.78125 310.890625 153.824219 301.105469 155.214844 C 300.265625 155.351562 299.734375 155.351562 298.945312 155.25 C 289.175781 153.929688 284.238281 147.679688 282.4375 134.378906 C 282.300781 133.265625 282.113281 132.164062 281.941406 131.050781 C 281.855469 130.550781 281.789062 130.054688 281.71875 129.574219 C 286.996094 130.671875 293.304688 131.289062 299.9375 131.289062 C 306.589844 131.289062 312.914062 130.671875 318.160156 129.574219 C 318.089844 130.054688 318.023438 130.550781 317.9375 131.050781 M 320.507812 121.902344 C 320.421875 121.9375 320.335938 121.953125 320.269531 121.988281 C 320.179688 122.003906 320.097656 122.023438 320.027344 122.054688 C 314.800781 123.550781 307.480469 124.425781 299.9375 124.425781 C 292.378906 124.425781 285.027344 123.550781 279.800781 122.039062 C 279.660156 121.988281 279.507812 121.953125 279.371094 121.917969 L 279.371094 109.835938 L 298.960938 115.707031 C 299.269531 115.792969 299.613281 115.84375 299.9375 115.84375 C 300.265625 115.84375 300.605469 115.792969 300.917969 115.707031 L 320.507812 109.835938 L 320.507812 121.902344 M 299.9375 108.824219 L 274.792969 101.289062 L 299.9375 92.039062 L 325.085938 101.289062 L 299.9375 108.824219 " fill-opacity="1" fill-rule="nonzero"/><path fill="#d57a41" d="M 325.085938 101.289062 L 299.941406 108.824219 L 274.792969 101.289062 L 299.941406 92.039062 L 325.085938 101.289062 " fill-opacity="1" fill-rule="nonzero"/><path fill="#d57a41" d="M 320.507812 109.835938 L 320.507812 121.898438 C 320.421875 121.9375 320.335938 121.953125 320.269531 121.988281 C 320.183594 122.003906 320.097656 122.023438 320.027344 122.054688 C 314.800781 123.550781 307.480469 124.425781 299.941406 124.425781 C 292.378906 124.425781 285.027344 123.550781 279.800781 122.039062 C 279.664062 121.988281 279.507812 121.953125 279.371094 121.917969 L 279.371094 109.835938 L 298.960938 115.707031 C 299.269531 115.792969 299.613281 115.84375 299.941406 115.84375 C 300.265625 115.84375 300.609375 115.792969 300.917969 115.707031 L 320.507812 109.835938 " fill-opacity="1" fill-rule="nonzero"/><path fill="#e4eef6" d="M 318.160156 129.574219 C 318.089844 130.054688 318.023438 130.550781 317.9375 131.050781 C 317.765625 132.164062 317.59375 133.261719 317.4375 134.378906 C 315.605469 147.78125 310.890625 153.824219 301.105469 155.214844 C 300.265625 155.351562 299.734375 155.351562 298.945312 155.25 C 289.175781 153.929688 284.238281 147.679688 282.4375 134.378906 C 282.300781 133.261719 282.113281 132.164062 281.941406 131.050781 C 281.855469 130.550781 281.789062 130.054688 281.71875 129.574219 C 286.996094 130.671875 293.304688 131.289062 299.941406 131.289062 C 306.589844 131.289062 312.914062 130.671875 318.160156 129.574219 " fill-opacity="1" fill-rule="nonzero"/><path fill="#f68179" d="M 284.425781 171.328125 L 261.851562 181.300781 C 258.070312 183.007812 250.238281 187.886719 250.230469 192.074219 C 250.230469 192.097656 250.230469 192.125 250.230469 192.148438 L 250.230469 195.511719 C 250.230469 191.324219 258.066406 186.433594 261.851562 184.734375 L 284.425781 174.761719 L 294.4375 183.1875 L 295.292969 180.476562 L 284.425781 171.328125 " fill-opacity="1" fill-rule="nonzero"/><path fill="#646b7b" d="M 295.292969 180.476562 L 294.4375 183.1875 L 295.292969 180.476562 M 284.425781 171.328125 L 261.851562 181.300781 C 258.070312 183.007812 250.238281 187.886719 250.230469 192.074219 C 250.238281 187.886719 258.070312 183.007812 261.851562 181.300781 L 284.425781 171.328125 L 295.292969 180.476562 L 284.425781 171.328125 " fill-opacity="1" fill-rule="nonzero"/><path fill="#f68179" d="M 315.316406 171.328125 L 304.53125 180.355469 L 305.390625 183.066406 L 315.316406 174.761719 L 337.957031 184.71875 C 341.777344 186.5 349.648438 191.496094 349.648438 195.632812 L 349.648438 192.214844 C 349.648438 192.207031 349.648438 192.199219 349.648438 192.191406 C 349.632812 188.0625 341.773438 183.066406 337.957031 181.28125 L 315.316406 171.328125 " fill-opacity="1" fill-rule="nonzero"/><path fill="#646b7b" d="M 349.648438 192.214844 L 349.648438 195.632812 L 349.648438 192.214844 M 304.53125 180.355469 L 305.390625 183.070312 L 305.390625 183.066406 L 304.53125 180.355469 M 315.316406 171.328125 L 304.53125 180.355469 L 315.316406 171.328125 L 337.957031 181.28125 C 341.773438 183.066406 349.632812 188.0625 349.648438 192.191406 C 349.632812 188.0625 341.773438 183.066406 337.957031 181.28125 L 315.316406 171.328125 " fill-opacity="1" fill-rule="nonzero"/><path fill="#5f6150" d="M 294.335938 206.238281 L 293.527344 208.796875 L 294.335938 206.242188 L 294.335938 206.238281 M 305.542969 206.238281 L 305.542969 206.242188 L 306.347656 208.796875 L 305.542969 206.238281 " fill-opacity="1" fill-rule="nonzero"/><path fill="#d6b856" d="M 294.335938 206.242188 L 293.527344 208.796875 L 299.9375 215.761719 L 306.347656 208.796875 L 305.542969 206.242188 L 299.9375 212.332031 L 294.335938 206.242188 " fill-opacity="1" fill-rule="nonzero"/><path fill="#ab6238" d="M 320.507812 118.46875 C 320.421875 118.503906 320.335938 118.519531 320.265625 118.554688 C 320.183594 118.574219 320.097656 118.589844 320.027344 118.625 C 314.800781 120.117188 307.480469 120.992188 299.9375 120.992188 C 292.378906 120.992188 285.027344 120.117188 279.800781 118.605469 C 279.660156 118.554688 279.507812 118.519531 279.371094 118.484375 L 279.371094 121.917969 C 279.507812 121.953125 279.660156 121.988281 279.800781 122.039062 C 285.027344 123.546875 292.378906 124.425781 299.9375 124.425781 C 307.480469 124.425781 314.800781 123.546875 320.027344 122.054688 C 320.097656 122.023438 320.183594 122.003906 320.265625 121.988281 C 320.335938 121.953125 320.421875 121.933594 320.507812 121.902344 L 320.507812 118.46875 " fill-opacity="1" fill-rule="nonzero"/><path fill="#5e6875" d="M 325.085938 101.289062 L 319.9375 102.832031 L 319.941406 102.835938 L 325.085938 101.289062 " fill-opacity="1" fill-rule="nonzero"/><path fill="#5e6875" d="M 274.792969 101.289062 L 279.9375 102.835938 L 279.941406 102.832031 L 274.792969 101.289062 " fill-opacity="1" fill-rule="nonzero"/><path fill="#da9363" d="M 299.941406 92.039062 L 274.792969 101.289062 L 279.941406 102.832031 L 299.941406 95.472656 L 319.9375 102.832031 L 325.085938 101.289062 L 299.941406 92.039062 " fill-opacity="1" fill-rule="nonzero"/><path fill="#5f6f7f" d="M 281.71875 129.574219 C 281.894531 129.609375 282.074219 129.648438 282.25 129.683594 C 282.25 129.679688 282.25 129.679688 282.25 129.675781 C 282.0625 129.640625 281.890625 129.609375 281.71875 129.574219 M 318.160156 129.574219 C 317.988281 129.609375 317.800781 129.640625 317.628906 129.675781 C 317.628906 129.679688 317.628906 129.679688 317.625 129.683594 C 317.804688 129.648438 317.984375 129.609375 318.160156 129.574219 " fill-opacity="1" fill-rule="nonzero"/><path fill="#c1c7ce" d="M 318.160156 129.574219 C 317.984375 129.609375 317.804688 129.648438 317.625 129.683594 C 317.558594 130.109375 317.488281 130.519531 317.4375 130.945312 C 315.605469 144.351562 310.890625 150.390625 301.105469 151.78125 C 300.652344 151.855469 300.292969 151.890625 299.933594 151.890625 C 299.621094 151.890625 299.308594 151.863281 298.945312 151.816406 C 289.175781 150.496094 284.238281 144.25 282.4375 130.945312 C 282.386719 130.519531 282.320312 130.109375 282.25 129.683594 C 282.074219 129.648438 281.894531 129.609375 281.71875 129.574219 C 281.789062 130.054688 281.855469 130.550781 281.941406 131.050781 C 282.113281 132.164062 282.300781 133.261719 282.4375 134.378906 C 284.238281 147.679688 289.175781 153.929688 298.945312 155.25 C 299.308594 155.296875 299.621094 155.320312 299.933594 155.320312 C 300.292969 155.320312 300.652344 155.289062 301.105469 155.214844 C 310.890625 153.824219 315.605469 147.78125 317.4375 134.378906 C 317.59375 133.261719 317.765625 132.164062 317.9375 131.050781 C 318.023438 130.550781 318.089844 130.054688 318.160156 129.574219 " fill-opacity="1" fill-rule="nonzero"/><path fill="#c1c7ce" d="M 266.859375 234.949219 C 249.90625 234.949219 231.910156 239.257812 221.625 242.195312 L 220.082031 246.070312 C 230.039062 243.15625 249.03125 238.382812 266.859375 238.382812 C 279.800781 238.382812 292.125 240.890625 299.9375 248.441406 C 307.753906 240.894531 320.078125 238.386719 333.015625 238.386719 C 350.839844 238.386719 369.828125 243.148438 379.796875 246.070312 L 378.261719 242.191406 C 367.964844 239.261719 349.964844 234.960938 333.015625 234.960938 C 320.078125 234.960938 307.753906 237.46875 299.9375 245.007812 C 292.125 237.457031 279.800781 234.949219 266.859375 234.949219 " fill-opacity="1" fill-rule="nonzero"/><path fill="#5f6f7f" d="M 378.261719 242.191406 L 379.796875 246.070312 L 378.269531 242.195312 C 378.269531 242.191406 378.265625 242.191406 378.261719 242.191406 " fill-opacity="1" fill-rule="nonzero"/><path fill="#62aeaf" d="M 302.785156 255.546875 C 302.75 255.578125 302.714844 255.632812 302.683594 255.664062 C 302.046875 256.523438 301.019531 257.039062 299.9375 257.039062 C 298.859375 257.039062 297.847656 256.523438 297.199219 255.664062 C 297.164062 255.632812 297.128906 255.578125 297.09375 255.546875 L 285.59375 260.007812 L 200.265625 260.007812 L 198.828125 263.441406 L 285.59375 263.441406 L 298.707031 258.359375 C 299.101562 258.207031 299.519531 258.128906 299.9375 258.128906 C 300.359375 258.128906 300.78125 258.207031 301.171875 258.359375 L 314.285156 263.441406 L 401.050781 263.441406 L 399.613281 260.007812 L 314.285156 260.007812 L 302.785156 255.546875 " fill-opacity="1" fill-rule="nonzero"/><g fill="#424040" fill-opacity="1"><g transform="translate(126.862669, 327.943293)"><g><path d="M 9.980469 0.332031 L 12.914062 0.40625 L 13.65625 0.332031 L 14.398438 0.148438 L 15.140625 0.0351562 L 15.882812 -0.257812 L 16.550781 -0.332031 L 17.253906 -0.667969 L 19.777344 -2.1875 L 20.855469 -3.300781 L 21.226562 -3.820312 L 21.632812 -4.636719 L 21.855469 -5.304688 L 22.078125 -5.9375 L 22.300781 -7.792969 L 22.226562 -8.980469 L 21.671875 -11.132812 L 21.261719 -11.726562 L 20.296875 -12.839844 L 19.628906 -13.433594 L 19.035156 -13.730469 L 18.367188 -14.136719 L 15.472656 -15.027344 L 14.730469 -15.140625 L 13.988281 -15.175781 L 13.210938 -15.324219 L 12.132812 -15.324219 L 10.167969 -15.734375 L 8.792969 -16.402344 L 8.238281 -16.921875 L 8.089844 -18.035156 L 8.273438 -19.035156 L 8.71875 -19.519531 L 9.277344 -19.925781 L 9.871094 -20.261719 L 10.539062 -20.410156 L 11.726562 -20.445312 L 12.914062 -20.296875 L 13.582031 -20.113281 L 14.25 -19.667969 L 14.878906 -19.148438 L 15.4375 -18.40625 L 16.253906 -17.921875 L 17.996094 -18.070312 L 19 -17.996094 L 19.742188 -17.996094 L 20.410156 -17.921875 L 21.113281 -18.441406 L 21.410156 -19.074219 L 21.261719 -19.777344 L 21.1875 -20.484375 L 20.148438 -22.414062 L 19.332031 -23.527344 L 16.882812 -25.234375 L 14.804688 -25.9375 L 13.359375 -26.234375 L 10.5 -26.308594 L 9.683594 -26.085938 L 8.941406 -26.050781 L 8.273438 -25.9375 L 6.863281 -25.492188 L 5.601562 -24.75 L 3.820312 -23.527344 L 2.523438 -21.78125 L 1.855469 -19.742188 L 1.742188 -17.921875 L 1.78125 -16.773438 L 2.039062 -15.289062 L 2.632812 -13.988281 L 4.007812 -12.28125 L 6.53125 -10.910156 L 7.867188 -10.464844 L 13.691406 -9.796875 L 15.027344 -9.164062 L 15.511719 -8.71875 L 15.734375 -7.792969 L 15.4375 -6.863281 L 14.953125 -6.308594 L 13.691406 -5.75 L 12.542969 -5.675781 L 11.875 -5.566406 L 9.980469 -5.75 L 9.351562 -6.085938 L 8.71875 -6.492188 L 7.496094 -7.828125 L 6.753906 -8.125 L 6.085938 -8.050781 L 5.378906 -8.164062 L 2.523438 -8.015625 L 1.855469 -7.71875 L 1.558594 -6.9375 L 1.667969 -6.195312 L 1.816406 -5.453125 L 2.039062 -4.785156 L 2.746094 -3.414062 L 3.265625 -2.929688 L 3.746094 -2.375 L 5.046875 -1.558594 L 5.566406 -1 L 6.269531 -0.667969 L 7.011719 -0.445312 L 8.460938 0.0742188 Z M 9.980469 0.332031 "/></g></g></g><g fill="#424040" fill-opacity="1"><g transform="translate(150.537779, 327.943293)"><g><path d="M 2.707031 -1.039062 L 3.152344 -0.332031 L 3.859375 0.0742188 L 4.601562 0.0351562 L 6.085938 0.109375 L 6.863281 0.0351562 L 8.421875 0.0742188 L 9.203125 -0.371094 L 9.5 -1.074219 L 9.574219 -1.78125 L 9.5 -2.597656 L 9.5 -9.164062 L 9.832031 -9.945312 L 10.613281 -10.425781 L 14.992188 -10.464844 L 15.769531 -10.351562 L 16.4375 -10.351562 L 17.144531 -9.945312 L 17.515625 -9.238281 L 17.550781 -1.039062 L 17.960938 -0.445312 L 19.035156 0.0351562 L 20.964844 0.0351562 L 21.707031 -0.0351562 L 23.230469 0.0742188 L 23.933594 -0.40625 L 24.378906 -1.039062 L 24.304688 -4.414062 L 24.417969 -5.601562 L 24.304688 -6.195312 L 24.34375 -24.824219 L 24.007812 -25.605469 L 23.265625 -25.902344 L 19 -25.9375 L 17.921875 -25.679688 L 17.550781 -24.789062 L 17.515625 -23.378906 L 17.589844 -22.746094 L 17.515625 -21.226562 L 17.625 -20.519531 L 17.589844 -17.625 L 17.179688 -16.882812 L 16.4375 -16.476562 L 15.734375 -16.585938 L 14.285156 -16.4375 L 13.507812 -16.511719 L 12.839844 -16.4375 L 10.648438 -16.476562 L 9.945312 -16.808594 L 9.574219 -17.515625 L 9.535156 -18.332031 L 9.535156 -19.109375 L 9.5 -19.777344 L 9.535156 -22.671875 L 9.609375 -23.488281 L 9.535156 -24.863281 L 9.203125 -25.566406 L 8.421875 -25.976562 L 7.605469 -25.902344 L 3.933594 -25.976562 L 3.117188 -25.605469 L 2.746094 -24.863281 L 2.671875 -24.046875 L 2.746094 -21.152344 L 2.671875 -20.410156 L 2.820312 -18.886719 L 2.746094 -17.476562 L 2.78125 -16.585938 L 2.707031 -15.84375 L 2.707031 -4.75 L 2.820312 -4.082031 Z M 2.707031 -1.039062 "/></g></g></g><g fill="#424040" fill-opacity="1"><g transform="translate(177.701083, 327.943293)"><g><path d="M 9.980469 0.332031 L 12.914062 0.40625 L 13.65625 0.332031 L 14.398438 0.148438 L 15.140625 0.0351562 L 15.882812 -0.257812 L 16.550781 -0.332031 L 17.253906 -0.667969 L 19.777344 -2.1875 L 20.855469 -3.300781 L 21.226562 -3.820312 L 21.632812 -4.636719 L 21.855469 -5.304688 L 22.078125 -5.9375 L 22.300781 -7.792969 L 22.226562 -8.980469 L 21.671875 -11.132812 L 21.261719 -11.726562 L 20.296875 -12.839844 L 19.628906 -13.433594 L 19.035156 -13.730469 L 18.367188 -14.136719 L 15.472656 -15.027344 L 14.730469 -15.140625 L 13.988281 -15.175781 L 13.210938 -15.324219 L 12.132812 -15.324219 L 10.167969 -15.734375 L 8.792969 -16.402344 L 8.238281 -16.921875 L 8.089844 -18.035156 L 8.273438 -19.035156 L 8.71875 -19.519531 L 9.277344 -19.925781 L 9.871094 -20.261719 L 10.539062 -20.410156 L 11.726562 -20.445312 L 12.914062 -20.296875 L 13.582031 -20.113281 L 14.25 -19.667969 L 14.878906 -19.148438 L 15.4375 -18.40625 L 16.253906 -17.921875 L 17.996094 -18.070312 L 19 -17.996094 L 19.742188 -17.996094 L 20.410156 -17.921875 L 21.113281 -18.441406 L 21.410156 -19.074219 L 21.261719 -19.777344 L 21.1875 -20.484375 L 20.148438 -22.414062 L 19.332031 -23.527344 L 16.882812 -25.234375 L 14.804688 -25.9375 L 13.359375 -26.234375 L 10.5 -26.308594 L 9.683594 -26.085938 L 8.941406 -26.050781 L 8.273438 -25.9375 L 6.863281 -25.492188 L 5.601562 -24.75 L 3.820312 -23.527344 L 2.523438 -21.78125 L 1.855469 -19.742188 L 1.742188 -17.921875 L 1.78125 -16.773438 L 2.039062 -15.289062 L 2.632812 -13.988281 L 4.007812 -12.28125 L 6.53125 -10.910156 L 7.867188 -10.464844 L 13.691406 -9.796875 L 15.027344 -9.164062 L 15.511719 -8.71875 L 15.734375 -7.792969 L 15.4375 -6.863281 L 14.953125 -6.308594 L 13.691406 -5.75 L 12.542969 -5.675781 L 11.875 -5.566406 L 9.980469 -5.75 L 9.351562 -6.085938 L 8.71875 -6.492188 L 7.496094 -7.828125 L 6.753906 -8.125 L 6.085938 -8.050781 L 5.378906 -8.164062 L 2.523438 -8.015625 L 1.855469 -7.71875 L 1.558594 -6.9375 L 1.667969 -6.195312 L 1.816406 -5.453125 L 2.039062 -4.785156 L 2.746094 -3.414062 L 3.265625 -2.929688 L 3.746094 -2.375 L 5.046875 -1.558594 L 5.566406 -1 L 6.269531 -0.667969 L 7.011719 -0.445312 L 8.460938 0.0742188 Z M 9.980469 0.332031 "/></g></g></g><g fill="#424040" fill-opacity="1"><g transform="translate(201.376193, 327.943293)"><g/></g></g><g fill="#424040" fill-opacity="1"><g transform="translate(211.432556, 327.943293)"><g><path d="M 21.894531 -0.628906 L 22.894531 -0.0351562 L 23.933594 0.0742188 L 24.75 -0.183594 L 25.121094 -0.925781 L 25.195312 -14.472656 L 25.085938 -15.101562 L 25.085938 -18.777344 L 25.195312 -19.667969 L 25.085938 -24.824219 L 24.714844 -25.566406 L 23.972656 -25.976562 L 19.371094 -25.9375 L 18.664062 -25.53125 L 18.257812 -24.75 L 18.21875 -23.972656 L 18.332031 -23.378906 L 18.21875 -21.820312 L 18.292969 -21.003906 L 18.21875 -14.359375 L 17.996094 -13.730469 L 17.441406 -13.988281 L 14.804688 -16.625 L 13.765625 -17.441406 L 6.457031 -24.824219 L 5.898438 -25.269531 L 5.046875 -25.714844 L 3.933594 -25.976562 L 3.078125 -25.605469 L 2.746094 -24.898438 L 2.746094 -13.65625 L 2.707031 -13.023438 L 2.78125 -11.503906 L 2.671875 -10.871094 L 2.746094 -4.785156 L 2.671875 -4.082031 L 2.746094 -0.964844 L 3.078125 -0.257812 L 3.859375 0 L 5.378906 0.0742188 L 6.195312 0 L 7.644531 0.109375 L 8.421875 0.0742188 L 9.164062 -0.296875 L 9.535156 -1.445312 L 9.574219 -10.835938 L 9.648438 -11.578125 L 9.90625 -12.207031 L 10.390625 -12.023438 L 10.871094 -11.390625 L 13.507812 -8.867188 L 13.988281 -8.3125 L 14.621094 -7.902344 L 20.371094 -2.1875 L 21.335938 -1.113281 Z M 21.894531 -0.628906 "/></g></g></g><g fill="#424040" fill-opacity="1"><g transform="translate(239.412234, 327.943293)"><g><path d="M 12.914062 0.109375 L 18.21875 0.0351562 L 19 -0.296875 L 19.40625 -1.074219 L 19.40625 -4.824219 L 19 -5.566406 L 18.21875 -5.898438 L 17.367188 -5.824219 L 16.660156 -5.9375 L 14.769531 -5.972656 L 13.542969 -5.824219 L 12.800781 -5.898438 L 11.984375 -5.863281 L 11.28125 -5.972656 L 10.464844 -5.898438 L 9.683594 -6.269531 L 9.386719 -6.9375 L 9.386719 -9.277344 L 9.722656 -10.054688 L 10.390625 -10.464844 L 11.503906 -10.5 L 12.691406 -10.390625 L 14.101562 -10.464844 L 15.621094 -10.425781 L 16.363281 -10.5 L 17.21875 -10.464844 L 17.960938 -10.761719 L 18.21875 -11.503906 L 18.332031 -14.84375 L 17.960938 -15.882812 L 17.105469 -16.363281 L 14.917969 -16.363281 L 14.136719 -16.289062 L 12.578125 -16.402344 L 10.425781 -16.328125 L 9.648438 -16.660156 L 9.351562 -17.8125 L 9.351562 -18.960938 L 9.683594 -19.667969 L 10.5 -19.964844 L 11.207031 -19.925781 L 11.910156 -20.074219 L 17.21875 -20 L 17.921875 -20.039062 L 18.703125 -20.484375 L 19.074219 -21.152344 L 19.035156 -21.894531 L 19.074219 -22.636719 L 19 -24.863281 L 18.664062 -25.566406 L 17.921875 -25.863281 L 17.144531 -25.863281 L 16.476562 -26.011719 L 13.46875 -25.976562 L 12.652344 -25.902344 L 11.910156 -25.976562 L 11.28125 -25.9375 L 10.539062 -26.011719 L 7.496094 -25.9375 L 6.753906 -26.050781 L 6.046875 -25.902344 L 5.378906 -25.976562 L 4.636719 -25.902344 L 3.894531 -25.9375 L 3.117188 -25.640625 L 2.707031 -24.863281 L 2.78125 -23.453125 L 2.671875 -21.929688 L 2.78125 -21.113281 L 2.707031 -17.476562 L 2.820312 -16.699219 L 2.746094 -15.992188 L 2.707031 -12.949219 L 2.820312 -12.28125 L 2.78125 -6.269531 L 2.707031 -5.566406 L 2.820312 -4.824219 L 2.707031 -2.261719 L 2.78125 -1.445312 L 3.078125 -0.445312 L 4.191406 0.0351562 L 6.863281 0.0742188 L 7.679688 0 L 8.347656 0.0351562 L 9.871094 -0.0742188 L 10.574219 0.0742188 L 11.429688 0.109375 L 12.171875 0.0351562 Z M 12.914062 0.109375 "/></g></g></g><g fill="#424040" fill-opacity="1"><g transform="translate(260.675301, 327.943293)"><g><path d="M 9.089844 -0.816406 L 9.683594 -0.148438 L 10.5 0.332031 L 11.910156 0.296875 L 12.726562 0 L 13.320312 -0.777344 L 13.65625 -1.410156 L 13.878906 -2.226562 L 14.25 -2.894531 L 14.433594 -3.523438 L 14.769531 -4.304688 L 14.953125 -4.898438 L 16.105469 -7.644531 L 16.328125 -8.421875 L 16.996094 -9.832031 L 17.476562 -11.28125 L 17.847656 -11.167969 L 18.21875 -10.539062 L 18.441406 -9.757812 L 19.074219 -8.496094 L 21.1875 -2.78125 L 21.746094 -1.558594 L 21.96875 -0.851562 L 22.671875 -0.0742188 L 23.527344 0.371094 L 24.230469 0.332031 L 24.863281 0.222656 L 25.753906 -0.0742188 L 26.308594 -0.742188 L 26.53125 -1.445312 L 26.867188 -2.113281 L 29.09375 -8.570312 L 29.425781 -9.203125 L 30.652344 -12.355469 L 30.949219 -13.394531 L 31.28125 -14.0625 L 31.429688 -14.695312 L 33.804688 -21.003906 L 33.992188 -21.820312 L 34.363281 -22.488281 L 35.066406 -24.75 L 34.84375 -25.640625 L 34.101562 -25.828125 L 33.359375 -25.9375 L 32.0625 -25.863281 L 30.578125 -25.9375 L 29.796875 -25.863281 L 29.09375 -25.976562 L 28.3125 -25.605469 L 27.683594 -24.824219 L 27.496094 -24.121094 L 27.164062 -23.488281 L 25.121094 -16.957031 L 24.972656 -16.214844 L 24.492188 -14.65625 L 24.230469 -13.097656 L 24.007812 -12.394531 L 23.636719 -12.429688 L 22.894531 -14.546875 L 22.710938 -15.289062 L 21.113281 -19.480469 L 20.742188 -20.890625 L 20.445312 -21.597656 L 20 -23.082031 L 19.703125 -23.710938 L 19.40625 -24.378906 L 18.886719 -25.121094 L 18.109375 -25.566406 L 17.292969 -25.566406 L 16.550781 -25.195312 L 15.917969 -24.453125 L 14.695312 -20.78125 L 14.136719 -19.445312 L 12.800781 -15.140625 L 12.429688 -14.582031 L 12.28125 -13.804688 L 11.726562 -12.394531 L 11.429688 -12.355469 L 11.28125 -13.246094 L 8.90625 -21.335938 L 8.609375 -21.96875 L 8.164062 -23.414062 L 8.015625 -24.15625 L 7.71875 -24.898438 L 7.050781 -25.492188 L 6.34375 -25.828125 L 3.375 -25.863281 L 2.707031 -26.011719 L 2.039062 -25.902344 L 1.261719 -25.863281 L 0.480469 -25.640625 L 0.332031 -24.789062 L 0.519531 -23.785156 L 2.078125 -19.554688 L 2.410156 -18.925781 L 3.933594 -14.769531 L 4.15625 -13.953125 L 5.195312 -11.167969 L 5.527344 -10.574219 L 8.535156 -2.152344 L 8.867188 -1.445312 Z M 9.089844 -0.816406 "/></g></g></g><g fill="#424040" fill-opacity="1"><g transform="translate(296.076649, 327.943293)"><g/></g></g><g fill="#424040" fill-opacity="1"><g transform="translate(306.133012, 327.943293)"><g><path d="M 9.980469 0.332031 L 12.914062 0.40625 L 13.65625 0.332031 L 14.398438 0.148438 L 15.140625 0.0351562 L 15.882812 -0.257812 L 16.550781 -0.332031 L 17.253906 -0.667969 L 19.777344 -2.1875 L 20.855469 -3.300781 L 21.226562 -3.820312 L 21.632812 -4.636719 L 21.855469 -5.304688 L 22.078125 -5.9375 L 22.300781 -7.792969 L 22.226562 -8.980469 L 21.671875 -11.132812 L 21.261719 -11.726562 L 20.296875 -12.839844 L 19.628906 -13.433594 L 19.035156 -13.730469 L 18.367188 -14.136719 L 15.472656 -15.027344 L 14.730469 -15.140625 L 13.988281 -15.175781 L 13.210938 -15.324219 L 12.132812 -15.324219 L 10.167969 -15.734375 L 8.792969 -16.402344 L 8.238281 -16.921875 L 8.089844 -18.035156 L 8.273438 -19.035156 L 8.71875 -19.519531 L 9.277344 -19.925781 L 9.871094 -20.261719 L 10.539062 -20.410156 L 11.726562 -20.445312 L 12.914062 -20.296875 L 13.582031 -20.113281 L 14.25 -19.667969 L 14.878906 -19.148438 L 15.4375 -18.40625 L 16.253906 -17.921875 L 17.996094 -18.070312 L 19 -17.996094 L 19.742188 -17.996094 L 20.410156 -17.921875 L 21.113281 -18.441406 L 21.410156 -19.074219 L 21.261719 -19.777344 L 21.1875 -20.484375 L 20.148438 -22.414062 L 19.332031 -23.527344 L 16.882812 -25.234375 L 14.804688 -25.9375 L 13.359375 -26.234375 L 10.5 -26.308594 L 9.683594 -26.085938 L 8.941406 -26.050781 L 8.273438 -25.9375 L 6.863281 -25.492188 L 5.601562 -24.75 L 3.820312 -23.527344 L 2.523438 -21.78125 L 1.855469 -19.742188 L 1.742188 -17.921875 L 1.78125 -16.773438 L 2.039062 -15.289062 L 2.632812 -13.988281 L 4.007812 -12.28125 L 6.53125 -10.910156 L 7.867188 -10.464844 L 13.691406 -9.796875 L 15.027344 -9.164062 L 15.511719 -8.71875 L 15.734375 -7.792969 L 15.4375 -6.863281 L 14.953125 -6.308594 L 13.691406 -5.75 L 12.542969 -5.675781 L 11.875 -5.566406 L 9.980469 -5.75 L 9.351562 -6.085938 L 8.71875 -6.492188 L 7.496094 -7.828125 L 6.753906 -8.125 L 6.085938 -8.050781 L 5.378906 -8.164062 L 2.523438 -8.015625 L 1.855469 -7.71875 L 1.558594 -6.9375 L 1.667969 -6.195312 L 1.816406 -5.453125 L 2.039062 -4.785156 L 2.746094 -3.414062 L 3.265625 -2.929688 L 3.746094 -2.375 L 5.046875 -1.558594 L 5.566406 -1 L 6.269531 -0.667969 L 7.011719 -0.445312 L 8.460938 0.0742188 Z M 9.980469 0.332031 "/></g></g></g><g fill="#424040" fill-opacity="1"><g transform="translate(329.808122, 327.943293)"><g><path d="M 9.683594 0.0742188 L 12.171875 0 L 13.246094 -0.371094 L 13.617188 -1.410156 L 13.730469 -3.339844 L 13.617188 -4.75 L 13.691406 -5.527344 L 13.65625 -7.011719 L 13.730469 -7.679688 L 13.617188 -8.496094 L 13.691406 -14.472656 L 13.582031 -15.25 L 13.691406 -18.480469 L 13.988281 -19.59375 L 14.695312 -20.039062 L 16.140625 -20.113281 L 17.515625 -19.925781 L 18.292969 -20.039062 L 18.960938 -20 L 19.59375 -20.410156 L 20.039062 -21.226562 L 20.074219 -24.75 L 19.667969 -25.492188 L 18.960938 -25.976562 L 16.660156 -25.976562 L 15.957031 -26.050781 L 15.175781 -25.9375 L 14.472656 -26.011719 L 11.464844 -25.863281 L 10.722656 -26.011719 L 10.019531 -26.050781 L 9.238281 -25.9375 L 8.421875 -26.011719 L 7.753906 -25.863281 L 5.566406 -25.976562 L 4.414062 -25.863281 L 1.816406 -26.011719 L 1.113281 -25.640625 L 0.667969 -24.789062 L 0.703125 -24.046875 L 0.628906 -22.191406 L 0.703125 -21.039062 L 1.039062 -20.371094 L 1.707031 -20 L 2.449219 -20.074219 L 5.972656 -20 L 6.679688 -19.628906 L 7.085938 -18.886719 L 7.011719 -17.699219 L 7.085938 -16.660156 L 7.050781 -15.84375 L 7.085938 -15.101562 L 7.011719 -14.0625 L 7.125 -8.535156 L 7.050781 -7.792969 L 7.011719 -4.785156 L 7.085938 -4.007812 L 7.050781 -1.855469 L 6.976562 -1.148438 L 7.457031 -0.332031 L 8.535156 0.0351562 Z M 9.683594 0.0742188 "/></g></g></g><g fill="#424040" fill-opacity="1"><g transform="translate(350.551684, 327.943293)"><g><path d="M 12.765625 0.480469 L 13.878906 0.371094 L 14.582031 0.40625 L 17.476562 -0.332031 L 18.8125 -1.039062 L 20.039062 -1.855469 L 21.078125 -2.894531 L 21.929688 -4.191406 L 22.152344 -4.933594 L 22.523438 -5.566406 L 22.859375 -7.125 L 23.042969 -8.90625 L 23.042969 -18.925781 L 22.96875 -19.628906 L 23.042969 -20.445312 L 22.96875 -21.039062 L 22.96875 -24.121094 L 23.082031 -24.863281 L 22.597656 -25.640625 L 21.78125 -25.902344 L 19.445312 -25.828125 L 17.886719 -25.9375 L 17.105469 -25.566406 L 16.699219 -24.75 L 16.773438 -10.128906 L 16.511719 -7.828125 L 16.289062 -7.273438 L 15.882812 -6.53125 L 15.25 -6.085938 L 13.953125 -5.601562 L 11.726562 -5.601562 L 10.871094 -5.789062 L 10.242188 -6.160156 L 9.648438 -6.605469 L 9.203125 -7.199219 L 8.980469 -7.902344 L 8.757812 -10.054688 L 8.867188 -22.003906 L 8.792969 -22.5625 L 8.867188 -23.75 L 8.792969 -24.824219 L 8.347656 -25.640625 L 7.570312 -25.976562 L 6.863281 -25.976562 L 6.121094 -25.863281 L 4.527344 -26.011719 L 3.746094 -25.902344 L 2.96875 -25.605469 L 2.484375 -24.898438 L 2.558594 -24.15625 L 2.558594 -23.265625 L 2.484375 -22.671875 L 2.597656 -17.476562 L 2.484375 -16.734375 L 2.558594 -16.03125 L 2.449219 -10.054688 L 2.671875 -7.085938 L 3.042969 -5.566406 L 3.636719 -4.304688 L 4.488281 -2.96875 L 4.933594 -2.449219 L 5.492188 -1.964844 L 6.679688 -1.1875 L 7.421875 -0.851562 L 7.976562 -0.519531 L 9.386719 0.109375 L 10.835938 0.40625 L 11.578125 0.40625 Z M 12.765625 0.480469 "/></g></g></g><g fill="#424040" fill-opacity="1"><g transform="translate(376.156429, 327.943293)"><g><path d="M 11.429688 0.109375 L 12.542969 0.109375 L 13.691406 -0.0351562 L 14.433594 -0.0351562 L 15.511719 -0.371094 L 17.03125 -0.628906 L 18.777344 -1.371094 L 21.261719 -3.042969 L 23.082031 -5.378906 L 23.453125 -6.121094 L 23.898438 -6.714844 L 24.492188 -8.164062 L 24.675781 -8.867188 L 24.824219 -9.648438 L 25.046875 -10.277344 L 25.160156 -11.019531 L 25.160156 -11.800781 L 25.269531 -12.988281 L 25.234375 -14.0625 L 24.714844 -16.996094 L 24.230469 -18.40625 L 23.933594 -19.109375 L 22.671875 -21.078125 L 20.707031 -23.265625 L 18.8125 -24.527344 L 18.109375 -24.9375 L 17.367188 -25.085938 L 16.734375 -25.382812 L 15.957031 -25.566406 L 13.765625 -25.902344 L 5.304688 -25.976562 L 4.636719 -25.863281 L 3.894531 -25.902344 L 3.078125 -25.566406 L 2.746094 -24.789062 L 2.707031 -4.042969 L 2.78125 -3.339844 L 2.78125 -1.445312 L 3.152344 -0.296875 L 3.894531 0.0742188 L 4.636719 0 L 9.164062 0.0742188 L 9.90625 -0.0351562 Z M 11.316406 -5.972656 L 10.613281 -6.046875 L 9.757812 -6.457031 L 9.460938 -7.160156 L 9.425781 -7.792969 L 9.460938 -9.3125 L 9.3125 -11.132812 L 9.460938 -12.988281 L 9.386719 -18.109375 L 9.460938 -18.738281 L 9.832031 -19.59375 L 11.019531 -19.851562 L 12.578125 -19.890625 L 13.65625 -19.777344 L 15.101562 -19.371094 L 15.769531 -19.035156 L 16.328125 -18.628906 L 16.882812 -18.109375 L 17.441406 -17.441406 L 17.8125 -16.808594 L 18.144531 -16.140625 L 18.738281 -12.875 L 18.367188 -10.277344 L 17.738281 -8.90625 L 16.363281 -7.347656 L 15.101562 -6.53125 L 14.027344 -6.195312 L 12.429688 -6.011719 Z M 11.316406 -5.972656 "/></g></g></g><g fill="#424040" fill-opacity="1"><g transform="translate(403.134195, 327.943293)"><g><path d="M 12.914062 0.109375 L 18.21875 0.0351562 L 19 -0.296875 L 19.40625 -1.074219 L 19.40625 -4.824219 L 19 -5.566406 L 18.21875 -5.898438 L 17.367188 -5.824219 L 16.660156 -5.9375 L 14.769531 -5.972656 L 13.542969 -5.824219 L 12.800781 -5.898438 L 11.984375 -5.863281 L 11.28125 -5.972656 L 10.464844 -5.898438 L 9.683594 -6.269531 L 9.386719 -6.9375 L 9.386719 -9.277344 L 9.722656 -10.054688 L 10.390625 -10.464844 L 11.503906 -10.5 L 12.691406 -10.390625 L 14.101562 -10.464844 L 15.621094 -10.425781 L 16.363281 -10.5 L 17.21875 -10.464844 L 17.960938 -10.761719 L 18.21875 -11.503906 L 18.332031 -14.84375 L 17.960938 -15.882812 L 17.105469 -16.363281 L 14.917969 -16.363281 L 14.136719 -16.289062 L 12.578125 -16.402344 L 10.425781 -16.328125 L 9.648438 -16.660156 L 9.351562 -17.8125 L 9.351562 -18.960938 L 9.683594 -19.667969 L 10.5 -19.964844 L 11.207031 -19.925781 L 11.910156 -20.074219 L 17.21875 -20 L 17.921875 -20.039062 L 18.703125 -20.484375 L 19.074219 -21.152344 L 19.035156 -21.894531 L 19.074219 -22.636719 L 19 -24.863281 L 18.664062 -25.566406 L 17.921875 -25.863281 L 17.144531 -25.863281 L 16.476562 -26.011719 L 13.46875 -25.976562 L 12.652344 -25.902344 L 11.910156 -25.976562 L 11.28125 -25.9375 L 10.539062 -26.011719 L 7.496094 -25.9375 L 6.753906 -26.050781 L 6.046875 -25.902344 L 5.378906 -25.976562 L 4.636719 -25.902344 L 3.894531 -25.9375 L 3.117188 -25.640625 L 2.707031 -24.863281 L 2.78125 -23.453125 L 2.671875 -21.929688 L 2.78125 -21.113281 L 2.707031 -17.476562 L 2.820312 -16.699219 L 2.746094 -15.992188 L 2.707031 -12.949219 L 2.820312 -12.28125 L 2.78125 -6.269531 L 2.707031 -5.566406 L 2.820312 -4.824219 L 2.707031 -2.261719 L 2.78125 -1.445312 L 3.078125 -0.445312 L 4.191406 0.0351562 L 6.863281 0.0742188 L 7.679688 0 L 8.347656 0.0351562 L 9.871094 -0.0742188 L 10.574219 0.0742188 L 11.429688 0.109375 L 12.171875 0.0351562 Z M 12.914062 0.109375 "/></g></g></g><g fill="#424040" fill-opacity="1"><g transform="translate(424.397245, 327.943293)"><g><path d="M 21.894531 -0.628906 L 22.894531 -0.0351562 L 23.933594 0.0742188 L 24.75 -0.183594 L 25.121094 -0.925781 L 25.195312 -14.472656 L 25.085938 -15.101562 L 25.085938 -18.777344 L 25.195312 -19.667969 L 25.085938 -24.824219 L 24.714844 -25.566406 L 23.972656 -25.976562 L 19.371094 -25.9375 L 18.664062 -25.53125 L 18.257812 -24.75 L 18.21875 -23.972656 L 18.332031 -23.378906 L 18.21875 -21.820312 L 18.292969 -21.003906 L 18.21875 -14.359375 L 17.996094 -13.730469 L 17.441406 -13.988281 L 14.804688 -16.625 L 13.765625 -17.441406 L 6.457031 -24.824219 L 5.898438 -25.269531 L 5.046875 -25.714844 L 3.933594 -25.976562 L 3.078125 -25.605469 L 2.746094 -24.898438 L 2.746094 -13.65625 L 2.707031 -13.023438 L 2.78125 -11.503906 L 2.671875 -10.871094 L 2.746094 -4.785156 L 2.671875 -4.082031 L 2.746094 -0.964844 L 3.078125 -0.257812 L 3.859375 0 L 5.378906 0.0742188 L 6.195312 0 L 7.644531 0.109375 L 8.421875 0.0742188 L 9.164062 -0.296875 L 9.535156 -1.445312 L 9.574219 -10.835938 L 9.648438 -11.578125 L 9.90625 -12.207031 L 10.390625 -12.023438 L 10.871094 -11.390625 L 13.507812 -8.867188 L 13.988281 -8.3125 L 14.621094 -7.902344 L 20.371094 -2.1875 L 21.335938 -1.113281 Z M 21.894531 -0.628906 "/></g></g></g><g fill="#424040" fill-opacity="1"><g transform="translate(452.376924, 327.943293)"><g><path d="M 9.683594 0.0742188 L 12.171875 0 L 13.246094 -0.371094 L 13.617188 -1.410156 L 13.730469 -3.339844 L 13.617188 -4.75 L 13.691406 -5.527344 L 13.65625 -7.011719 L 13.730469 -7.679688 L 13.617188 -8.496094 L 13.691406 -14.472656 L 13.582031 -15.25 L 13.691406 -18.480469 L 13.988281 -19.59375 L 14.695312 -20.039062 L 16.140625 -20.113281 L 17.515625 -19.925781 L 18.292969 -20.039062 L 18.960938 -20 L 19.59375 -20.410156 L 20.039062 -21.226562 L 20.074219 -24.75 L 19.667969 -25.492188 L 18.960938 -25.976562 L 16.660156 -25.976562 L 15.957031 -26.050781 L 15.175781 -25.9375 L 14.472656 -26.011719 L 11.464844 -25.863281 L 10.722656 -26.011719 L 10.019531 -26.050781 L 9.238281 -25.9375 L 8.421875 -26.011719 L 7.753906 -25.863281 L 5.566406 -25.976562 L 4.414062 -25.863281 L 1.816406 -26.011719 L 1.113281 -25.640625 L 0.667969 -24.789062 L 0.703125 -24.046875 L 0.628906 -22.191406 L 0.703125 -21.039062 L 1.039062 -20.371094 L 1.707031 -20 L 2.449219 -20.074219 L 5.972656 -20 L 6.679688 -19.628906 L 7.085938 -18.886719 L 7.011719 -17.699219 L 7.085938 -16.660156 L 7.050781 -15.84375 L 7.085938 -15.101562 L 7.011719 -14.0625 L 7.125 -8.535156 L 7.050781 -7.792969 L 7.011719 -4.785156 L 7.085938 -4.007812 L 7.050781 -1.855469 L 6.976562 -1.148438 L 7.457031 -0.332031 L 8.535156 0.0351562 Z M 9.683594 0.0742188 "/></g></g></g></svg>