<svg xmlns="http://www.w3.org/2000/svg" xmlns:xlink="http://www.w3.org/1999/xlink" width="800" zoomAndPan="magnify" viewBox="0 0 600 374.999991" height="500" preserveAspectRatio="xMidYMid meet" version="1.0"><defs><g/><clipPath id="baa664b208"><path d="M 155.539062 50.496094 L 434 50.496094 L 434 217 L 155.539062 217 Z M 155.539062 50.496094 " clip-rule="nonzero"/></clipPath><clipPath id="bca11b794e"><path d="M 346 146 L 444.289062 146 L 444.289062 244.746094 L 346 244.746094 Z M 346 146 " clip-rule="nonzero"/></clipPath><clipPath id="78cf605899"><path d="M 199.613281 195 L 323 195 L 323 257 L 199.613281 257 Z M 199.613281 195 " clip-rule="nonzero"/></clipPath><clipPath id="56179a6b4b"><path d="M 243 253 L 282 253 L 282 268.90625 L 243 268.90625 Z M 243 253 " clip-rule="nonzero"/></clipPath><clipPath id="84f759885f"><path d="M 204 200 L 326.363281 200 L 326.363281 263 L 204 263 Z M 204 200 " clip-rule="nonzero"/></clipPath></defs><rect x="-60" width="720" fill="#ffffff" y="-37.499999" height="449.999989" fill-opacity="1"/><rect x="-60" width="720" fill="#800000" y="-37.499999" height="449.999989" fill-opacity="1"/><path fill="#5c9cee" d="M 204.742188 164.070312 L 204.742188 177.316406 C 210.785156 182.230469 217.867188 185.910156 225.601562 187.992188 C 230.257812 189.242188 235.148438 189.902344 240.195312 189.902344 C 245.246094 189.902344 250.136719 189.234375 254.792969 187.992188 C 255.191406 187.878906 255.589844 187.769531 255.980469 187.65625 C 263.253906 185.53125 269.914062 181.980469 275.648438 177.316406 L 275.648438 164.070312 C 275.648438 152.976562 266.574219 143.898438 255.484375 143.898438 L 224.910156 143.898438 C 213.8125 143.898438 204.742188 152.976562 204.742188 164.070312 Z M 204.742188 164.070312 " fill-opacity="1" fill-rule="evenodd"/><path fill="#f9c5b8" d="M 262.128906 121.960938 C 262.128906 122.679688 262.09375 123.398438 262.023438 124.113281 C 261.953125 124.828125 261.847656 125.535156 261.707031 126.242188 C 261.566406 126.945312 261.390625 127.640625 261.183594 128.328125 C 260.976562 129.015625 260.734375 129.691406 260.457031 130.355469 C 260.183594 131.019531 259.875 131.667969 259.539062 132.304688 C 259.199219 132.9375 258.832031 133.550781 258.429688 134.148438 C 258.03125 134.746094 257.605469 135.324219 257.148438 135.878906 C 256.695312 136.433594 256.210938 136.964844 255.703125 137.472656 C 255.195312 137.980469 254.664062 138.464844 254.109375 138.917969 C 253.554688 139.375 252.976562 139.804688 252.382812 140.203125 C 251.785156 140.601562 251.167969 140.96875 250.535156 141.308594 C 249.902344 141.648438 249.253906 141.953125 248.589844 142.230469 C 247.925781 142.503906 247.25 142.746094 246.5625 142.953125 C 245.875 143.164062 245.179688 143.335938 244.476562 143.476562 C 243.769531 143.617188 243.0625 143.722656 242.347656 143.792969 C 241.632812 143.863281 240.914062 143.898438 240.195312 143.898438 C 239.476562 143.898438 238.761719 143.863281 238.046875 143.792969 C 237.332031 143.722656 236.621094 143.617188 235.917969 143.476562 C 235.214844 143.335938 234.519531 143.164062 233.832031 142.953125 C 233.144531 142.746094 232.46875 142.503906 231.804688 142.230469 C 231.140625 141.953125 230.492188 141.648438 229.859375 141.308594 C 229.226562 140.96875 228.609375 140.601562 228.011719 140.203125 C 227.414062 139.804688 226.839844 139.375 226.285156 138.917969 C 225.730469 138.464844 225.195312 137.980469 224.6875 137.472656 C 224.179688 136.964844 223.699219 136.433594 223.242188 135.878906 C 222.789062 135.324219 222.359375 134.746094 221.960938 134.148438 C 221.5625 133.550781 221.195312 132.9375 220.855469 132.304688 C 220.515625 131.667969 220.210938 131.019531 219.933594 130.355469 C 219.660156 129.691406 219.417969 129.015625 219.210938 128.328125 C 219 127.640625 218.828125 126.945312 218.6875 126.242188 C 218.546875 125.535156 218.441406 124.828125 218.371094 124.113281 C 218.300781 123.398438 218.265625 122.679688 218.265625 121.960938 C 218.265625 121.242188 218.300781 120.527344 218.371094 119.8125 C 218.441406 119.097656 218.546875 118.386719 218.6875 117.679688 C 218.828125 116.976562 219 116.28125 219.210938 115.59375 C 219.417969 114.90625 219.660156 114.230469 219.933594 113.566406 C 220.210938 112.902344 220.515625 112.253906 220.855469 111.621094 C 221.195312 110.984375 221.5625 110.371094 221.960938 109.773438 C 222.359375 109.175781 222.789062 108.597656 223.242188 108.042969 C 223.699219 107.488281 224.179688 106.957031 224.6875 106.449219 C 225.195312 105.941406 225.730469 105.457031 226.285156 105.003906 C 226.839844 104.546875 227.414062 104.121094 228.011719 103.71875 C 228.609375 103.320312 229.226562 102.953125 229.859375 102.613281 C 230.492188 102.273438 231.140625 101.96875 231.804688 101.691406 C 232.46875 101.417969 233.144531 101.175781 233.832031 100.96875 C 234.519531 100.757812 235.214844 100.585938 235.917969 100.445312 C 236.621094 100.304688 237.332031 100.199219 238.046875 100.128906 C 238.761719 100.058594 239.476562 100.023438 240.195312 100.023438 C 240.914062 100.023438 241.632812 100.058594 242.347656 100.128906 C 243.0625 100.199219 243.769531 100.304688 244.476562 100.445312 C 245.179688 100.585938 245.875 100.757812 246.5625 100.96875 C 247.25 101.175781 247.925781 101.417969 248.589844 101.691406 C 249.253906 101.96875 249.902344 102.273438 250.535156 102.613281 C 251.167969 102.953125 251.785156 103.320312 252.382812 103.71875 C 252.976562 104.121094 253.554688 104.546875 254.109375 105.003906 C 254.664062 105.457031 255.195312 105.941406 255.703125 106.449219 C 256.210938 106.957031 256.695312 107.488281 257.148438 108.042969 C 257.605469 108.597656 258.03125 109.175781 258.429688 109.773438 C 258.832031 110.371094 259.199219 110.984375 259.539062 111.621094 C 259.875 112.253906 260.183594 112.902344 260.457031 113.566406 C 260.734375 114.230469 260.976562 114.90625 261.183594 115.59375 C 261.390625 116.28125 261.566406 116.976562 261.707031 117.679688 C 261.847656 118.386719 261.953125 119.097656 262.023438 119.8125 C 262.09375 120.527344 262.128906 121.242188 262.128906 121.960938 Z M 262.128906 121.960938 " fill-opacity="1" fill-rule="nonzero"/><path fill="#ffb31d" d="M 374.265625 194.257812 L 380.757812 202 L 380.054688 212.085938 C 379.949219 213.558594 380.5625 214.875 381.761719 215.742188 C 382.957031 216.613281 384.394531 216.789062 385.761719 216.234375 L 395.132812 212.449219 L 404.5 216.234375 C 405.867188 216.789062 407.308594 216.609375 408.503906 215.742188 C 409.699219 214.875 410.308594 213.558594 410.210938 212.085938 L 409.511719 202 L 416.003906 194.257812 C 416.953125 193.125 417.226562 191.699219 416.773438 190.300781 C 416.316406 188.894531 415.257812 187.90625 413.824219 187.546875 L 404.023438 185.101562 L 398.667969 176.53125 C 397.882812 175.28125 396.617188 174.574219 395.144531 174.574219 C 393.667969 174.574219 392.398438 175.277344 391.621094 176.53125 L 386.265625 185.101562 L 376.464844 187.546875 C 375.03125 187.90625 373.972656 188.894531 373.515625 190.300781 C 373.042969 191.707031 373.320312 193.125 374.265625 194.257812 Z M 374.265625 194.257812 " fill-opacity="1" fill-rule="evenodd"/><path fill="#ffc720" d="M 395.136719 149.5625 C 369.742188 149.5625 349.152344 170.160156 349.152344 195.566406 C 349.152344 201.96875 350.460938 208.070312 352.828125 213.613281 C 359.84375 230.050781 376.144531 241.566406 395.136719 241.566406 C 420.535156 241.566406 441.125 220.96875 441.125 195.566406 C 441.125 184.09375 436.925781 173.601562 429.984375 165.542969 C 421.546875 155.757812 409.066406 149.5625 395.136719 149.5625 Z M 376.449219 187.546875 L 386.253906 185.101562 L 391.605469 176.53125 C 392.390625 175.28125 393.660156 174.574219 395.132812 174.574219 C 396.609375 174.574219 397.878906 175.277344 398.65625 176.53125 L 404.011719 185.101562 L 413.8125 187.546875 C 415.246094 187.90625 416.304688 188.894531 416.761719 190.300781 C 417.21875 191.707031 416.9375 193.125 415.992188 194.257812 L 409.496094 202 L 410.195312 212.085938 C 410.300781 213.558594 409.6875 214.875 408.492188 215.742188 C 407.292969 216.613281 405.855469 216.789062 404.488281 216.234375 L 395.117188 212.449219 L 385.75 216.234375 C 384.382812 216.789062 382.945312 216.609375 381.746094 215.742188 C 380.550781 214.875 379.941406 213.558594 380.039062 212.085938 L 380.746094 202 L 374.253906 194.257812 C 373.304688 193.125 373.03125 191.699219 373.480469 190.300781 C 373.960938 188.894531 375.019531 187.90625 376.449219 187.546875 Z M 376.449219 187.546875 " fill-opacity="1" fill-rule="evenodd"/><path fill="#e6ebf5" d="M 296.441406 133.636719 C 296.441406 159.230469 279.363281 180.828125 255.980469 187.65625 C 255.582031 187.777344 255.191406 187.886719 254.792969 187.992188 C 250.136719 189.242188 245.246094 189.902344 240.195312 189.902344 C 235.148438 189.902344 230.257812 189.234375 225.601562 187.992188 C 201.613281 181.5625 183.949219 159.664062 183.949219 133.636719 C 183.949219 102.5625 209.132812 77.371094 240.195312 77.371094 C 271.253906 77.371094 296.441406 102.5625 296.441406 133.636719 Z M 158.652344 74.1875 L 158.652344 193.085938 C 158.652344 204.375 167.886719 213.613281 179.171875 213.613281 L 352.828125 213.613281 C 350.460938 208.070312 349.152344 201.96875 349.152344 195.566406 C 349.152344 170.160156 369.742188 149.5625 395.136719 149.5625 C 409.066406 149.5625 421.546875 155.757812 429.984375 165.550781 L 429.984375 74.1875 C 429.984375 62.898438 420.75 53.660156 409.464844 53.660156 L 179.171875 53.660156 C 167.886719 53.660156 158.652344 62.898438 158.652344 74.1875 Z M 158.652344 74.1875 " fill-opacity="1" fill-rule="evenodd"/><path fill="#b5d5f5" d="M 240.195312 143.898438 C 228.082031 143.898438 218.265625 134.074219 218.265625 121.960938 C 218.265625 109.847656 228.085938 100.023438 240.195312 100.023438 C 252.3125 100.023438 262.128906 109.847656 262.128906 121.960938 C 262.128906 134.074219 252.304688 143.898438 240.195312 143.898438 Z M 296.441406 133.636719 C 296.441406 102.5625 271.261719 77.371094 240.195312 77.371094 C 209.132812 77.371094 183.949219 102.5625 183.949219 133.636719 C 183.949219 151.269531 192.058594 167.007812 204.742188 177.324219 L 204.742188 164.070312 C 204.742188 152.976562 213.820312 143.898438 224.910156 143.898438 L 255.484375 143.898438 C 266.574219 143.898438 275.648438 152.976562 275.648438 164.070312 L 275.648438 177.324219 C 288.335938 167.007812 296.441406 151.269531 296.441406 133.636719 Z M 296.441406 133.636719 " fill-opacity="1" fill-rule="evenodd"/><g clip-path="url(#baa664b208)"><path fill="#000000" d="M 352.828125 216.75 L 179.171875 216.75 C 166.125 216.75 155.515625 206.136719 155.515625 193.085938 L 155.515625 74.1875 C 155.515625 61.136719 166.125 50.523438 179.171875 50.523438 L 409.464844 50.523438 C 422.507812 50.523438 433.121094 61.136719 433.121094 74.1875 L 433.121094 165.542969 C 433.121094 166.859375 432.304688 168.027344 431.074219 168.488281 C 429.847656 168.945312 428.460938 168.585938 427.601562 167.589844 C 419.449219 158.125 407.613281 152.695312 395.132812 152.695312 C 371.507812 152.695312 352.285156 171.925781 352.285156 195.558594 C 352.285156 201.394531 353.433594 207.050781 355.710938 212.375 C 356.121094 213.34375 356.023438 214.457031 355.441406 215.339844 C 354.867188 216.222656 353.878906 216.75 352.828125 216.75 Z M 179.171875 56.800781 C 169.585938 56.800781 161.789062 64.597656 161.789062 74.1875 L 161.789062 193.085938 C 161.789062 202.675781 169.585938 210.472656 179.171875 210.472656 L 348.316406 210.472656 C 346.785156 205.671875 346.011719 200.679688 346.011719 195.566406 C 346.011719 168.464844 368.046875 146.425781 395.136719 146.425781 C 406.835938 146.425781 418.035156 150.585938 426.84375 158.035156 L 426.84375 74.1875 C 426.84375 64.597656 419.050781 56.800781 409.464844 56.800781 Z M 179.171875 56.800781 " fill-opacity="1" fill-rule="nonzero"/></g><path fill="#000000" d="M 240.195312 193.039062 C 207.449219 193.039062 180.8125 166.394531 180.8125 133.636719 C 180.8125 100.878906 207.449219 74.234375 240.195312 74.234375 C 272.941406 74.234375 299.582031 100.878906 299.582031 133.636719 C 299.582031 166.394531 272.941406 193.039062 240.195312 193.039062 Z M 240.195312 80.511719 C 210.910156 80.511719 187.089844 104.347656 187.089844 133.636719 C 187.089844 162.933594 210.917969 186.761719 240.195312 186.761719 C 269.476562 186.761719 293.304688 162.925781 293.304688 133.636719 C 293.304688 104.339844 269.476562 80.511719 240.195312 80.511719 Z M 240.195312 80.511719 " fill-opacity="1" fill-rule="nonzero"/><path fill="#000000" d="M 240.195312 193.039062 C 226.597656 193.039062 213.304688 188.324219 202.761719 179.75 C 202.03125 179.15625 201.605469 178.257812 201.605469 177.316406 L 201.605469 164.070312 C 201.605469 151.21875 212.0625 140.757812 224.910156 140.757812 L 255.484375 140.757812 C 268.332031 140.757812 278.789062 151.21875 278.789062 164.070312 L 278.789062 177.316406 C 278.789062 178.265625 278.363281 179.15625 277.632812 179.75 C 267.082031 188.324219 253.789062 193.039062 240.195312 193.039062 Z M 207.882812 175.800781 C 217.109375 182.882812 228.523438 186.769531 240.195312 186.769531 C 251.867188 186.769531 263.277344 182.882812 272.511719 175.800781 L 272.511719 164.070312 C 272.511719 154.679688 264.875 147.039062 255.484375 147.039062 L 224.910156 147.039062 C 215.519531 147.039062 207.882812 154.679688 207.882812 164.070312 Z M 275.644531 177.316406 Z M 275.644531 177.316406 " fill-opacity="1" fill-rule="nonzero"/><path fill="#000000" d="M 225.601562 191.132812 C 223.871094 191.132812 222.464844 189.722656 222.464844 187.992188 L 222.464844 171.855469 C 222.464844 170.121094 223.871094 168.714844 225.601562 168.714844 C 227.335938 168.714844 228.742188 170.121094 228.742188 171.855469 L 228.742188 187.992188 C 228.742188 189.722656 227.335938 191.132812 225.601562 191.132812 Z M 225.601562 191.132812 " fill-opacity="1" fill-rule="nonzero"/><path fill="#000000" d="M 254.785156 191.132812 C 253.050781 191.132812 251.644531 189.722656 251.644531 187.992188 L 251.644531 171.855469 C 251.644531 170.121094 253.050781 168.714844 254.785156 168.714844 C 256.515625 168.714844 257.921875 170.121094 257.921875 171.855469 L 257.921875 187.992188 C 257.921875 189.722656 256.515625 191.132812 254.785156 191.132812 Z M 254.785156 191.132812 " fill-opacity="1" fill-rule="nonzero"/><path fill="#000000" d="M 240.195312 147.039062 C 226.375 147.039062 215.128906 135.789062 215.128906 121.960938 C 215.128906 108.132812 226.375 96.882812 240.195312 96.882812 C 254.019531 96.882812 265.265625 108.132812 265.265625 121.960938 C 265.265625 135.789062 254.019531 147.039062 240.195312 147.039062 Z M 240.195312 103.15625 C 229.832031 103.15625 221.40625 111.585938 221.40625 121.953125 C 221.40625 132.320312 229.832031 140.753906 240.195312 140.753906 C 250.5625 140.753906 258.988281 132.320312 258.988281 121.953125 C 258.988281 111.585938 250.554688 103.15625 240.195312 103.15625 Z M 240.195312 103.15625 " fill-opacity="1" fill-rule="nonzero"/><path fill="#000000" d="M 404.691406 85.109375 L 301.394531 85.109375 C 299.660156 85.109375 298.253906 83.703125 298.253906 81.96875 C 298.253906 80.238281 299.660156 78.832031 301.394531 78.832031 L 404.691406 78.832031 C 406.425781 78.832031 407.828125 80.238281 407.828125 81.96875 C 407.828125 83.703125 406.425781 85.109375 404.691406 85.109375 Z M 404.691406 85.109375 " fill-opacity="1" fill-rule="nonzero"/><path fill="#000000" d="M 404.691406 110.945312 L 313.425781 110.945312 C 311.691406 110.945312 310.285156 109.539062 310.285156 107.808594 C 310.285156 106.074219 311.691406 104.667969 313.425781 104.667969 L 404.691406 104.667969 C 406.425781 104.667969 407.828125 106.074219 407.828125 107.808594 C 407.828125 109.539062 406.425781 110.945312 404.691406 110.945312 Z M 404.691406 110.945312 " fill-opacity="1" fill-rule="nonzero"/><path fill="#000000" d="M 404.691406 136.777344 L 324.742188 136.777344 C 323.007812 136.777344 321.605469 135.371094 321.605469 133.636719 C 321.605469 131.902344 323.007812 130.496094 324.742188 130.496094 L 404.691406 130.496094 C 406.425781 130.496094 407.828125 131.902344 407.828125 133.636719 C 407.828125 135.371094 406.425781 136.777344 404.691406 136.777344 Z M 404.691406 136.777344 " fill-opacity="1" fill-rule="nonzero"/><path fill="#000000" d="M 343.84375 162.613281 L 313.417969 162.613281 C 311.683594 162.613281 310.277344 161.207031 310.277344 159.472656 C 310.277344 157.738281 311.683594 156.332031 313.417969 156.332031 L 343.84375 156.332031 C 345.574219 156.332031 346.980469 157.738281 346.980469 159.472656 C 346.980469 161.207031 345.574219 162.613281 343.84375 162.613281 Z M 343.84375 162.613281 " fill-opacity="1" fill-rule="nonzero"/><path fill="#000000" d="M 331.816406 188.441406 L 301.394531 188.441406 C 299.660156 188.441406 298.253906 187.035156 298.253906 185.304688 C 298.253906 183.570312 299.660156 182.164062 301.394531 182.164062 L 331.816406 182.164062 C 333.550781 182.164062 334.957031 183.570312 334.957031 185.304688 C 334.957031 187.035156 333.550781 188.441406 331.816406 188.441406 Z M 331.816406 188.441406 " fill-opacity="1" fill-rule="nonzero"/><g clip-path="url(#bca11b794e)"><path fill="#000000" d="M 395.136719 244.707031 C 368.046875 244.707031 346.011719 222.664062 346.011719 195.566406 C 346.011719 168.464844 368.046875 146.425781 395.136719 146.425781 C 422.226562 146.425781 444.265625 168.464844 444.265625 195.566406 C 444.265625 222.664062 422.226562 244.707031 395.136719 244.707031 Z M 395.136719 152.703125 C 371.515625 152.703125 352.289062 171.933594 352.289062 195.566406 C 352.289062 219.199219 371.515625 238.429688 395.136719 238.429688 C 418.761719 238.429688 437.988281 219.199219 437.988281 195.566406 C 437.988281 171.925781 418.761719 152.703125 395.136719 152.703125 Z M 395.136719 152.703125 " fill-opacity="1" fill-rule="nonzero"/></g><path fill="#000000" d="M 406.105469 219.695312 C 405.183594 219.695312 404.246094 219.511719 403.335938 219.144531 L 395.144531 215.835938 L 386.953125 219.144531 C 384.570312 220.105469 382.007812 219.792969 379.929688 218.28125 C 377.851562 216.769531 376.757812 214.4375 376.941406 211.871094 L 377.554688 203.046875 L 371.875 196.273438 C 370.21875 194.304688 369.730469 191.765625 370.527344 189.324219 C 371.316406 186.878906 373.207031 185.121094 375.699219 184.5 L 384.269531 182.359375 L 388.960938 174.863281 C 390.320312 172.6875 392.574219 171.4375 395.144531 171.4375 C 397.714844 171.4375 399.96875 172.6875 401.332031 174.863281 L 406.019531 182.359375 L 414.589844 184.5 C 417.082031 185.121094 418.972656 186.878906 419.761719 189.324219 C 420.554688 191.773438 420.0625 194.304688 418.417969 196.273438 L 412.734375 203.046875 L 413.347656 211.867188 C 413.523438 214.429688 412.441406 216.769531 410.355469 218.28125 C 409.066406 219.21875 407.601562 219.695312 406.105469 219.695312 Z M 395.136719 209.316406 C 395.539062 209.316406 395.9375 209.394531 396.316406 209.542969 L 405.683594 213.332031 C 406.050781 213.480469 406.34375 213.441406 406.667969 213.210938 C 406.988281 212.976562 407.109375 212.710938 407.085938 212.316406 L 406.378906 202.230469 C 406.320312 201.417969 406.582031 200.613281 407.105469 199.992188 L 413.597656 192.25 C 413.851562 191.949219 413.910156 191.652344 413.785156 191.273438 C 413.667969 190.902344 413.441406 190.691406 413.0625 190.601562 L 403.257812 188.15625 C 402.46875 187.957031 401.789062 187.460938 401.355469 186.773438 L 396 178.207031 C 395.792969 177.871094 395.53125 177.730469 395.136719 177.730469 C 394.746094 177.730469 394.484375 177.871094 394.273438 178.207031 L 388.921875 186.78125 C 388.488281 187.46875 387.808594 187.964844 387.015625 188.160156 L 377.214844 190.609375 C 376.828125 190.707031 376.613281 190.910156 376.488281 191.28125 C 376.367188 191.660156 376.425781 191.949219 376.679688 192.257812 L 383.171875 200 C 383.695312 200.621094 383.957031 201.425781 383.898438 202.238281 L 383.191406 212.324219 C 383.164062 212.714844 383.296875 212.992188 383.609375 213.21875 C 383.929688 213.453125 384.226562 213.488281 384.589844 213.335938 L 393.960938 209.550781 C 394.339844 209.386719 394.738281 209.316406 395.136719 209.316406 Z M 395.136719 209.316406 " fill-opacity="1" fill-rule="nonzero"/><g clip-path="url(#78cf605899)"><path fill="#ff8731" d="M 211.984375 216.738281 L 309.871094 196.089844 C 316.53125 194.6875 322.3125 201.667969 322.242188 208.480469 L 321.886719 244.566406 C 321.816406 251.378906 316.320312 256.953125 309.515625 256.953125 L 281.605469 256.953125 L 281.625 256.902344 C 281.882812 256.289062 281.792969 255.671875 281.445312 255.113281 C 281.121094 254.601562 280.671875 254.222656 280.085938 254.054688 C 279.507812 253.890625 278.9375 253.9375 278.417969 254.25 C 278.015625 254.492188 277.710938 254.832031 277.488281 255.234375 C 276.976562 255.484375 276.601562 255.90625 276.375 256.449219 L 276.164062 256.953125 L 276.066406 256.953125 L 275.785156 255.566406 C 275.777344 255.328125 275.722656 255.09375 275.636719 254.875 C 275.519531 254.46875 275.308594 254.113281 274.976562 253.847656 C 274.664062 253.605469 274.304688 253.464844 273.914062 253.421875 C 273.371094 253.320312 272.851562 253.40625 272.382812 253.703125 C 272.007812 253.941406 271.71875 254.265625 271.507812 254.652344 C 271.429688 254.691406 271.351562 254.734375 271.277344 254.785156 C 270.75 255.109375 270.398438 255.578125 270.265625 256.179688 L 270.125 256.519531 C 269.992188 255.84375 269.859375 255.167969 269.71875 254.496094 C 269.628906 254.078125 269.449219 253.699219 269.144531 253.394531 C 268.855469 253.105469 268.503906 252.914062 268.097656 252.855469 C 267.757812 252.808594 267.417969 252.828125 267.085938 252.910156 C 266.714844 252.996094 266.386719 253.171875 266.097656 253.417969 C 265.886719 253.601562 265.707031 253.816406 265.574219 254.058594 C 265.175781 254.234375 264.84375 254.511719 264.585938 254.882812 C 264.53125 254.964844 264.484375 255.046875 264.441406 255.132812 C 264.324219 254.972656 264.199219 254.820312 264.0625 254.675781 C 263.625 254.210938 263.113281 253.835938 262.546875 253.542969 C 261.980469 253.253906 261.378906 253.058594 260.746094 252.976562 C 260.089844 252.894531 259.4375 252.949219 258.800781 253.121094 C 258.125 253.304688 257.503906 253.617188 256.957031 254.054688 C 256.515625 254.410156 256.144531 254.832031 255.84375 255.3125 C 255.625 255.515625 255.425781 255.738281 255.246094 255.980469 C 255.09375 256.191406 254.949219 256.40625 254.820312 256.632812 L 254.855469 256.21875 C 254.929688 255.359375 254.628906 254.621094 253.917969 254.125 C 253.550781 253.863281 253.128906 253.722656 252.679688 253.683594 C 252.234375 253.644531 251.796875 253.714844 251.386719 253.90625 C 250.605469 254.269531 250.183594 254.941406 250.105469 255.796875 L 250.003906 256.953125 L 249.894531 256.953125 L 248.703125 254.609375 C 248.59375 254.3125 248.414062 254.050781 248.1875 253.828125 C 247.703125 253.320312 247.066406 253.089844 246.355469 253.148438 C 245.9375 253.160156 245.539062 253.265625 245.179688 253.484375 C 244.828125 253.699219 244.550781 253.992188 244.359375 254.355469 C 244.136719 254.746094 244.03125 255.175781 244.0625 255.621094 L 243.945312 256.953125 L 211.984375 256.953125 C 205.179688 256.953125 199.613281 251.378906 199.613281 244.566406 L 199.613281 229.125 C 199.613281 222.3125 205.324219 218.140625 211.984375 216.738281 Z M 211.984375 216.738281 " fill-opacity="1" fill-rule="evenodd"/></g><path fill="#fefefe" d="M 241.121094 238.847656 C 241.214844 240.75 240.851562 242.539062 240.023438 244.222656 C 239.199219 245.898438 238.015625 247.265625 236.464844 248.328125 C 234.914062 249.386719 233.1875 249.988281 231.28125 250.136719 C 229.296875 250.289062 227.433594 249.917969 225.679688 249.019531 C 223.933594 248.117188 222.539062 246.855469 221.484375 245.230469 C 219.902344 243.511719 218.910156 241.429688 218.5 238.96875 C 218.261719 237.523438 218.648438 236.378906 219.652344 235.558594 C 220.203125 235.085938 220.878906 234.796875 221.679688 234.679688 C 222.484375 234.570312 223.242188 234.648438 223.960938 234.925781 C 224.585938 235.164062 225.109375 235.523438 225.539062 235.988281 C 225.96875 236.453125 226.269531 237.007812 226.433594 237.640625 C 226.796875 238.074219 227.035156 238.632812 227.15625 239.3125 C 227.15625 239.339844 227.164062 239.367188 227.175781 239.410156 C 227.183594 239.453125 227.1875 239.484375 227.1875 239.511719 C 227.777344 240.203125 228.535156 240.566406 229.472656 240.589844 C 230.09375 240.613281 230.667969 240.449219 231.203125 240.105469 C 231.734375 239.753906 232.089844 239.195312 232.273438 238.429688 C 232.414062 237.808594 232.371094 236.75 232.144531 235.25 C 232.132812 235.191406 232.109375 235.019531 232.066406 234.734375 C 232.023438 234.453125 232 234.246094 231.984375 234.097656 L 231.300781 227.632812 L 229.738281 227.789062 C 229.019531 227.863281 228.359375 227.679688 227.757812 227.25 C 227.152344 226.820312 226.691406 226.257812 226.386719 225.5625 C 225.421875 224.851562 224.859375 223.90625 224.675781 222.722656 C 224.523438 221.679688 224.785156 220.726562 225.464844 219.863281 C 226.195312 218.917969 227.132812 218.382812 228.265625 218.261719 L 233.457031 217.703125 C 233.660156 217.679688 233.984375 217.691406 234.425781 217.738281 C 235.476562 217.660156 236.429688 217.910156 237.28125 218.496094 C 238.132812 219.085938 238.621094 219.984375 238.75 221.214844 C 238.75 221.25 238.757812 221.292969 238.769531 221.355469 C 238.78125 221.414062 238.789062 221.464844 238.789062 221.5 C 239.191406 222.070312 239.429688 222.710938 239.503906 223.402344 C 239.625 224.53125 239.808594 226.144531 240.066406 228.25 C 240.324219 230.347656 240.546875 232.261719 240.722656 233.980469 C 240.90625 235.707031 241.035156 237.324219 241.121094 238.847656 Z M 225.289062 222.628906 C 225.394531 223.292969 225.644531 223.863281 226.023438 224.355469 C 226.011719 224.285156 226.003906 224.183594 226.003906 224.054688 C 225.957031 223.023438 226.304688 222.164062 227.054688 221.488281 C 227.808594 220.8125 228.703125 220.421875 229.738281 220.3125 C 230.3125 220.25 231.175781 220.164062 232.335938 220.042969 C 233.488281 219.925781 234.351562 219.832031 234.925781 219.769531 C 235.3125 219.734375 235.691406 219.777344 236.078125 219.898438 C 236.796875 220.003906 237.445312 220.28125 238.035156 220.726562 C 237.820312 219.875 237.367188 219.242188 236.667969 218.839844 C 235.976562 218.433594 235.234375 218.269531 234.441406 218.355469 L 234.371094 218.355469 C 234.039062 218.304688 233.757812 218.296875 233.53125 218.335938 L 228.339844 218.875 C 227.371094 218.96875 226.574219 219.425781 225.949219 220.238281 C 225.378906 220.984375 225.152344 221.777344 225.289062 222.628906 Z M 229.4375 241.214844 C 228.761719 241.191406 228.121094 240.984375 227.496094 240.589844 C 227.996094 241.910156 228.917969 242.613281 230.246094 242.714844 C 231.011719 242.769531 231.710938 242.585938 232.339844 242.140625 C 232.976562 241.707031 233.394531 241.117188 233.597656 240.375 C 233.683594 240.0625 233.726562 239.6875 233.726562 239.253906 C 233.726562 238.8125 233.703125 238.417969 233.664062 238.074219 C 233.621094 237.722656 233.558594 237.308594 233.480469 236.816406 C 233.40625 236.324219 233.351562 235.957031 233.328125 235.71875 C 233.234375 234.804688 233.089844 233.433594 232.898438 231.613281 C 232.707031 229.785156 232.5625 228.417969 232.46875 227.503906 C 232.410156 227.515625 232.316406 227.527344 232.1875 227.539062 C 232.066406 227.550781 231.972656 227.558594 231.914062 227.558594 L 232.59375 234.042969 C 232.605469 234.179688 232.636719 234.367188 232.671875 234.621094 C 232.714844 234.871094 232.746094 235.050781 232.757812 235.140625 C 232.984375 236.75 233.019531 237.890625 232.863281 238.578125 C 232.660156 239.40625 232.25 240.054688 231.625 240.535156 C 231.003906 241.011719 230.269531 241.238281 229.4375 241.214844 Z M 219.113281 238.867188 C 219.316406 240.050781 219.65625 241.136719 220.136719 242.117188 C 220.074219 241.914062 220.019531 241.640625 219.957031 241.289062 C 219.859375 240.726562 219.878906 240.191406 220 239.683594 C 220.128906 239.171875 220.324219 238.730469 220.601562 238.363281 C 220.878906 237.988281 221.214844 237.664062 221.605469 237.386719 C 222.003906 237.109375 222.421875 236.914062 222.855469 236.785156 C 223.292969 236.664062 223.738281 236.601562 224.191406 236.613281 C 224.644531 236.625 225.066406 236.722656 225.449219 236.902344 C 225.054688 236.246094 224.484375 235.78125 223.746094 235.503906 C 223.316406 235.34375 222.851562 235.269531 222.359375 235.269531 C 221.441406 235.269531 220.667969 235.527344 220.042969 236.042969 C 219.222656 236.710938 218.910156 237.652344 219.113281 238.867188 Z M 265.636719 227.175781 C 265.605469 228.570312 265.546875 229.789062 265.460938 230.847656 C 265.378906 231.902344 265.234375 233.128906 265.03125 234.535156 C 264.828125 235.933594 264.507812 237.238281 264.085938 238.449219 C 263.664062 239.65625 263.132812 240.71875 262.5 241.632812 C 261.734375 243.621094 260.71875 245.148438 259.449219 246.214844 C 257.351562 247.964844 255.03125 248.84375 252.480469 248.84375 C 250.839844 248.84375 249.257812 248.457031 247.726562 247.6875 C 245.65625 246.65625 244.042969 245.140625 242.886719 243.140625 C 241.734375 241.140625 241.214844 238.976562 241.335938 236.652344 C 241.359375 236.363281 241.386719 236.140625 241.421875 235.988281 C 241.472656 235.507812 241.542969 234.742188 241.644531 233.6875 C 241.710938 232.820312 241.769531 232.171875 241.820312 231.734375 C 241.871094 231.300781 241.949219 230.664062 242.058594 229.828125 C 242.175781 229 242.292969 228.332031 242.410156 227.832031 C 242.53125 227.335938 242.703125 226.734375 242.921875 226.015625 C 243.144531 225.304688 243.394531 224.699219 243.671875 224.1875 C 243.941406 223.679688 244.285156 223.144531 244.695312 222.59375 C 245.097656 222.042969 245.546875 221.550781 246.035156 221.121094 C 246.660156 220.078125 247.445312 219.175781 248.390625 218.410156 C 249.527344 217.507812 250.773438 216.882812 252.121094 216.519531 C 253.472656 216.15625 254.785156 216.058594 256.054688 216.226562 C 257.324219 216.382812 258.554688 216.769531 259.742188 217.382812 C 260.929688 217.992188 261.96875 218.765625 262.847656 219.703125 C 263.726562 220.636719 264.425781 221.757812 264.933594 223.058594 C 265.441406 224.367188 265.671875 225.742188 265.636719 227.175781 Z M 250.796875 234.480469 C 250.761719 235.234375 250.871094 235.894531 251.132812 236.472656 C 251.398438 237.050781 251.746094 237.480469 252.1875 237.765625 C 252.621094 238.054688 253.105469 238.226562 253.640625 238.277344 C 254.171875 238.332031 254.679688 238.269531 255.171875 238.09375 C 255.667969 237.910156 256.101562 237.589844 256.484375 237.128906 C 256.867188 236.667969 257.121094 236.105469 257.238281 235.449219 C 257.863281 231.949219 258.175781 229.191406 258.175781 227.175781 C 258.175781 226.460938 258.03125 225.839844 257.757812 225.3125 C 257.480469 224.785156 257.132812 224.390625 256.710938 224.132812 C 256.285156 223.875 255.816406 223.722656 255.300781 223.671875 C 254.785156 223.625 254.296875 223.6875 253.828125 223.851562 C 253.363281 224.023438 252.941406 224.3125 252.5625 224.722656 C 252.1875 225.140625 251.925781 225.632812 251.785156 226.207031 C 251.597656 226.949219 251.457031 227.765625 251.359375 228.660156 C 251.257812 229.550781 251.171875 230.539062 251.089844 231.621094 C 251.011719 232.699219 250.9375 233.523438 250.863281 234.097656 C 250.851562 234.148438 250.839844 234.207031 250.820312 234.289062 C 250.804688 234.367188 250.796875 234.421875 250.796875 234.460938 Z M 259.050781 245.730469 C 259.804688 245.082031 260.472656 244.265625 261.042969 243.285156 C 259.90625 244.300781 258.644531 245.027344 257.265625 245.449219 C 255.882812 245.878906 254.535156 246.015625 253.230469 245.867188 C 251.917969 245.714844 250.636719 245.320312 249.394531 244.6875 C 248.148438 244.050781 247.070312 243.246094 246.152344 242.269531 C 245.238281 241.296875 244.523438 240.125 244 238.765625 C 243.480469 237.40625 243.261719 235.976562 243.347656 234.480469 C 243.359375 234.332031 243.390625 234.128906 243.433594 233.863281 C 243.492188 233.3125 243.578125 232.433594 243.683594 231.234375 C 243.792969 230.03125 243.886719 229.054688 243.964844 228.320312 C 244.042969 227.582031 244.1875 226.710938 244.386719 225.699219 C 244.589844 224.6875 244.839844 223.789062 245.140625 223.011719 C 244.613281 223.703125 244.179688 224.457031 243.832031 225.28125 C 243.480469 226.101562 243.207031 227.046875 243.003906 228.121094 C 242.800781 229.195312 242.652344 230.078125 242.574219 230.765625 C 242.488281 231.453125 242.390625 232.449219 242.269531 233.742188 C 242.167969 234.792969 242.097656 235.570312 242.035156 236.082031 C 242.023438 236.136719 241.996094 236.339844 241.960938 236.6875 C 241.84375 238.890625 242.328125 240.941406 243.425781 242.835938 C 244.523438 244.730469 246.042969 246.160156 247.996094 247.128906 C 249.835938 248.058594 251.734375 248.386719 253.695312 248.136719 C 255.648438 247.886719 257.4375 247.082031 259.050781 245.730469 Z M 282.53125 243.011719 C 282.566406 243.828125 282.335938 244.554688 281.832031 245.191406 C 281.328125 245.824219 280.691406 246.277344 279.914062 246.542969 C 279.777344 246.804688 279.601562 247.070312 279.375 247.328125 C 278.585938 248.253906 277.621094 248.746094 276.484375 248.804688 L 271.273438 249.074219 L 271.058594 249.074219 C 270.019531 249.074219 269.113281 248.707031 268.339844 247.976562 C 267.566406 247.246094 267.132812 246.332031 267.023438 245.246094 C 266.9375 244.457031 267.125 243.695312 267.578125 242.96875 C 268.03125 242.246094 268.660156 241.707031 269.449219 241.34375 L 268.660156 226.515625 C 267.890625 226.261719 267.253906 225.800781 266.746094 225.140625 C 266.238281 224.472656 265.9375 223.722656 265.859375 222.882812 C 265.761719 221.839844 266.074219 220.90625 266.789062 220.078125 C 267.519531 219.238281 268.417969 218.757812 269.480469 218.640625 C 270.257812 217.726562 271.238281 217.242188 272.410156 217.183594 L 277.636719 216.910156 C 278.640625 216.867188 279.496094 217.226562 280.214844 217.984375 C 280.9375 218.746094 281.316406 219.628906 281.367188 220.636719 C 281.402344 221.414062 281.1875 222.113281 280.730469 222.730469 C 280.269531 223.347656 279.667969 223.800781 278.921875 224.085938 C 279.019531 225.777344 279.160156 228.320312 279.339844 231.71875 C 279.515625 235.117188 279.652344 237.664062 279.730469 239.367188 C 280.507812 239.558594 281.164062 240.007812 281.691406 240.707031 C 282.21875 241.40625 282.5 242.179688 282.53125 243.011719 Z M 278.910156 246.933594 C 278.914062 246.910156 278.941406 246.878906 278.96875 246.835938 C 279 246.792969 279.027344 246.761719 279.050781 246.738281 C 279 246.75 278.921875 246.757812 278.796875 246.757812 C 278.222656 246.792969 277.359375 246.835938 276.195312 246.898438 C 275.035156 246.957031 274.167969 247 273.589844 247.027344 C 272.585938 247.070312 271.726562 246.714844 271.003906 245.953125 C 270.289062 245.191406 269.90625 244.300781 269.859375 243.285156 C 269.824219 242.503906 270.035156 241.8125 270.496094 241.191406 C 270.957031 240.570312 271.550781 240.125 272.285156 239.835938 C 272.1875 238.128906 272.050781 235.582031 271.882812 232.183594 C 271.703125 228.789062 271.574219 226.246094 271.496094 224.558594 C 270.703125 224.359375 270.050781 223.917969 269.527344 223.226562 C 269.007812 222.53125 268.726562 221.765625 268.695312 220.925781 C 268.683594 220.347656 268.785156 219.828125 269.015625 219.359375 C 268.332031 219.550781 267.75 219.925781 267.273438 220.476562 C 266.660156 221.183594 266.398438 221.960938 266.464844 222.808594 C 266.539062 223.5625 266.808594 224.238281 267.285156 224.828125 C 267.757812 225.410156 268.339844 225.796875 269.03125 225.972656 L 269.265625 226.03125 L 270.074219 241.753906 L 269.878906 241.828125 C 269.171875 242.105469 268.601562 242.558594 268.179688 243.199219 C 267.757812 243.828125 267.578125 244.5 267.652344 245.191406 C 267.746094 246.148438 268.144531 246.945312 268.835938 247.574219 C 269.527344 248.203125 270.332031 248.492188 271.242188 248.445312 L 276.464844 248.171875 C 277.433594 248.113281 278.246094 247.703125 278.910156 246.933594 Z M 305.132812 218.625 C 306.292969 219.441406 306.808594 220.605469 306.679688 222.128906 L 304.792969 243.769531 C 304.890625 244.570312 304.730469 245.316406 304.308594 246 L 304.289062 246.019531 C 304.277344 246.03125 304.269531 246.042969 304.269531 246.058594 C 304.257812 246.234375 304.238281 246.515625 304.210938 246.898438 C 304.179688 247.285156 304.152344 247.566406 304.128906 247.746094 C 304.042969 248.738281 303.65625 249.566406 302.957031 250.222656 C 302.277344 250.917969 301.480469 251.332031 300.574219 251.476562 C 299.664062 251.609375 298.828125 251.382812 298.0625 250.78125 C 297.285156 250.304688 296.824219 249.601562 296.695312 248.675781 L 291.253906 238 L 290.808594 243.226562 C 290.757812 243.84375 290.605469 244.375 290.34375 244.828125 C 290.332031 245.015625 290.304688 245.289062 290.269531 245.675781 C 290.234375 246.058594 290.207031 246.339844 290.195312 246.523438 C 290.078125 247.886719 289.441406 248.890625 288.296875 249.542969 C 287.304688 250.105469 286.257812 250.253906 285.152344 249.988281 C 284.0625 249.714844 283.328125 249.113281 282.945312 248.171875 C 282.757812 247.683594 282.683594 247.132812 282.734375 246.523438 C 282.757812 246.257812 282.789062 245.867188 282.832031 245.351562 C 282.875 244.835938 282.90625 244.457031 282.929688 244.203125 C 282.761719 243.6875 282.703125 243.128906 282.75 242.527344 L 284.632812 220.871094 C 284.550781 220.101562 284.71875 219.367188 285.132812 218.660156 C 285.445312 218.046875 285.902344 217.554688 286.5 217.195312 C 287.101562 216.824219 287.777344 216.640625 288.53125 216.628906 C 289.773438 216.519531 290.816406 216.898438 291.652344 217.777344 C 292.058594 218.175781 292.351562 218.625 292.53125 219.128906 L 297.898438 229.691406 L 298.632812 221.410156 C 298.769531 219.898438 299.472656 218.84375 300.753906 218.242188 C 301.433594 217.925781 302.179688 217.796875 302.988281 217.867188 C 303.796875 217.9375 304.507812 218.1875 305.132812 218.625 Z M 301.023438 218.800781 C 299.945312 219.304688 299.355469 220.195312 299.246094 221.464844 L 299.03125 223.90625 C 299.496094 223.023438 300.21875 222.402344 301.199219 222.066406 C 302.179688 221.722656 303.136719 221.722656 304.054688 222.054688 C 304.980469 222.390625 305.59375 223.003906 305.90625 223.886719 L 306.066406 222.070312 C 306.175781 220.800781 305.746094 219.820312 304.773438 219.128906 C 304.246094 218.753906 303.640625 218.539062 302.941406 218.476562 C 302.25 218.421875 301.609375 218.527344 301.023438 218.800781 Z M 285.261719 220.832031 L 285.261719 220.90625 L 285.097656 222.6875 C 285.304688 222.285156 285.558594 221.960938 285.851562 221.699219 C 286.539062 221 287.328125 220.585938 288.234375 220.445312 C 289.136719 220.3125 289.96875 220.539062 290.734375 221.140625 C 291.527344 221.617188 291.984375 222.316406 292.121094 223.246094 L 297.832031 234.460938 C 297.859375 234.109375 297.910156 233.609375 297.964844 232.9375 C 298.015625 232.277344 298.058594 231.765625 298.082031 231.421875 L 291.960938 219.378906 C 291.800781 218.9375 291.550781 218.550781 291.199219 218.226562 C 290.496094 217.484375 289.621094 217.15625 288.566406 217.253906 C 287.917969 217.269531 287.339844 217.425781 286.832031 217.734375 C 286.324219 218.042969 285.9375 218.445312 285.675781 218.960938 C 285.320312 219.5625 285.175781 220.1875 285.261719 220.832031 Z M 285.261719 220.832031 " fill-opacity="1" fill-rule="nonzero"/><g clip-path="url(#56179a6b4b)"><path fill="#c3ccd3" d="M 253.550781 254.652344 C 254.050781 255.003906 254.273438 255.507812 254.214844 256.164062 L 253.402344 265.496094 C 253.445312 265.84375 253.375 266.164062 253.191406 266.460938 L 253.183594 266.46875 C 253.179688 266.472656 253.175781 266.476562 253.175781 266.484375 C 253.171875 266.558594 253.164062 266.683594 253.152344 266.84375 C 253.136719 267.011719 253.128906 267.132812 253.117188 267.210938 C 253.078125 267.640625 252.914062 267.996094 252.613281 268.28125 C 252.320312 268.578125 251.976562 268.757812 251.582031 268.820312 C 251.191406 268.878906 250.832031 268.78125 250.5 268.519531 C 250.164062 268.3125 249.964844 268.011719 249.910156 267.613281 L 247.566406 263.007812 L 247.371094 265.261719 C 247.351562 265.527344 247.285156 265.757812 247.171875 265.953125 C 247.164062 266.03125 247.15625 266.152344 247.140625 266.320312 C 247.125 266.484375 247.113281 266.605469 247.105469 266.683594 C 247.058594 267.273438 246.78125 267.707031 246.289062 267.984375 C 245.859375 268.230469 245.40625 268.292969 244.933594 268.179688 C 244.460938 268.058594 244.144531 267.800781 243.980469 267.394531 C 243.898438 267.183594 243.867188 266.945312 243.886719 266.683594 C 243.898438 266.570312 243.914062 266.402344 243.929688 266.179688 C 243.949219 265.957031 243.960938 265.792969 243.972656 265.683594 C 243.902344 265.460938 243.875 265.21875 243.894531 264.960938 L 244.707031 255.621094 C 244.671875 255.289062 244.746094 254.972656 244.925781 254.667969 C 245.058594 254.402344 245.253906 254.191406 245.515625 254.035156 C 245.773438 253.875 246.0625 253.796875 246.386719 253.792969 C 246.925781 253.742188 247.375 253.90625 247.734375 254.285156 C 247.910156 254.457031 248.039062 254.652344 248.113281 254.867188 L 250.429688 259.425781 L 250.746094 255.851562 C 250.804688 255.203125 251.109375 254.746094 251.660156 254.488281 C 251.953125 254.351562 252.277344 254.292969 252.625 254.324219 C 252.972656 254.355469 253.28125 254.464844 253.550781 254.652344 Z M 251.777344 254.726562 C 251.3125 254.945312 251.058594 255.328125 251.011719 255.875 L 250.917969 256.929688 C 251.117188 256.546875 251.429688 256.28125 251.851562 256.136719 C 252.277344 255.988281 252.6875 255.988281 253.085938 256.128906 C 253.484375 256.277344 253.75 256.539062 253.882812 256.921875 L 253.953125 256.136719 C 254 255.589844 253.8125 255.167969 253.394531 254.867188 C 253.167969 254.707031 252.90625 254.613281 252.605469 254.589844 C 252.304688 254.5625 252.03125 254.609375 251.777344 254.726562 Z M 244.980469 255.605469 L 244.980469 255.636719 L 244.910156 256.402344 C 245 256.230469 245.105469 256.089844 245.234375 255.976562 C 245.53125 255.675781 245.871094 255.5 246.261719 255.4375 C 246.648438 255.378906 247.007812 255.476562 247.339844 255.738281 C 247.679688 255.941406 247.878906 256.246094 247.9375 256.644531 L 250.398438 261.480469 C 250.414062 261.332031 250.433594 261.113281 250.457031 260.824219 C 250.480469 260.539062 250.496094 260.320312 250.507812 260.171875 L 247.867188 254.976562 C 247.800781 254.785156 247.691406 254.621094 247.539062 254.480469 C 247.238281 254.160156 246.859375 254.019531 246.402344 254.0625 C 246.125 254.066406 245.875 254.136719 245.65625 254.269531 C 245.4375 254.398438 245.269531 254.574219 245.15625 254.796875 C 245.003906 255.054688 244.941406 255.328125 244.980469 255.605469 Z M 264.796875 258.339844 C 264.785156 258.941406 264.757812 259.46875 264.71875 259.921875 C 264.6875 260.378906 264.621094 260.90625 264.535156 261.511719 C 264.449219 262.117188 264.3125 262.679688 264.128906 263.203125 C 263.945312 263.722656 263.714844 264.179688 263.445312 264.574219 C 263.113281 265.433594 262.675781 266.089844 262.128906 266.550781 C 261.222656 267.304688 260.222656 267.683594 259.125 267.683594 C 258.414062 267.683594 257.734375 267.519531 257.074219 267.1875 C 256.179688 266.742188 255.484375 266.089844 254.984375 265.226562 C 254.488281 264.363281 254.261719 263.429688 254.316406 262.425781 C 254.328125 262.300781 254.335938 262.207031 254.351562 262.140625 C 254.375 261.933594 254.40625 261.601562 254.449219 261.148438 C 254.476562 260.773438 254.503906 260.496094 254.523438 260.304688 C 254.546875 260.117188 254.582031 259.84375 254.628906 259.484375 C 254.679688 259.125 254.730469 258.835938 254.777344 258.625 C 254.832031 258.410156 254.90625 258.148438 255 257.839844 C 255.097656 257.53125 255.203125 257.269531 255.324219 257.050781 C 255.441406 256.832031 255.585938 256.601562 255.765625 256.363281 C 255.9375 256.125 256.132812 255.914062 256.34375 255.726562 C 256.613281 255.277344 256.949219 254.890625 257.359375 254.558594 C 257.851562 254.167969 258.386719 253.898438 258.96875 253.742188 C 259.550781 253.585938 260.117188 253.546875 260.664062 253.617188 C 261.210938 253.683594 261.742188 253.851562 262.253906 254.117188 C 262.769531 254.378906 263.214844 254.710938 263.59375 255.117188 C 263.972656 255.519531 264.273438 256.003906 264.492188 256.566406 C 264.710938 257.128906 264.8125 257.722656 264.796875 258.339844 Z M 258.398438 261.488281 C 258.378906 261.816406 258.429688 262.101562 258.542969 262.351562 C 258.65625 262.597656 258.804688 262.785156 258.996094 262.90625 C 259.183594 263.03125 259.394531 263.105469 259.621094 263.128906 C 259.851562 263.152344 260.070312 263.125 260.285156 263.046875 C 260.496094 262.96875 260.683594 262.832031 260.847656 262.632812 C 261.015625 262.433594 261.125 262.191406 261.175781 261.90625 C 261.445312 260.398438 261.578125 259.207031 261.578125 258.339844 C 261.578125 258.03125 261.519531 257.761719 261.398438 257.535156 C 261.28125 257.308594 261.128906 257.140625 260.945312 257.027344 C 260.765625 256.917969 260.5625 256.851562 260.339844 256.828125 C 260.117188 256.808594 259.90625 256.835938 259.703125 256.90625 C 259.503906 256.980469 259.320312 257.105469 259.15625 257.28125 C 258.996094 257.460938 258.882812 257.671875 258.820312 257.921875 C 258.742188 258.242188 258.683594 258.59375 258.640625 258.980469 C 258.59375 259.363281 258.558594 259.789062 258.523438 260.257812 C 258.488281 260.722656 258.457031 261.078125 258.425781 261.324219 C 258.421875 261.347656 258.414062 261.371094 258.40625 261.40625 C 258.398438 261.441406 258.398438 261.464844 258.398438 261.480469 Z M 261.957031 266.34375 C 262.28125 266.0625 262.570312 265.710938 262.816406 265.285156 C 262.324219 265.726562 261.78125 266.039062 261.1875 266.222656 C 260.589844 266.40625 260.007812 266.464844 259.445312 266.402344 C 258.878906 266.335938 258.328125 266.164062 257.792969 265.894531 C 257.253906 265.617188 256.789062 265.269531 256.394531 264.851562 C 256 264.429688 255.691406 263.925781 255.464844 263.339844 C 255.242188 262.75 255.144531 262.136719 255.183594 261.488281 C 255.1875 261.425781 255.203125 261.339844 255.21875 261.226562 C 255.246094 260.988281 255.285156 260.609375 255.328125 260.089844 C 255.375 259.570312 255.414062 259.152344 255.449219 258.832031 C 255.484375 258.515625 255.546875 258.140625 255.632812 257.703125 C 255.71875 257.265625 255.828125 256.878906 255.957031 256.542969 C 255.730469 256.84375 255.542969 257.167969 255.390625 257.523438 C 255.242188 257.878906 255.121094 258.285156 255.035156 258.746094 C 254.949219 259.210938 254.882812 259.59375 254.851562 259.886719 C 254.8125 260.183594 254.769531 260.613281 254.71875 261.171875 C 254.675781 261.625 254.644531 261.960938 254.617188 262.179688 C 254.613281 262.203125 254.601562 262.292969 254.585938 262.441406 C 254.535156 263.390625 254.746094 264.277344 255.21875 265.09375 C 255.691406 265.910156 256.347656 266.527344 257.1875 266.945312 C 257.980469 267.347656 258.800781 267.488281 259.644531 267.378906 C 260.488281 267.273438 261.261719 266.925781 261.957031 266.34375 Z M 279.910156 254.675781 C 280.316406 254.789062 280.640625 255.046875 280.898438 255.457031 C 281.15625 255.867188 281.199219 256.261719 281.035156 256.652344 C 280.601562 257.683594 279.949219 259.238281 279.085938 261.308594 C 278.222656 263.382812 277.574219 264.9375 277.136719 265.976562 C 276.980469 266.359375 276.765625 266.660156 276.496094 266.878906 L 276.328125 267.28125 C 276.1875 267.617188 275.96875 267.886719 275.667969 268.089844 C 275.371094 268.296875 275.042969 268.394531 274.695312 268.394531 C 274.621094 268.394531 274.566406 268.394531 274.53125 268.386719 L 274.453125 268.378906 C 274.003906 268.335938 273.667969 268.167969 273.445312 267.878906 C 273.222656 267.59375 273.054688 267.207031 272.929688 266.722656 C 272.761719 266.023438 272.652344 265.535156 272.59375 265.257812 C 272.398438 264.277344 272.25 263.539062 272.144531 263.046875 C 272.039062 263.308594 271.875 263.703125 271.65625 264.222656 C 271.441406 264.742188 271.28125 265.128906 271.171875 265.386719 C 271.015625 265.761719 270.796875 266.058594 270.519531 266.289062 L 270.347656 266.699219 C 270.199219 267.058594 269.957031 267.347656 269.621094 267.550781 C 269.285156 267.757812 268.929688 267.839844 268.550781 267.800781 L 268.476562 267.792969 C 268.25 267.773438 268.046875 267.714844 267.867188 267.617188 C 267.691406 267.523438 267.546875 267.394531 267.433594 267.242188 C 267.316406 267.085938 267.226562 266.929688 267.15625 266.777344 C 267.085938 266.621094 267.019531 266.441406 266.957031 266.234375 C 266.949219 266.207031 266.683594 264.941406 266.167969 262.433594 L 265.929688 261.28125 C 265.898438 261.125 265.757812 260.441406 265.507812 259.230469 C 265.257812 258.015625 265.0625 257.09375 264.929688 256.457031 C 264.828125 255.984375 264.890625 255.578125 265.117188 255.246094 C 265.34375 254.917969 265.652344 254.6875 266.042969 254.566406 C 266.140625 254.3125 266.300781 254.09375 266.519531 253.90625 C 266.734375 253.71875 266.972656 253.597656 267.234375 253.535156 C 267.496094 253.472656 267.75 253.460938 268.007812 253.496094 C 268.265625 253.53125 268.488281 253.648438 268.691406 253.847656 C 268.886719 254.046875 269.019531 254.308594 269.089844 254.628906 C 269.179688 255.078125 269.316406 255.753906 269.5 256.664062 C 269.679688 257.570312 269.816406 258.25 269.90625 258.707031 L 270.882812 256.371094 C 270.96875 255.921875 271.214844 255.574219 271.628906 255.328125 C 271.714844 255.261719 271.835938 255.203125 271.984375 255.144531 C 272.15625 254.753906 272.398438 254.457031 272.726562 254.246094 C 273.054688 254.039062 273.414062 253.980469 273.820312 254.0625 C 274.109375 254.085938 274.359375 254.1875 274.578125 254.355469 C 274.792969 254.527344 274.941406 254.769531 275.027344 255.085938 C 275.105469 255.265625 275.144531 255.449219 275.144531 255.636719 L 275.886719 259.289062 L 276.96875 256.695312 C 277.171875 256.21875 277.5 255.894531 277.960938 255.738281 C 278.140625 255.324219 278.40625 255.011719 278.75 254.800781 C 279.097656 254.59375 279.484375 254.550781 279.910156 254.675781 Z M 277.210938 256.804688 L 275.976562 259.757812 C 275.988281 259.8125 276.003906 259.886719 276.027344 259.992188 C 276.050781 260.09375 276.066406 260.175781 276.078125 260.234375 C 276.269531 259.773438 276.558594 259.085938 276.941406 258.164062 C 277.324219 257.25 277.613281 256.558594 277.804688 256.101562 C 277.539062 256.261719 277.339844 256.496094 277.210938 256.804688 Z M 271.140625 256.457031 L 270.007812 259.171875 C 270.019531 259.222656 270.035156 259.304688 270.054688 259.414062 C 270.078125 259.519531 270.089844 259.601562 270.101562 259.648438 C 270.292969 259.191406 270.582031 258.5 270.964844 257.585938 C 271.351562 256.667969 271.636719 255.980469 271.828125 255.527344 C 271.824219 255.527344 271.8125 255.53125 271.796875 255.535156 C 271.78125 255.539062 271.769531 255.546875 271.765625 255.550781 C 271.417969 255.757812 271.214844 256.050781 271.148438 256.433594 Z M 270.101562 266.589844 L 270.140625 266.503906 C 269.976562 266.566406 269.800781 266.589844 269.613281 266.574219 C 269.609375 266.574219 269.597656 266.574219 269.574219 266.570312 C 269.554688 266.566406 269.539062 266.566406 269.535156 266.566406 C 269.164062 266.53125 268.828125 266.410156 268.535156 266.207031 C 268.238281 266 268.054688 265.726562 267.988281 265.378906 C 267.765625 264.277344 267.433594 262.628906 266.984375 260.429688 C 266.539062 258.230469 266.207031 256.582031 265.984375 255.480469 C 265.941406 255.277344 265.9375 255.078125 265.96875 254.882812 C 265.679688 255.007812 265.457031 255.199219 265.304688 255.460938 C 265.152344 255.722656 265.117188 256.035156 265.191406 256.402344 C 265.328125 257.039062 265.519531 257.960938 265.769531 259.175781 C 266.019531 260.386719 266.160156 261.070312 266.191406 261.226562 L 266.433594 262.382812 C 266.910156 264.734375 267.175781 265.996094 267.222656 266.15625 C 267.339844 266.558594 267.496094 266.878906 267.683594 267.117188 C 267.871094 267.355469 268.144531 267.492188 268.507812 267.527344 L 268.582031 267.535156 C 268.902344 267.566406 269.203125 267.492188 269.484375 267.320312 C 269.769531 267.140625 269.972656 266.902344 270.101562 266.589844 Z M 276.078125 267.179688 L 276.117188 267.09375 C 275.96875 267.148438 275.792969 267.171875 275.59375 267.15625 C 275.585938 267.15625 275.574219 267.15625 275.554688 267.152344 C 275.53125 267.148438 275.519531 267.148438 275.511719 267.148438 C 275.136719 267.109375 274.800781 266.984375 274.503906 266.789062 C 274.207031 266.589844 274.023438 266.316406 273.957031 265.96875 C 273.847656 265.421875 273.683594 264.605469 273.464844 263.515625 C 273.246094 262.429688 273.078125 261.613281 272.964844 261.070312 C 272.894531 261.242188 272.789062 261.496094 272.648438 261.839844 C 272.507812 262.175781 272.402344 262.433594 272.332031 262.605469 C 272.546875 263.660156 272.726562 264.523438 272.855469 265.203125 C 272.9375 265.589844 273.046875 266.074219 273.191406 266.652344 C 273.308594 267.117188 273.460938 267.46875 273.648438 267.707031 C 273.832031 267.945312 274.109375 268.082031 274.476562 268.117188 L 274.554688 268.125 C 274.875 268.15625 275.175781 268.085938 275.460938 267.910156 C 275.742188 267.730469 275.949219 267.488281 276.078125 267.179688 Z M 276.078125 267.179688 " fill-opacity="1" fill-rule="nonzero"/></g><g clip-path="url(#84f759885f)"><path fill="#e5e5e5" d="M 219.105469 218.371094 L 309.300781 200.347656 C 318.6875 198.46875 326.363281 207.078125 326.273438 215.496094 L 325.941406 247.003906 C 325.855469 255.339844 318.738281 262.160156 309.921875 262.160156 L 279.429688 262.160156 L 279.679688 261.558594 L 279.921875 260.976562 L 309.921875 260.976562 C 318.058594 260.976562 324.617188 254.679688 324.695312 246.992188 L 325.027344 215.484375 C 325.105469 207.855469 318.171875 199.78125 309.554688 201.503906 L 219.359375 219.527344 C 211.945312 221.011719 205.28125 225.726562 205.28125 233.480469 L 205.28125 246.960938 C 205.28125 254.675781 211.921875 260.976562 220.054688 260.976562 L 243.597656 260.976562 L 243.496094 262.160156 L 220.054688 262.160156 C 211.234375 262.160156 204.035156 255.328125 204.035156 246.960938 L 204.035156 233.480469 C 204.035156 225.144531 211.101562 219.972656 219.105469 218.371094 Z M 219.105469 218.371094 " fill-opacity="1" fill-rule="evenodd"/></g><g fill="#ffffff" fill-opacity="1"><g transform="translate(169.810543, 331.647048)"><g><path d="M 8.339844 0.191406 L 9.539062 0.289062 L 11.21875 0.167969 L 12.632812 -0.121094 L 13.0625 -0.359375 L 13.566406 -0.527344 L 13.972656 -0.71875 L 15.148438 -1.558594 L 15.820312 -2.230469 L 16.371094 -2.949219 L 16.875 -3.8125 L 17.5 -5.632812 L 17.355469 -6.0625 L 16.875 -6.375 L 15.53125 -6.28125 L 15.054688 -6.351562 L 14.574219 -6.328125 L 14.09375 -6.351562 L 13.542969 -6.0625 L 13.160156 -5.679688 L 12.917969 -5.226562 L 12.367188 -4.601562 L 11.984375 -4.265625 L 11.625 -4.121094 L 10.785156 -3.667969 L 9.515625 -3.59375 L 8.820312 -3.667969 L 7.957031 -3.980469 L 7.117188 -4.410156 L 6.425781 -5.035156 L 5.898438 -5.871094 L 5.730469 -6.351562 L 5.5625 -6.6875 L 5.441406 -7.117188 L 5.371094 -7.644531 L 5.371094 -9.109375 L 5.535156 -10.066406 L 5.898438 -10.929688 L 6.136719 -11.386719 L 6.710938 -12.058594 L 7.285156 -12.511719 L 7.933594 -12.871094 L 9.539062 -13.085938 L 10.570312 -13.039062 L 11.3125 -12.824219 L 11.746094 -12.65625 L 12.082031 -12.390625 L 12.777344 -11.699219 L 13.039062 -11.335938 L 13.496094 -10.882812 L 14.046875 -10.617188 L 14.476562 -10.667969 L 14.980469 -10.644531 L 15.460938 -10.667969 L 16.132812 -10.59375 L 16.851562 -10.667969 L 17.257812 -10.859375 L 17.425781 -11.335938 L 17.28125 -11.863281 L 17.113281 -12.296875 L 16.972656 -12.800781 L 16.707031 -13.183594 L 16.492188 -13.566406 L 16.15625 -13.972656 L 15.890625 -14.429688 L 15.222656 -15.125 L 13.589844 -16.15625 L 11.289062 -16.921875 L 10.835938 -16.945312 L 10.355469 -17.019531 L 8.867188 -17.042969 L 6.542969 -16.585938 L 4.769531 -15.75 L 4.074219 -15.222656 L 3.042969 -14.285156 L 2.398438 -13.472656 L 1.941406 -12.777344 L 1.34375 -11.433594 L 1.101562 -10.449219 L 0.863281 -8.390625 L 1.007812 -6.640625 L 1.34375 -5.273438 L 2.371094 -3.1875 L 3.355469 -2.132812 L 4.433594 -1.199219 L 5.464844 -0.648438 L 6.542969 -0.191406 L 6.976562 -0.0976562 L 7.453125 0.0703125 L 7.886719 0.167969 Z M 8.339844 0.191406 "/></g></g></g><g fill="#ffffff" fill-opacity="1"><g transform="translate(188.095706, 331.647048)"><g><path d="M 1.796875 -0.695312 L 2.011719 -0.261719 L 2.78125 0.0234375 L 11.265625 -0.0234375 L 11.9375 -0.261719 L 12.199219 -0.695312 L 12.152344 -1.222656 L 12.175781 -1.703125 L 12.226562 -2.132812 L 12.152344 -2.660156 L 12.226562 -3.117188 L 11.914062 -3.644531 L 11.53125 -3.882812 L 11.003906 -3.8125 L 6.785156 -3.859375 L 6.28125 -4.074219 L 6.136719 -4.601562 L 6.160156 -5.488281 L 6.089844 -5.945312 L 6.113281 -6.472656 L 6.0625 -6.953125 L 6.113281 -7.453125 L 6.089844 -8.652344 L 6.160156 -9.324219 L 6.089844 -9.851562 L 6.160156 -10.355469 L 6.089844 -14.09375 L 6.136719 -14.621094 L 6.089844 -15.796875 L 5.847656 -16.515625 L 5.226562 -16.804688 L 2.734375 -16.753906 L 2.039062 -16.492188 L 1.726562 -15.84375 L 1.871094 -14.597656 L 1.820312 -14.140625 L 1.75 -13.640625 L 1.820312 -13.160156 L 1.871094 -12.703125 L 1.796875 -12.175781 L 1.820312 -11.722656 L 1.773438 -11.242188 L 1.84375 -10.738281 L 1.773438 -10.308594 L 1.820312 -9.828125 L 1.75 -9.371094 L 1.820312 -8.339844 L 1.75 -7.886719 L 1.820312 -6.925781 L 1.75 -6.449219 L 1.773438 -5.488281 L 1.820312 -5.058594 L 1.796875 -2.132812 L 1.84375 -1.652344 L 1.75 -1.199219 Z M 1.796875 -0.695312 "/></g></g></g><g fill="#ffffff" fill-opacity="1"><g transform="translate(200.988779, 331.647048)"><g><path d="M 7.070312 0.191406 L 8.222656 0.289062 L 9.421875 0.238281 L 10.378906 0.0234375 L 10.882812 -0.167969 L 11.363281 -0.289062 L 11.746094 -0.527344 L 12.175781 -0.71875 L 12.558594 -0.984375 L 13.640625 -1.941406 L 13.902344 -2.371094 L 14.214844 -2.734375 L 14.359375 -3.210938 L 14.597656 -3.621094 L 14.765625 -4.074219 L 14.933594 -6.496094 L 14.863281 -8.4375 L 14.957031 -8.941406 L 14.957031 -9.371094 L 14.863281 -9.851562 L 14.835938 -10.308594 L 14.886719 -10.808594 L 14.863281 -11.480469 L 14.910156 -12.226562 L 14.886719 -12.753906 L 14.957031 -13.207031 L 14.886719 -13.6875 L 14.910156 -15.628906 L 14.835938 -16.035156 L 14.644531 -16.5625 L 13.878906 -16.777344 L 11.625 -16.804688 L 11.097656 -16.585938 L 10.859375 -16.058594 L 10.882812 -13.710938 L 10.835938 -13.230469 L 10.859375 -12.296875 L 10.808594 -11.792969 L 10.882812 -11.289062 L 10.808594 -9.394531 L 10.90625 -8.964844 L 10.859375 -8.4375 L 10.882812 -7.574219 L 10.835938 -7.09375 L 10.859375 -5.871094 L 10.761719 -5.105469 L 10.546875 -4.648438 L 10.332031 -4.316406 L 9.949219 -3.953125 L 8.988281 -3.644531 L 8.339844 -3.59375 L 7.550781 -3.644531 L 7.117188 -3.761719 L 6.589844 -4.027344 L 6.230469 -4.339844 L 5.945312 -4.675781 L 5.800781 -5.175781 L 5.753906 -9.394531 L 5.679688 -9.875 L 5.65625 -11.363281 L 5.703125 -11.792969 L 5.703125 -13.710938 L 5.632812 -14.40625 L 5.632812 -14.863281 L 5.753906 -15.582031 L 5.753906 -16.082031 L 5.488281 -16.539062 L 4.914062 -16.753906 L 2.398438 -16.777344 L 1.917969 -16.515625 L 1.703125 -16.035156 L 1.703125 -14.597656 L 1.582031 -14.191406 L 1.679688 -13.183594 L 1.605469 -12.273438 L 1.726562 -10.835938 L 1.628906 -10.378906 L 1.703125 -9.851562 L 1.652344 -9.394531 L 1.679688 -8.917969 L 1.628906 -8.460938 L 1.703125 -7.503906 L 1.679688 -5.777344 L 1.75 -5.082031 L 1.75 -4.578125 L 1.894531 -4.097656 L 1.964844 -3.644531 L 2.109375 -3.1875 L 2.589844 -2.371094 L 3.234375 -1.582031 L 3.546875 -1.269531 L 4.363281 -0.789062 L 4.722656 -0.503906 L 5.175781 -0.3125 L 5.730469 -0.144531 L 6.089844 0.046875 L 6.617188 0.0703125 Z M 7.070312 0.191406 "/></g></g></g><g fill="#ffffff" fill-opacity="1"><g transform="translate(217.524507, 331.647048)"><g><path d="M 1.75 -0.71875 L 2.011719 -0.167969 L 2.46875 0.046875 L 10.402344 -0.046875 L 11.3125 -0.167969 L 12.105469 -0.480469 L 13.015625 -1.007812 L 13.328125 -1.246094 L 13.710938 -1.605469 L 14.261719 -2.398438 L 14.476562 -2.851562 L 14.574219 -3.261719 L 14.765625 -3.738281 L 14.789062 -5.65625 L 14.695312 -6.113281 L 14.527344 -6.617188 L 14.09375 -7.453125 L 13.757812 -7.863281 L 13.398438 -8.222656 L 13.183594 -8.75 L 13.28125 -9.226562 L 13.542969 -9.707031 L 13.832031 -10.117188 L 14.167969 -11.839844 L 14.140625 -12.535156 L 13.878906 -13.421875 L 13.640625 -13.878906 L 13.496094 -14.335938 L 12.917969 -15.101562 L 12.585938 -15.4375 L 11.863281 -15.941406 L 10.976562 -16.417969 L 9.636719 -16.730469 L 2.421875 -16.777344 L 1.941406 -16.5625 L 1.726562 -16.058594 L 1.773438 -15.027344 L 1.726562 -14.335938 L 1.820312 -12.726562 L 1.75 -12.226562 L 1.796875 -11.722656 L 1.75 -11.265625 L 1.773438 -10.761719 L 1.726562 -10.308594 L 1.726562 -8.390625 L 1.796875 -7.886719 L 1.75 -7.429688 L 1.75 -6.472656 L 1.796875 -6.015625 L 1.75 -4.050781 L 1.820312 -3.066406 L 1.726562 -1.628906 Z M 6.664062 -10.28125 L 6.089844 -10.476562 L 5.847656 -10.953125 L 5.945312 -11.363281 L 5.945312 -11.816406 L 5.898438 -12.273438 L 6.160156 -12.679688 L 6.664062 -12.945312 L 8.390625 -12.871094 L 9.132812 -12.726562 L 9.421875 -12.535156 L 9.730469 -12.199219 L 9.804688 -11.554688 L 9.683594 -10.835938 L 9.277344 -10.449219 L 8.460938 -10.28125 Z M 6.589844 -3.8125 L 6.183594 -4.003906 L 5.921875 -4.507812 L 5.945312 -4.914062 L 5.898438 -5.371094 L 5.921875 -5.847656 L 6.089844 -6.28125 L 6.566406 -6.519531 L 9.109375 -6.519531 L 9.78125 -6.398438 L 10.140625 -6.136719 L 10.5 -5.800781 L 10.546875 -5.128906 L 10.5 -4.507812 L 10.1875 -4.171875 L 9.753906 -3.90625 L 8.460938 -3.789062 Z M 6.589844 -3.8125 "/></g></g></g><g fill="#ffffff" fill-opacity="1"><g transform="translate(233.341293, 331.647048)"><g/></g></g><g fill="#ffffff" fill-opacity="1"><g transform="translate(239.835757, 331.647048)"><g><path d="M 1.84375 -0.765625 L 2.011719 -0.238281 L 2.492188 0 L 2.949219 0.0234375 L 3.929688 -0.046875 L 4.433594 0 L 5.152344 0 L 5.898438 -0.238281 L 6.0625 -0.695312 L 6.113281 -1.199219 L 6.015625 -1.703125 L 6.089844 -2.734375 L 6.039062 -4.21875 L 6.257812 -4.699219 L 6.734375 -4.9375 L 7.167969 -4.9375 L 7.597656 -4.960938 L 8.199219 -4.769531 L 8.582031 -4.363281 L 9.203125 -3.523438 L 9.371094 -3.066406 L 10.042969 -1.871094 L 10.355469 -1.414062 L 10.570312 -1.007812 L 10.859375 -0.625 L 11.335938 -0.191406 L 11.9375 -0.046875 L 12.800781 0 L 13.328125 -0.046875 L 13.808594 0 L 14.765625 0 L 15.292969 -0.046875 L 15.796875 -0.167969 L 15.890625 -0.671875 L 15.582031 -1.269531 L 14.8125 -2.445312 L 14.597656 -2.851562 L 14.308594 -3.285156 L 14.070312 -3.714844 L 13.757812 -4.097656 L 13.039062 -5.34375 L 12.96875 -5.921875 L 13.230469 -6.425781 L 13.902344 -7.070312 L 14.191406 -7.480469 L 14.359375 -7.933594 L 14.621094 -8.367188 L 14.789062 -8.773438 L 15.054688 -9.683594 L 15.078125 -11.578125 L 14.957031 -12.03125 L 14.886719 -12.488281 L 14.765625 -12.96875 L 14.117188 -14.285156 L 13.78125 -14.644531 L 13.566406 -15.003906 L 12.367188 -15.917969 L 11.53125 -16.347656 L 9.539062 -16.753906 L 8.941406 -16.804688 L 8.246094 -16.777344 L 7.71875 -16.804688 L 7.238281 -16.753906 L 6.710938 -16.804688 L 6.304688 -16.753906 L 4.867188 -16.804688 L 4.410156 -16.730469 L 3.425781 -16.828125 L 2.972656 -16.753906 L 2.445312 -16.777344 L 1.988281 -16.5625 L 1.796875 -16.058594 L 1.726562 -9.347656 L 1.796875 -8.652344 L 1.796875 -7.453125 L 1.75 -6.953125 L 1.726562 -6.039062 L 1.796875 -5.511719 L 1.726562 -4.53125 L 1.820312 -3.140625 L 1.773438 -2.636719 Z M 6.734375 -8.820312 L 6.328125 -9.035156 L 6.089844 -9.539062 L 6.015625 -12.226562 L 6.304688 -12.703125 L 6.785156 -12.945312 L 7.167969 -12.96875 L 8.484375 -12.945312 L 9.589844 -12.800781 L 10.332031 -12.34375 L 10.570312 -11.984375 L 10.738281 -11.601562 L 10.785156 -10.90625 L 10.714844 -10.257812 L 10.523438 -9.78125 L 10.257812 -9.371094 L 9.972656 -9.085938 L 9.613281 -8.917969 L 7.742188 -8.75 L 7.261719 -8.820312 Z M 6.734375 -8.820312 "/></g></g></g><g fill="#ffffff" fill-opacity="1"><g transform="translate(256.443377, 331.647048)"><g><path d="M 1.726562 -0.695312 L 2.039062 -0.238281 L 2.492188 0.0234375 L 7.910156 -0.0234375 L 8.339844 0.046875 L 9.804688 -0.0234375 L 11.265625 0.0703125 L 11.722656 0.0234375 L 12.226562 -0.214844 L 12.441406 -0.671875 L 12.488281 -1.125 L 12.464844 -2.613281 L 12.511719 -3.066406 L 12.199219 -3.546875 L 11.480469 -3.789062 L 8.316406 -3.835938 L 7.863281 -3.761719 L 7.335938 -3.8125 L 6.808594 -3.761719 L 6.304688 -4.050781 L 6.089844 -4.792969 L 6.113281 -5.96875 L 6.328125 -6.472656 L 6.757812 -6.734375 L 7.695312 -6.734375 L 8.171875 -6.785156 L 9.445312 -6.710938 L 10.089844 -6.757812 L 10.59375 -6.710938 L 11.027344 -6.734375 L 11.503906 -7 L 11.746094 -7.453125 L 11.792969 -9.347656 L 11.746094 -9.828125 L 11.53125 -10.28125 L 11.121094 -10.546875 L 10.164062 -10.570312 L 9.683594 -10.523438 L 9.179688 -10.523438 L 8.628906 -10.570312 L 6.734375 -10.546875 L 6.328125 -10.808594 L 6.039062 -11.242188 L 5.992188 -11.984375 L 6.230469 -12.679688 L 6.976562 -12.894531 L 11.578125 -12.917969 L 12.082031 -13.183594 L 12.34375 -13.613281 L 12.296875 -14.597656 L 12.226562 -15.054688 L 12.25 -15.582031 L 12.320312 -16.035156 L 12.082031 -16.515625 L 11.578125 -16.730469 L 9.660156 -16.753906 L 9.226562 -16.707031 L 8.75 -16.777344 L 7.695312 -16.730469 L 7.214844 -16.777344 L 6.28125 -16.753906 L 5.847656 -16.804688 L 2.707031 -16.730469 L 2.011719 -16.5625 L 1.773438 -16.035156 L 1.820312 -15.078125 L 1.726562 -14.382812 L 1.820312 -13.160156 L 1.773438 -12.65625 L 1.820312 -12.226562 L 1.820312 -7.933594 L 1.75 -7.429688 L 1.820312 -6.496094 L 1.773438 -5.535156 L 1.84375 -5.035156 L 1.796875 -4.507812 L 1.820312 -4.050781 L 1.75 -3.621094 L 1.796875 -3.066406 L 1.796875 -2.589844 L 1.84375 -1.652344 L 1.820312 -1.175781 Z M 1.726562 -0.695312 "/></g></g></g><g fill="#ffffff" fill-opacity="1"><g transform="translate(270.175222, 331.647048)"><g><path d="M 8.773438 0.289062 L 9.394531 0.3125 L 10.691406 0.191406 L 11.171875 0.0976562 L 11.625 0.0703125 L 12.03125 -0.046875 L 13.808594 -0.816406 L 14.140625 -1.101562 L 14.933594 -1.605469 L 15.628906 -2.347656 L 16.394531 -3.476562 L 16.945312 -4.578125 L 17.257812 -5.609375 L 17.28125 -6.0625 L 17.425781 -6.542969 L 17.523438 -8.367188 L 17.449219 -8.84375 L 17.164062 -9.324219 L 16.46875 -9.539062 L 10.449219 -9.539062 L 9.707031 -9.277344 L 9.492188 -8.820312 L 9.445312 -7.023438 L 9.539062 -6.566406 L 9.683594 -6.160156 L 10.140625 -5.945312 L 10.59375 -5.945312 L 11.027344 -5.898438 L 12.464844 -5.96875 L 12.800781 -5.703125 L 12.894531 -5.296875 L 12.703125 -4.914062 L 12.007812 -4.242188 L 11.625 -4.050781 L 10.714844 -3.761719 L 10.234375 -3.691406 L 9.539062 -3.667969 L 8.796875 -3.714844 L 8.367188 -3.8125 L 7.933594 -3.980469 L 7.070312 -4.433594 L 6.351562 -5.007812 L 6.089844 -5.417969 L 5.898438 -5.824219 L 5.632812 -6.257812 L 5.464844 -6.710938 L 5.320312 -9.109375 L 5.585938 -9.972656 L 5.679688 -10.449219 L 6.039062 -11.335938 L 6.664062 -12.007812 L 7.453125 -12.558594 L 7.863281 -12.753906 L 8.796875 -13.0625 L 9.46875 -13.085938 L 10.714844 -12.945312 L 11.171875 -12.824219 L 12.367188 -12.082031 L 12.609375 -11.699219 L 13.136719 -11.3125 L 13.664062 -11.074219 L 16.011719 -11.074219 L 16.46875 -11.121094 L 16.875 -11.265625 L 17.042969 -11.792969 L 16.277344 -13.566406 L 15.941406 -13.902344 L 15.339844 -14.667969 L 14.644531 -15.363281 L 13.015625 -16.371094 L 12.488281 -16.515625 L 12.105469 -16.683594 L 11.625 -16.753906 L 11.097656 -16.898438 L 8.726562 -17.019531 L 7.261719 -16.777344 L 5.441406 -16.132812 L 5.007812 -15.917969 L 3.8125 -15.101562 L 3.09375 -14.429688 L 2.78125 -14.023438 L 2.539062 -13.640625 L 2.179688 -13.304688 L 1.917969 -12.847656 L 1.175781 -11.027344 L 1.152344 -10.59375 L 0.886719 -9.539062 L 0.933594 -8.339844 L 0.886719 -7.671875 L 0.910156 -7.167969 L 1.316406 -5.320312 L 1.820312 -4.003906 L 2.085938 -3.546875 L 2.949219 -2.46875 L 3.621094 -1.773438 L 5.152344 -0.742188 L 5.585938 -0.527344 L 6.925781 -0.046875 L 8.269531 0.238281 Z M 8.773438 0.289062 "/></g></g></g><g fill="#ffffff" fill-opacity="1"><g transform="translate(288.532276, 331.647048)"><g><path d="M 1.152344 -0.695312 L 1.390625 -0.191406 L 1.871094 -0.0234375 L 8.988281 0.0234375 L 9.445312 -0.214844 L 9.707031 -0.648438 L 9.707031 -1.175781 L 9.660156 -1.605469 L 9.730469 -3.066406 L 9.394531 -3.476562 L 7.789062 -3.980469 L 7.527344 -4.457031 L 7.574219 -6.425781 L 7.480469 -7.382812 L 7.574219 -8.390625 L 7.527344 -9.109375 L 7.574219 -9.851562 L 7.527344 -10.308594 L 7.574219 -10.785156 L 7.527344 -11.289062 L 7.527344 -12.296875 L 7.789062 -12.726562 L 8.246094 -12.992188 L 8.773438 -13.015625 L 9.226562 -13.28125 L 9.492188 -13.734375 L 9.492188 -15.148438 L 9.539062 -15.582031 L 9.492188 -16.058594 L 9.300781 -16.539062 L 8.535156 -16.753906 L 5.488281 -16.777344 L 4.960938 -16.730469 L 3.5 -16.753906 L 3.042969 -16.730469 L 2.109375 -16.777344 L 1.582031 -16.539062 L 1.316406 -16.035156 L 1.316406 -15.582031 L 1.269531 -15.171875 L 1.269531 -14.644531 L 1.316406 -14.167969 L 1.316406 -13.710938 L 1.558594 -13.253906 L 3.019531 -12.753906 L 3.332031 -12.320312 L 3.261719 -10.28125 L 3.285156 -9.875 L 3.355469 -9.324219 L 3.332031 -8.339844 L 3.285156 -7.863281 L 3.378906 -6.925781 L 3.261719 -6.449219 L 3.355469 -5.417969 L 3.308594 -4.480469 L 3.066406 -3.953125 L 1.484375 -3.453125 L 1.199219 -2.996094 L 1.152344 -2.539062 Z M 1.152344 -0.695312 "/></g></g></g><g fill="#ffffff" fill-opacity="1"><g transform="translate(299.412299, 331.647048)"><g><path d="M 6.953125 0.191406 L 7.644531 0.261719 L 8.414062 0.238281 L 10.761719 -0.214844 L 12.007812 -0.886719 L 12.777344 -1.414062 L 13.445312 -2.179688 L 13.925781 -2.949219 L 14.117188 -3.378906 L 14.261719 -3.859375 L 14.335938 -4.289062 L 14.359375 -5.777344 L 14.285156 -6.257812 L 14.167969 -6.710938 L 13.6875 -7.597656 L 13.113281 -8.339844 L 12.703125 -8.675781 L 11.433594 -9.253906 L 9.46875 -9.730469 L 7.046875 -10.042969 L 6.039062 -10.402344 L 5.679688 -10.59375 L 5.296875 -10.976562 L 5.273438 -11.625 L 5.34375 -12.25 L 5.609375 -12.585938 L 6.015625 -12.894531 L 6.351562 -13.039062 L 6.785156 -13.136719 L 8.316406 -13.183594 L 8.84375 -12.992188 L 9.203125 -12.703125 L 9.996094 -11.863281 L 10.738281 -11.625 L 12.320312 -11.578125 L 12.753906 -11.625 L 13.207031 -11.578125 L 13.664062 -11.863281 L 13.878906 -12.320312 L 13.6875 -13.253906 L 13.304688 -14.117188 L 12.992188 -14.5 L 12.753906 -14.886719 L 12.441406 -15.246094 L 10.90625 -16.300781 L 9.589844 -16.753906 L 9.085938 -16.851562 L 8.652344 -16.898438 L 8.125 -17.019531 L 6.785156 -16.996094 L 4.890625 -16.609375 L 4.457031 -16.445312 L 4.074219 -16.203125 L 3.691406 -16.058594 L 3.210938 -15.773438 L 2.875 -15.460938 L 2.445312 -15.171875 L 2.179688 -14.765625 L 1.871094 -14.453125 L 1.703125 -14.023438 L 1.460938 -13.640625 L 1.125 -12.25 L 1.152344 -10.644531 L 1.316406 -9.972656 L 1.628906 -9.132812 L 2.230469 -8.339844 L 2.898438 -7.71875 L 3.738281 -7.214844 L 5.105469 -6.757812 L 5.96875 -6.566406 L 7.933594 -6.425781 L 8.367188 -6.351562 L 8.84375 -6.328125 L 9.707031 -5.96875 L 10.042969 -5.679688 L 10.164062 -5.058594 L 10.019531 -4.433594 L 9.636719 -4.097656 L 9.253906 -3.882812 L 8.367188 -3.621094 L 7.695312 -3.59375 L 6.976562 -3.644531 L 6.425781 -3.789062 L 6.0625 -3.953125 L 5.632812 -4.21875 L 5.273438 -4.554688 L 4.914062 -5.035156 L 4.433594 -5.226562 L 2.613281 -5.273438 L 2.132812 -5.226562 L 1.652344 -5.25 L 1.175781 -5.035156 L 1.007812 -4.53125 L 1.054688 -4.003906 L 1.152344 -3.570312 L 1.535156 -2.613281 L 2.132812 -1.871094 L 2.828125 -1.175781 L 3.234375 -0.910156 L 4.960938 -0.121094 L 5.488281 -0.046875 L 5.945312 0.121094 Z M 6.953125 0.191406 "/></g></g></g><g fill="#ffffff" fill-opacity="1"><g transform="translate(314.701857, 331.647048)"><g><path d="M 4.601562 -0.742188 L 4.792969 -0.238281 L 5.296875 0 L 5.753906 -0.046875 L 6.230469 0 L 6.6875 -0.046875 L 8.171875 -0.046875 L 8.652344 -0.238281 L 8.84375 -0.71875 L 8.820312 -1.175781 L 8.867188 -1.726562 L 8.84375 -2.683594 L 8.773438 -3.09375 L 8.84375 -3.59375 L 8.894531 -5.058594 L 8.84375 -5.488281 L 8.917969 -6.496094 L 8.820312 -11.265625 L 8.894531 -11.746094 L 8.84375 -12.273438 L 9.035156 -12.703125 L 9.5625 -12.917969 L 9.972656 -12.945312 L 10.449219 -12.917969 L 10.882812 -12.96875 L 12.199219 -12.945312 L 12.753906 -13.160156 L 12.992188 -13.640625 L 12.945312 -14.140625 L 12.992188 -16.109375 L 12.753906 -16.585938 L 12.273438 -16.828125 L 11.699219 -16.777344 L 11.3125 -16.828125 L 10.859375 -16.828125 L 10.332031 -16.753906 L 9.851562 -16.753906 L 9.371094 -16.804688 L 8.894531 -16.804688 L 8.339844 -16.730469 L 1.199219 -16.777344 L 0.671875 -16.539062 L 0.429688 -16.058594 L 0.40625 -13.664062 L 0.671875 -13.136719 L 1.152344 -12.894531 L 1.773438 -12.96875 L 3.90625 -12.945312 L 4.339844 -12.679688 L 4.578125 -12.226562 L 4.648438 -9.589844 L 4.578125 -8.84375 L 4.625 -8.390625 L 4.578125 -7.910156 L 4.578125 -6.953125 L 4.648438 -6.257812 L 4.554688 -5.535156 L 4.578125 -5.058594 L 4.554688 -4.554688 L 4.625 -3.09375 L 4.578125 -2.613281 Z M 4.601562 -0.742188 "/></g></g></g><g fill="#ffffff" fill-opacity="1"><g transform="translate(328.098196, 331.647048)"><g><path d="M 1.84375 -0.765625 L 2.011719 -0.238281 L 2.492188 0 L 2.949219 0.0234375 L 3.929688 -0.046875 L 4.433594 0 L 5.152344 0 L 5.898438 -0.238281 L 6.0625 -0.695312 L 6.113281 -1.199219 L 6.015625 -1.703125 L 6.089844 -2.734375 L 6.039062 -4.21875 L 6.257812 -4.699219 L 6.734375 -4.9375 L 7.167969 -4.9375 L 7.597656 -4.960938 L 8.199219 -4.769531 L 8.582031 -4.363281 L 9.203125 -3.523438 L 9.371094 -3.066406 L 10.042969 -1.871094 L 10.355469 -1.414062 L 10.570312 -1.007812 L 10.859375 -0.625 L 11.335938 -0.191406 L 11.9375 -0.046875 L 12.800781 0 L 13.328125 -0.046875 L 13.808594 0 L 14.765625 0 L 15.292969 -0.046875 L 15.796875 -0.167969 L 15.890625 -0.671875 L 15.582031 -1.269531 L 14.8125 -2.445312 L 14.597656 -2.851562 L 14.308594 -3.285156 L 14.070312 -3.714844 L 13.757812 -4.097656 L 13.039062 -5.34375 L 12.96875 -5.921875 L 13.230469 -6.425781 L 13.902344 -7.070312 L 14.191406 -7.480469 L 14.359375 -7.933594 L 14.621094 -8.367188 L 14.789062 -8.773438 L 15.054688 -9.683594 L 15.078125 -11.578125 L 14.957031 -12.03125 L 14.886719 -12.488281 L 14.765625 -12.96875 L 14.117188 -14.285156 L 13.78125 -14.644531 L 13.566406 -15.003906 L 12.367188 -15.917969 L 11.53125 -16.347656 L 9.539062 -16.753906 L 8.941406 -16.804688 L 8.246094 -16.777344 L 7.71875 -16.804688 L 7.238281 -16.753906 L 6.710938 -16.804688 L 6.304688 -16.753906 L 4.867188 -16.804688 L 4.410156 -16.730469 L 3.425781 -16.828125 L 2.972656 -16.753906 L 2.445312 -16.777344 L 1.988281 -16.5625 L 1.796875 -16.058594 L 1.726562 -9.347656 L 1.796875 -8.652344 L 1.796875 -7.453125 L 1.75 -6.953125 L 1.726562 -6.039062 L 1.796875 -5.511719 L 1.726562 -4.53125 L 1.820312 -3.140625 L 1.773438 -2.636719 Z M 6.734375 -8.820312 L 6.328125 -9.035156 L 6.089844 -9.539062 L 6.015625 -12.226562 L 6.304688 -12.703125 L 6.785156 -12.945312 L 7.167969 -12.96875 L 8.484375 -12.945312 L 9.589844 -12.800781 L 10.332031 -12.34375 L 10.570312 -11.984375 L 10.738281 -11.601562 L 10.785156 -10.90625 L 10.714844 -10.257812 L 10.523438 -9.78125 L 10.257812 -9.371094 L 9.972656 -9.085938 L 9.613281 -8.917969 L 7.742188 -8.75 L 7.261719 -8.820312 Z M 6.734375 -8.820312 "/></g></g></g><g fill="#ffffff" fill-opacity="1"><g transform="translate(344.705815, 331.647048)"><g><path d="M 0.3125 -0.648438 L 0.429688 -0.144531 L 0.910156 -0.0234375 L 3.019531 -0.0234375 L 3.644531 0.046875 L 4.195312 -0.191406 L 4.625 -0.625 L 5.035156 -1.4375 L 5.441406 -1.894531 L 6.015625 -2.132812 L 6.496094 -2.085938 L 7.839844 -2.109375 L 8.339844 -2.039062 L 8.894531 -2.109375 L 9.324219 -2.109375 L 9.828125 -2.0625 L 10.953125 -2.109375 L 11.746094 -1.84375 L 12.25 -1.460938 L 12.367188 -1.03125 L 12.632812 -0.597656 L 13.039062 -0.214844 L 13.664062 0.0234375 L 14.09375 -0.0234375 L 14.933594 0.046875 L 16.417969 0 L 16.851562 -0.144531 L 16.945312 -0.648438 L 16.804688 -1.246094 L 16.636719 -1.679688 L 16.324219 -2.085938 L 16.179688 -2.566406 L 15.941406 -2.925781 L 15.796875 -3.378906 L 15.390625 -4.242188 L 15.222656 -4.699219 L 14.980469 -5.105469 L 14.644531 -5.992188 L 14.382812 -6.375 L 14.191406 -6.855469 L 13.972656 -7.261719 L 13.808594 -7.742188 L 13.589844 -8.101562 L 13.445312 -8.582031 L 13.183594 -9.011719 L 12.992188 -9.421875 L 12.753906 -9.828125 L 12.632812 -10.28125 L 12.152344 -11.121094 L 12.007812 -11.578125 L 11.578125 -12.488281 L 11.457031 -12.871094 L 11.097656 -13.710938 L 10.617188 -14.597656 L 10.234375 -15.507812 L 10.019531 -15.867188 L 9.875 -16.324219 L 9.445312 -16.777344 L 8.628906 -16.996094 L 7.863281 -16.753906 L 7.40625 -16.324219 L 7.261719 -15.890625 L 6.230469 -13.734375 L 5.96875 -13.304688 L 4.625 -10.28125 L 4.507812 -9.875 L 4.242188 -9.445312 L 3.859375 -8.582031 L 3.5 -7.957031 L 3.332031 -7.503906 L 2.996094 -6.878906 L 2.851562 -6.375 L 2.636719 -5.992188 L 2.46875 -5.511719 L 1.796875 -4.265625 L 1.101562 -2.515625 L 0.816406 -2.132812 L 0.597656 -1.652344 Z M 7.71875 -5.921875 L 7.261719 -6.113281 L 7.191406 -6.589844 L 8.148438 -8.773438 L 8.367188 -9.15625 L 8.675781 -9.394531 L 8.964844 -9.203125 L 9.277344 -8.269531 L 9.539062 -7.863281 L 9.636719 -7.480469 L 9.875 -7 L 10.042969 -6.566406 L 9.996094 -6.136719 L 9.589844 -5.945312 Z M 7.71875 -5.921875 "/></g></g></g><g fill="#ffffff" fill-opacity="1"><g transform="translate(362.104278, 331.647048)"><g><path d="M 4.601562 -0.742188 L 4.792969 -0.238281 L 5.296875 0 L 5.753906 -0.046875 L 6.230469 0 L 6.6875 -0.046875 L 8.171875 -0.046875 L 8.652344 -0.238281 L 8.84375 -0.71875 L 8.820312 -1.175781 L 8.867188 -1.726562 L 8.84375 -2.683594 L 8.773438 -3.09375 L 8.84375 -3.59375 L 8.894531 -5.058594 L 8.84375 -5.488281 L 8.917969 -6.496094 L 8.820312 -11.265625 L 8.894531 -11.746094 L 8.84375 -12.273438 L 9.035156 -12.703125 L 9.5625 -12.917969 L 9.972656 -12.945312 L 10.449219 -12.917969 L 10.882812 -12.96875 L 12.199219 -12.945312 L 12.753906 -13.160156 L 12.992188 -13.640625 L 12.945312 -14.140625 L 12.992188 -16.109375 L 12.753906 -16.585938 L 12.273438 -16.828125 L 11.699219 -16.777344 L 11.3125 -16.828125 L 10.859375 -16.828125 L 10.332031 -16.753906 L 9.851562 -16.753906 L 9.371094 -16.804688 L 8.894531 -16.804688 L 8.339844 -16.730469 L 1.199219 -16.777344 L 0.671875 -16.539062 L 0.429688 -16.058594 L 0.40625 -13.664062 L 0.671875 -13.136719 L 1.152344 -12.894531 L 1.773438 -12.96875 L 3.90625 -12.945312 L 4.339844 -12.679688 L 4.578125 -12.226562 L 4.648438 -9.589844 L 4.578125 -8.84375 L 4.625 -8.390625 L 4.578125 -7.910156 L 4.578125 -6.953125 L 4.648438 -6.257812 L 4.554688 -5.535156 L 4.578125 -5.058594 L 4.554688 -4.554688 L 4.625 -3.09375 L 4.578125 -2.613281 Z M 4.601562 -0.742188 "/></g></g></g><g fill="#ffffff" fill-opacity="1"><g transform="translate(375.500616, 331.647048)"><g><path d="M 1.152344 -0.695312 L 1.390625 -0.191406 L 1.871094 -0.0234375 L 8.988281 0.0234375 L 9.445312 -0.214844 L 9.707031 -0.648438 L 9.707031 -1.175781 L 9.660156 -1.605469 L 9.730469 -3.066406 L 9.394531 -3.476562 L 7.789062 -3.980469 L 7.527344 -4.457031 L 7.574219 -6.425781 L 7.480469 -7.382812 L 7.574219 -8.390625 L 7.527344 -9.109375 L 7.574219 -9.851562 L 7.527344 -10.308594 L 7.574219 -10.785156 L 7.527344 -11.289062 L 7.527344 -12.296875 L 7.789062 -12.726562 L 8.246094 -12.992188 L 8.773438 -13.015625 L 9.226562 -13.28125 L 9.492188 -13.734375 L 9.492188 -15.148438 L 9.539062 -15.582031 L 9.492188 -16.058594 L 9.300781 -16.539062 L 8.535156 -16.753906 L 5.488281 -16.777344 L 4.960938 -16.730469 L 3.5 -16.753906 L 3.042969 -16.730469 L 2.109375 -16.777344 L 1.582031 -16.539062 L 1.316406 -16.035156 L 1.316406 -15.582031 L 1.269531 -15.171875 L 1.269531 -14.644531 L 1.316406 -14.167969 L 1.316406 -13.710938 L 1.558594 -13.253906 L 3.019531 -12.753906 L 3.332031 -12.320312 L 3.261719 -10.28125 L 3.285156 -9.875 L 3.355469 -9.324219 L 3.332031 -8.339844 L 3.285156 -7.863281 L 3.378906 -6.925781 L 3.261719 -6.449219 L 3.355469 -5.417969 L 3.308594 -4.480469 L 3.066406 -3.953125 L 1.484375 -3.453125 L 1.199219 -2.996094 L 1.152344 -2.539062 Z M 1.152344 -0.695312 "/></g></g></g><g fill="#ffffff" fill-opacity="1"><g transform="translate(386.380628, 331.647048)"><g><path d="M 8.964844 0.289062 L 10.308594 0.261719 L 11.746094 0.0703125 L 13.542969 -0.527344 L 14.335938 -0.957031 L 14.695312 -1.246094 L 15.148438 -1.460938 L 15.820312 -2.039062 L 16.132812 -2.46875 L 16.46875 -2.804688 L 17.523438 -4.410156 L 17.882812 -5.320312 L 18.074219 -6.230469 L 18.097656 -6.664062 L 18.21875 -7.144531 L 18.242188 -7.644531 L 18.335938 -8.339844 L 18.265625 -9.539062 L 18.097656 -10.523438 L 17.5 -12.320312 L 17.042969 -13.207031 L 16.515625 -13.925781 L 15.84375 -14.667969 L 15.148438 -15.269531 L 14.597656 -15.652344 L 13.878906 -15.964844 L 13.519531 -16.226562 L 11.671875 -16.804688 L 10.28125 -17.042969 L 9.636719 -17.066406 L 7.09375 -16.707031 L 5.296875 -16.035156 L 4.9375 -15.773438 L 4.507812 -15.554688 L 3.691406 -14.957031 L 2.515625 -13.589844 L 1.773438 -12.320312 L 1.414062 -11.410156 L 1.007812 -9.5625 L 0.933594 -7.621094 L 1.007812 -7.117188 L 1.125 -6.6875 L 1.175781 -6.230469 L 1.390625 -5.320312 L 2.492188 -3.140625 L 2.78125 -2.851562 L 3.09375 -2.46875 L 3.453125 -2.132812 L 3.714844 -1.820312 L 4.507812 -1.199219 L 6.375 -0.238281 L 7.070312 0 L 7.597656 0.046875 L 8.460938 0.238281 Z M 10.308594 -3.953125 L 8.988281 -3.953125 L 8.460938 -4.027344 L 7.597656 -4.386719 L 7.214844 -4.601562 L 6.566406 -5.128906 L 6.257812 -5.464844 L 5.921875 -5.921875 L 5.800781 -6.304688 L 5.585938 -6.734375 L 5.394531 -7.621094 L 5.394531 -9.085938 L 5.511719 -9.515625 L 5.585938 -9.972656 L 5.777344 -10.402344 L 5.921875 -10.835938 L 6.496094 -11.601562 L 7.695312 -12.417969 L 8.007812 -12.535156 L 8.941406 -12.777344 L 9.613281 -12.824219 L 10.761719 -12.679688 L 11.195312 -12.585938 L 11.625 -12.390625 L 12.367188 -11.863281 L 13.304688 -10.882812 L 13.589844 -9.972656 L 13.808594 -9.515625 L 13.878906 -9.085938 L 13.832031 -7.621094 L 13.640625 -6.734375 L 13.472656 -6.304688 L 13.207031 -5.871094 L 13.0625 -5.511719 L 12.726562 -5.128906 L 11.578125 -4.339844 L 11.144531 -4.21875 L 10.785156 -4.050781 Z M 10.308594 -3.953125 "/></g></g></g><g fill="#ffffff" fill-opacity="1"><g transform="translate(405.60043, 331.647048)"><g><path d="M 14.140625 -0.382812 L 14.835938 -0.0703125 L 15.460938 0.121094 L 16.011719 -0.144531 L 16.226562 -0.648438 L 16.347656 -7.167969 L 16.25 -7.839844 L 16.300781 -8.367188 L 16.203125 -11.242188 L 16.277344 -12.199219 L 16.226562 -12.65625 L 16.226562 -13.613281 L 16.324219 -14.09375 L 16.277344 -14.8125 L 16.324219 -16.058594 L 16.035156 -16.492188 L 15.507812 -16.730469 L 15.027344 -16.777344 L 14.574219 -16.777344 L 14.046875 -16.730469 L 13.542969 -16.804688 L 13.113281 -16.753906 L 12.632812 -16.777344 L 12.058594 -16.539062 L 11.816406 -16.035156 L 11.792969 -11.671875 L 11.890625 -11.171875 L 11.890625 -10.714844 L 11.792969 -10.210938 L 11.816406 -9.253906 L 11.699219 -8.867188 L 11.363281 -8.964844 L 10.308594 -10.042969 L 9.949219 -10.332031 L 9.109375 -11.195312 L 8.726562 -11.480469 L 8.460938 -11.816406 L 7.957031 -12.34375 L 7.214844 -12.96875 L 6.953125 -13.328125 L 6.496094 -13.640625 L 6.257812 -14 L 5.847656 -14.285156 L 5.535156 -14.695312 L 4.242188 -16.011719 L 3.285156 -16.660156 L 2.636719 -16.851562 L 2.0625 -16.5625 L 1.75 -16.109375 L 1.796875 -12.753906 L 1.75 -12.273438 L 1.820312 -11.289062 L 1.773438 -10.859375 L 1.796875 -10.355469 L 1.726562 -9.851562 L 1.820312 -6.425781 L 1.773438 -5.992188 L 1.773438 -5.535156 L 1.726562 -5.007812 L 1.726562 -4.554688 L 1.796875 -4.050781 L 1.773438 -3.066406 L 1.820312 -2.589844 L 1.75 -1.679688 L 1.820312 -1.199219 L 1.820312 -0.742188 L 2.039062 -0.214844 L 2.492188 0.046875 L 3.308594 0 L 4.507812 0.0703125 L 5.007812 0 L 5.5625 0.046875 L 6.039062 -0.191406 L 6.257812 -0.671875 L 6.183594 -1.152344 L 6.257812 -7.023438 L 6.160156 -7.527344 L 6.398438 -7.8125 L 6.710938 -7.742188 L 10.140625 -4.386719 L 10.523438 -4.074219 L 12.847656 -1.75 L 13.160156 -1.367188 L 13.542969 -1.054688 L 13.832031 -0.695312 Z M 14.140625 -0.382812 "/></g></g></g><g fill="#ffffff" fill-opacity="1"><g transform="translate(423.673811, 331.647048)"><g/></g></g></svg>