<svg xmlns="http://www.w3.org/2000/svg" xmlns:xlink="http://www.w3.org/1999/xlink" width="800" zoomAndPan="magnify" viewBox="0 0 600 374.999991" height="500" preserveAspectRatio="xMidYMid meet" version="1.0"><defs><g/><clipPath id="96277a5dbe"><path d="M 169.671875 37.5 L 430.671875 37.5 L 430.671875 298.5 L 169.671875 298.5 Z M 169.671875 37.5 " clip-rule="nonzero"/></clipPath><clipPath id="3df0bea173"><path d="M 371.460938 112.375 L 430.671875 112.375 L 430.671875 298.5 L 371.460938 298.5 Z M 371.460938 112.375 " clip-rule="nonzero"/></clipPath><clipPath id="fd67c380fe"><path d="M 300.175781 37.5 C 372.25 37.5 430.679688 95.929688 430.679688 168.007812 C 430.679688 240.082031 372.25 298.511719 300.175781 298.511719 C 228.101562 298.511719 169.671875 240.082031 169.671875 168.007812 C 169.671875 95.929688 228.101562 37.5 300.175781 37.5 Z M 300.175781 37.5 " clip-rule="nonzero"/></clipPath><clipPath id="ab04d7c239"><path d="M 262 149.015625 L 408.632812 149.015625 L 408.632812 298.5 L 262 298.5 Z M 262 149.015625 " clip-rule="nonzero"/></clipPath><clipPath id="64112aa7f2"><path d="M 300.175781 37.5 C 372.25 37.5 430.679688 95.929688 430.679688 168.007812 C 430.679688 240.082031 372.25 298.511719 300.175781 298.511719 C 228.101562 298.511719 169.671875 240.082031 169.671875 168.007812 C 169.671875 95.929688 228.101562 37.5 300.175781 37.5 Z M 300.175781 37.5 " clip-rule="nonzero"/></clipPath><clipPath id="4d0f818f4a"><path d="M 233 144 L 378.363281 144 L 378.363281 289 L 233 289 Z M 233 144 " clip-rule="nonzero"/></clipPath><clipPath id="bef7d0821a"><path d="M 300.175781 37.5 C 372.25 37.5 430.679688 95.929688 430.679688 168.007812 C 430.679688 240.082031 372.25 298.511719 300.175781 298.511719 C 228.101562 298.511719 169.671875 240.082031 169.671875 168.007812 C 169.671875 95.929688 228.101562 37.5 300.175781 37.5 Z M 300.175781 37.5 " clip-rule="nonzero"/></clipPath><clipPath id="96193cf15b"><path d="M 236.050781 163 L 382.082031 163 L 382.082031 298.5 L 236.050781 298.5 Z M 236.050781 163 " clip-rule="nonzero"/></clipPath><clipPath id="ead4b542c6"><path d="M 300.175781 37.5 C 372.25 37.5 430.679688 95.929688 430.679688 168.007812 C 430.679688 240.082031 372.25 298.511719 300.175781 298.511719 C 228.101562 298.511719 169.671875 240.082031 169.671875 168.007812 C 169.671875 95.929688 228.101562 37.5 300.175781 37.5 Z M 300.175781 37.5 " clip-rule="nonzero"/></clipPath><clipPath id="a7cfce8346"><path d="M 263.664062 199 L 413.945312 199 L 413.945312 298.5 L 263.664062 298.5 Z M 263.664062 199 " clip-rule="nonzero"/></clipPath><clipPath id="e31ca1afa3"><path d="M 300.175781 37.5 C 372.25 37.5 430.679688 95.929688 430.679688 168.007812 C 430.679688 240.082031 372.25 298.511719 300.175781 298.511719 C 228.101562 298.511719 169.671875 240.082031 169.671875 168.007812 C 169.671875 95.929688 228.101562 37.5 300.175781 37.5 Z M 300.175781 37.5 " clip-rule="nonzero"/></clipPath><clipPath id="bffd331d92"><path d="M 230.207031 178.222656 L 376 178.222656 L 376 298.5 L 230.207031 298.5 Z M 230.207031 178.222656 " clip-rule="nonzero"/></clipPath><clipPath id="b872d1f4ae"><path d="M 300.175781 37.5 C 372.25 37.5 430.679688 95.929688 430.679688 168.007812 C 430.679688 240.082031 372.25 298.511719 300.175781 298.511719 C 228.101562 298.511719 169.671875 240.082031 169.671875 168.007812 C 169.671875 95.929688 228.101562 37.5 300.175781 37.5 Z M 300.175781 37.5 " clip-rule="nonzero"/></clipPath><clipPath id="60e81ff84f"><path d="M 234.457031 199 L 384 199 L 384 298.5 L 234.457031 298.5 Z M 234.457031 199 " clip-rule="nonzero"/></clipPath><clipPath id="37cc160af8"><path d="M 300.175781 37.5 C 372.25 37.5 430.679688 95.929688 430.679688 168.007812 C 430.679688 240.082031 372.25 298.511719 300.175781 298.511719 C 228.101562 298.511719 169.671875 240.082031 169.671875 168.007812 C 169.671875 95.929688 228.101562 37.5 300.175781 37.5 Z M 300.175781 37.5 " clip-rule="nonzero"/></clipPath><clipPath id="da3403fa24"><path d="M 234 181.941406 L 380.488281 181.941406 L 380.488281 298.5 L 234 298.5 Z M 234 181.941406 " clip-rule="nonzero"/></clipPath><clipPath id="440f2e6499"><path d="M 300.175781 37.5 C 372.25 37.5 430.679688 95.929688 430.679688 168.007812 C 430.679688 240.082031 372.25 298.511719 300.175781 298.511719 C 228.101562 298.511719 169.671875 240.082031 169.671875 168.007812 C 169.671875 95.929688 228.101562 37.5 300.175781 37.5 Z M 300.175781 37.5 " clip-rule="nonzero"/></clipPath><clipPath id="df062ff515"><path d="M 235.519531 178 L 381 178 L 381 298.5 L 235.519531 298.5 Z M 235.519531 178 " clip-rule="nonzero"/></clipPath><clipPath id="5a208aeea9"><path d="M 300.175781 37.5 C 372.25 37.5 430.679688 95.929688 430.679688 168.007812 C 430.679688 240.082031 372.25 298.511719 300.175781 298.511719 C 228.101562 298.511719 169.671875 240.082031 169.671875 168.007812 C 169.671875 95.929688 228.101562 37.5 300.175781 37.5 Z M 300.175781 37.5 " clip-rule="nonzero"/></clipPath><clipPath id="67e9d2b206"><path d="M 234.457031 187.25 L 380.488281 187.25 L 380.488281 298.5 L 234.457031 298.5 Z M 234.457031 187.25 " clip-rule="nonzero"/></clipPath><clipPath id="150d6a6fd9"><path d="M 300.175781 37.5 C 372.25 37.5 430.679688 95.929688 430.679688 168.007812 C 430.679688 240.082031 372.25 298.511719 300.175781 298.511719 C 228.101562 298.511719 169.671875 240.082031 169.671875 168.007812 C 169.671875 95.929688 228.101562 37.5 300.175781 37.5 Z M 300.175781 37.5 " clip-rule="nonzero"/></clipPath><clipPath id="400bb8fdfa"><path d="M 232.332031 186.1875 L 379.425781 186.1875 L 379.425781 298.5 L 232.332031 298.5 Z M 232.332031 186.1875 " clip-rule="nonzero"/></clipPath><clipPath id="66486431f4"><path d="M 300.175781 37.5 C 372.25 37.5 430.679688 95.929688 430.679688 168.007812 C 430.679688 240.082031 372.25 298.511719 300.175781 298.511719 C 228.101562 298.511719 169.671875 240.082031 169.671875 168.007812 C 169.671875 95.929688 228.101562 37.5 300.175781 37.5 Z M 300.175781 37.5 " clip-rule="nonzero"/></clipPath><clipPath id="91fe372f49"><path d="M 234.988281 179.285156 L 381.550781 179.285156 L 381.550781 298.5 L 234.988281 298.5 Z M 234.988281 179.285156 " clip-rule="nonzero"/></clipPath><clipPath id="40532482d7"><path d="M 300.175781 37.5 C 372.25 37.5 430.679688 95.929688 430.679688 168.007812 C 430.679688 240.082031 372.25 298.511719 300.175781 298.511719 C 228.101562 298.511719 169.671875 240.082031 169.671875 168.007812 C 169.671875 95.929688 228.101562 37.5 300.175781 37.5 Z M 300.175781 37.5 " clip-rule="nonzero"/></clipPath><clipPath id="3fb05ed6e3"><path d="M 246.140625 199 L 395.359375 199 L 395.359375 298.5 L 246.140625 298.5 Z M 246.140625 199 " clip-rule="nonzero"/></clipPath><clipPath id="f07d177e16"><path d="M 300.175781 37.5 C 372.25 37.5 430.679688 95.929688 430.679688 168.007812 C 430.679688 240.082031 372.25 298.511719 300.175781 298.511719 C 228.101562 298.511719 169.671875 240.082031 169.671875 168.007812 C 169.671875 95.929688 228.101562 37.5 300.175781 37.5 Z M 300.175781 37.5 " clip-rule="nonzero"/></clipPath><clipPath id="fc273e318c"><path d="M 234.988281 178.222656 L 381 178.222656 L 381 298.5 L 234.988281 298.5 Z M 234.988281 178.222656 " clip-rule="nonzero"/></clipPath><clipPath id="f443b6f08f"><path d="M 300.175781 37.5 C 372.25 37.5 430.679688 95.929688 430.679688 168.007812 C 430.679688 240.082031 372.25 298.511719 300.175781 298.511719 C 228.101562 298.511719 169.671875 240.082031 169.671875 168.007812 C 169.671875 95.929688 228.101562 37.5 300.175781 37.5 Z M 300.175781 37.5 " clip-rule="nonzero"/></clipPath><clipPath id="cadec8b2a0"><path d="M 246.140625 226.546875 L 391.640625 226.546875 L 391.640625 298.5 L 246.140625 298.5 Z M 246.140625 226.546875 " clip-rule="nonzero"/></clipPath><clipPath id="a502ad102d"><path d="M 300.175781 37.5 C 372.25 37.5 430.679688 95.929688 430.679688 168.007812 C 430.679688 240.082031 372.25 298.511719 300.175781 298.511719 C 228.101562 298.511719 169.671875 240.082031 169.671875 168.007812 C 169.671875 95.929688 228.101562 37.5 300.175781 37.5 Z M 300.175781 37.5 " clip-rule="nonzero"/></clipPath><clipPath id="5647403ba2"><path d="M 245.609375 227.078125 L 391.109375 227.078125 L 391.109375 298.5 L 245.609375 298.5 Z M 245.609375 227.078125 " clip-rule="nonzero"/></clipPath><clipPath id="e91d994284"><path d="M 300.175781 37.5 C 372.25 37.5 430.679688 95.929688 430.679688 168.007812 C 430.679688 240.082031 372.25 298.511719 300.175781 298.511719 C 228.101562 298.511719 169.671875 240.082031 169.671875 168.007812 C 169.671875 95.929688 228.101562 37.5 300.175781 37.5 Z M 300.175781 37.5 " clip-rule="nonzero"/></clipPath><clipPath id="9ee37a3619"><path d="M 244.546875 227.078125 L 390.578125 227.078125 L 390.578125 298.5 L 244.546875 298.5 Z M 244.546875 227.078125 " clip-rule="nonzero"/></clipPath><clipPath id="c9c1a856f4"><path d="M 300.175781 37.5 C 372.25 37.5 430.679688 95.929688 430.679688 168.007812 C 430.679688 240.082031 372.25 298.511719 300.175781 298.511719 C 228.101562 298.511719 169.671875 240.082031 169.671875 168.007812 C 169.671875 95.929688 228.101562 37.5 300.175781 37.5 Z M 300.175781 37.5 " clip-rule="nonzero"/></clipPath><clipPath id="5aeea902d3"><path d="M 237.113281 227.078125 L 382.613281 227.078125 L 382.613281 298.5 L 237.113281 298.5 Z M 237.113281 227.078125 " clip-rule="nonzero"/></clipPath><clipPath id="c749f1eed3"><path d="M 300.175781 37.5 C 372.25 37.5 430.679688 95.929688 430.679688 168.007812 C 430.679688 240.082031 372.25 298.511719 300.175781 298.511719 C 228.101562 298.511719 169.671875 240.082031 169.671875 168.007812 C 169.671875 95.929688 228.101562 37.5 300.175781 37.5 Z M 300.175781 37.5 " clip-rule="nonzero"/></clipPath><clipPath id="38e9c3c5a4"><path d="M 229.144531 234 L 389.515625 234 L 389.515625 298.5 L 229.144531 298.5 Z M 229.144531 234 " clip-rule="nonzero"/></clipPath><clipPath id="158d4459bd"><path d="M 300.175781 37.5 C 372.25 37.5 430.679688 95.929688 430.679688 168.007812 C 430.679688 240.082031 372.25 298.511719 300.175781 298.511719 C 228.101562 298.511719 169.671875 240.082031 169.671875 168.007812 C 169.671875 95.929688 228.101562 37.5 300.175781 37.5 Z M 300.175781 37.5 " clip-rule="nonzero"/></clipPath><clipPath id="e36fa03204"><path d="M 256.230469 227.078125 L 402 227.078125 L 402 298.5 L 256.230469 298.5 Z M 256.230469 227.078125 " clip-rule="nonzero"/></clipPath><clipPath id="a1f28c57b1"><path d="M 300.175781 37.5 C 372.25 37.5 430.679688 95.929688 430.679688 168.007812 C 430.679688 240.082031 372.25 298.511719 300.175781 298.511719 C 228.101562 298.511719 169.671875 240.082031 169.671875 168.007812 C 169.671875 95.929688 228.101562 37.5 300.175781 37.5 Z M 300.175781 37.5 " clip-rule="nonzero"/></clipPath><clipPath id="6e45b2a472"><path d="M 232.332031 143.707031 L 378.363281 143.707031 L 378.363281 289 L 232.332031 289 Z M 232.332031 143.707031 " clip-rule="nonzero"/></clipPath><clipPath id="9a52eaf68b"><path d="M 300.175781 37.5 C 372.25 37.5 430.679688 95.929688 430.679688 168.007812 C 430.679688 240.082031 372.25 298.511719 300.175781 298.511719 C 228.101562 298.511719 169.671875 240.082031 169.671875 168.007812 C 169.671875 95.929688 228.101562 37.5 300.175781 37.5 Z M 300.175781 37.5 " clip-rule="nonzero"/></clipPath><clipPath id="58bc699a7e"><path d="M 237.113281 149.015625 L 384.738281 149.015625 L 384.738281 298.5 L 237.113281 298.5 Z M 237.113281 149.015625 " clip-rule="nonzero"/></clipPath><clipPath id="688f1f6bc9"><path d="M 300.175781 37.5 C 372.25 37.5 430.679688 95.929688 430.679688 168.007812 C 430.679688 240.082031 372.25 298.511719 300.175781 298.511719 C 228.101562 298.511719 169.671875 240.082031 169.671875 168.007812 C 169.671875 95.929688 228.101562 37.5 300.175781 37.5 Z M 300.175781 37.5 " clip-rule="nonzero"/></clipPath><clipPath id="593b9de19d"><path d="M 250 199 L 397.480469 199 L 397.480469 298.5 L 250 298.5 Z M 250 199 " clip-rule="nonzero"/></clipPath><clipPath id="31106f5ef3"><path d="M 300.175781 37.5 C 372.25 37.5 430.679688 95.929688 430.679688 168.007812 C 430.679688 240.082031 372.25 298.511719 300.175781 298.511719 C 228.101562 298.511719 169.671875 240.082031 169.671875 168.007812 C 169.671875 95.929688 228.101562 37.5 300.175781 37.5 Z M 300.175781 37.5 " clip-rule="nonzero"/></clipPath><clipPath id="e0155914d6"><path d="M 263.664062 199 L 410.226562 199 L 410.226562 298.5 L 263.664062 298.5 Z M 263.664062 199 " clip-rule="nonzero"/></clipPath><clipPath id="e013bb5470"><path d="M 300.175781 37.5 C 372.25 37.5 430.679688 95.929688 430.679688 168.007812 C 430.679688 240.082031 372.25 298.511719 300.175781 298.511719 C 228.101562 298.511719 169.671875 240.082031 169.671875 168.007812 C 169.671875 95.929688 228.101562 37.5 300.175781 37.5 Z M 300.175781 37.5 " clip-rule="nonzero"/></clipPath><clipPath id="831975f091"><path d="M 264.726562 227.078125 L 410.226562 227.078125 L 410.226562 298.5 L 264.726562 298.5 Z M 264.726562 227.078125 " clip-rule="nonzero"/></clipPath><clipPath id="0b5ffe763a"><path d="M 300.175781 37.5 C 372.25 37.5 430.679688 95.929688 430.679688 168.007812 C 430.679688 240.082031 372.25 298.511719 300.175781 298.511719 C 228.101562 298.511719 169.671875 240.082031 169.671875 168.007812 C 169.671875 95.929688 228.101562 37.5 300.175781 37.5 Z M 300.175781 37.5 " clip-rule="nonzero"/></clipPath><clipPath id="2ae362e29a"><path d="M 258 234 L 418.722656 234 L 418.722656 298.5 L 258 298.5 Z M 258 234 " clip-rule="nonzero"/></clipPath><clipPath id="d54cf4fa34"><path d="M 300.175781 37.5 C 372.25 37.5 430.679688 95.929688 430.679688 168.007812 C 430.679688 240.082031 372.25 298.511719 300.175781 298.511719 C 228.101562 298.511719 169.671875 240.082031 169.671875 168.007812 C 169.671875 95.929688 228.101562 37.5 300.175781 37.5 Z M 300.175781 37.5 " clip-rule="nonzero"/></clipPath><clipPath id="0ff7638d89"><path d="M 257.289062 233.980469 L 403 233.980469 L 403 298.5 L 257.289062 298.5 Z M 257.289062 233.980469 " clip-rule="nonzero"/></clipPath><clipPath id="a11efe77cb"><path d="M 300.175781 37.5 C 372.25 37.5 430.679688 95.929688 430.679688 168.007812 C 430.679688 240.082031 372.25 298.511719 300.175781 298.511719 C 228.101562 298.511719 169.671875 240.082031 169.671875 168.007812 C 169.671875 95.929688 228.101562 37.5 300.175781 37.5 Z M 300.175781 37.5 " clip-rule="nonzero"/></clipPath><clipPath id="0831e53673"><path d="M 265.257812 226.546875 L 410.226562 226.546875 L 410.226562 298.5 L 265.257812 298.5 Z M 265.257812 226.546875 " clip-rule="nonzero"/></clipPath><clipPath id="6efbc7ae45"><path d="M 300.175781 37.5 C 372.25 37.5 430.679688 95.929688 430.679688 168.007812 C 430.679688 240.082031 372.25 298.511719 300.175781 298.511719 C 228.101562 298.511719 169.671875 240.082031 169.671875 168.007812 C 169.671875 95.929688 228.101562 37.5 300.175781 37.5 Z M 300.175781 37.5 " clip-rule="nonzero"/></clipPath><clipPath id="0f4048676c"><path d="M 272.160156 231.855469 L 418.722656 231.855469 L 418.722656 298.5 L 272.160156 298.5 Z M 272.160156 231.855469 " clip-rule="nonzero"/></clipPath><clipPath id="32d0b7075c"><path d="M 300.175781 37.5 C 372.25 37.5 430.679688 95.929688 430.679688 168.007812 C 430.679688 240.082031 372.25 298.511719 300.175781 298.511719 C 228.101562 298.511719 169.671875 240.082031 169.671875 168.007812 C 169.671875 95.929688 228.101562 37.5 300.175781 37.5 Z M 300.175781 37.5 " clip-rule="nonzero"/></clipPath><clipPath id="45e50235cb"><path d="M 262.070312 158.574219 L 413.945312 158.574219 L 413.945312 298.5 L 262.070312 298.5 Z M 262.070312 158.574219 " clip-rule="nonzero"/></clipPath><clipPath id="02e89d5c62"><path d="M 300.175781 37.5 C 372.25 37.5 430.679688 95.929688 430.679688 168.007812 C 430.679688 240.082031 372.25 298.511719 300.175781 298.511719 C 228.101562 298.511719 169.671875 240.082031 169.671875 168.007812 C 169.671875 95.929688 228.101562 37.5 300.175781 37.5 Z M 300.175781 37.5 " clip-rule="nonzero"/></clipPath><clipPath id="c1955b4c83"><path d="M 261.007812 103 L 412.351562 103 L 412.351562 269 L 261.007812 269 Z M 261.007812 103 " clip-rule="nonzero"/></clipPath><clipPath id="b05349e42f"><path d="M 300.175781 37.5 C 372.25 37.5 430.679688 95.929688 430.679688 168.007812 C 430.679688 240.082031 372.25 298.511719 300.175781 298.511719 C 228.101562 298.511719 169.671875 240.082031 169.671875 168.007812 C 169.671875 95.929688 228.101562 37.5 300.175781 37.5 Z M 300.175781 37.5 " clip-rule="nonzero"/></clipPath><clipPath id="9487bbfbbd"><path d="M 267 123.527344 L 412.351562 123.527344 L 412.351562 270 L 267 270 Z M 267 123.527344 " clip-rule="nonzero"/></clipPath><clipPath id="078c3909cd"><path d="M 300.175781 37.5 C 372.25 37.5 430.679688 95.929688 430.679688 168.007812 C 430.679688 240.082031 372.25 298.511719 300.175781 298.511719 C 228.101562 298.511719 169.671875 240.082031 169.671875 168.007812 C 169.671875 95.929688 228.101562 37.5 300.175781 37.5 Z M 300.175781 37.5 " clip-rule="nonzero"/></clipPath><clipPath id="5eba097e74"><path d="M 267.378906 184.0625 L 430.671875 184.0625 L 430.671875 298.5 L 267.378906 298.5 Z M 267.378906 184.0625 " clip-rule="nonzero"/></clipPath><clipPath id="50e1fb586e"><path d="M 300.175781 37.5 C 372.25 37.5 430.679688 95.929688 430.679688 168.007812 C 430.679688 240.082031 372.25 298.511719 300.175781 298.511719 C 228.101562 298.511719 169.671875 240.082031 169.671875 168.007812 C 169.671875 95.929688 228.101562 37.5 300.175781 37.5 Z M 300.175781 37.5 " clip-rule="nonzero"/></clipPath><clipPath id="b4fb3608fb"><path d="M 228.613281 98.566406 L 371.992188 98.566406 L 371.992188 237.699219 L 228.613281 237.699219 Z M 228.613281 98.566406 " clip-rule="nonzero"/></clipPath><clipPath id="ad82e4dae8"><path d="M 300.175781 37.5 C 372.25 37.5 430.679688 95.929688 430.679688 168.007812 C 430.679688 240.082031 372.25 298.511719 300.175781 298.511719 C 228.101562 298.511719 169.671875 240.082031 169.671875 168.007812 C 169.671875 95.929688 228.101562 37.5 300.175781 37.5 Z M 300.175781 37.5 " clip-rule="nonzero"/></clipPath></defs><rect x="-60" width="720" fill="#ffffff" y="-37.499999" height="449.999989" fill-opacity="1"/><rect x="-60" width="720" fill="#fff700" y="-37.499999" height="449.999989" fill-opacity="1"/><g clip-path="url(#96277a5dbe)"><path fill="#66bb6a" d="M 300.175781 37.5 C 372.25 37.5 430.679688 95.929688 430.679688 168.007812 C 430.679688 240.082031 372.25 298.511719 300.175781 298.511719 C 228.101562 298.511719 169.671875 240.082031 169.671875 168.007812 C 169.671875 95.929688 228.101562 37.5 300.175781 37.5 " fill-opacity="1" fill-rule="evenodd"/></g><g clip-path="url(#3df0bea173)"><g clip-path="url(#fd67c380fe)"><path fill="#46a64a" d="M 371.546875 112.757812 L 516.308594 257.519531 L 516.308594 328.878906 L 371.546875 184.117188 L 371.546875 112.757812 " fill-opacity="1" fill-rule="evenodd"/></g></g><g clip-path="url(#ab04d7c239)"><g clip-path="url(#64112aa7f2)"><path fill="#46a64a" d="M 263.640625 149.152344 L 408.40625 293.914062 L 408.402344 293.9375 L 408.386719 294 L 408.363281 294.105469 L 408.335938 294.242188 L 408.296875 294.417969 L 408.25 294.625 L 408.199219 294.859375 L 408.144531 295.121094 L 408.082031 295.410156 L 408.019531 295.722656 L 407.949219 296.054688 L 407.878906 296.402344 L 407.804688 296.769531 L 407.730469 297.144531 L 407.65625 297.53125 L 407.578125 297.925781 L 407.429688 298.730469 L 407.355469 299.140625 L 407.285156 299.542969 L 407.214844 299.941406 L 407.148438 300.335938 L 407.089844 300.71875 L 407.035156 301.09375 L 406.984375 301.453125 L 406.941406 301.796875 L 406.902344 302.125 L 406.871094 302.429688 L 406.847656 302.710938 L 406.835938 302.96875 L 406.832031 303.195312 L 406.835938 303.394531 L 262.074219 158.628906 L 262.066406 158.429688 L 262.070312 158.203125 L 262.085938 157.945312 L 262.105469 157.664062 L 262.136719 157.359375 L 262.175781 157.035156 L 262.21875 156.6875 L 262.269531 156.328125 L 262.324219 155.957031 L 262.386719 155.570312 L 262.453125 155.179688 L 262.519531 154.777344 L 262.589844 154.375 L 262.664062 153.96875 L 262.738281 153.566406 L 262.816406 153.164062 L 262.890625 152.769531 L 262.964844 152.378906 L 263.039062 152.003906 L 263.117188 151.640625 L 263.1875 151.289062 L 263.253906 150.960938 L 263.320312 150.648438 L 263.378906 150.359375 L 263.4375 150.097656 L 263.488281 149.859375 L 263.53125 149.652344 L 263.570312 149.480469 L 263.625 149.234375 L 263.636719 149.171875 L 263.640625 149.152344 " fill-opacity="1" fill-rule="evenodd"/></g></g><g clip-path="url(#4d0f818f4a)"><g clip-path="url(#bef7d0821a)"><path fill="#46a64a" d="M 233.3125 144.230469 L 378.074219 288.996094 L 378.023438 288.976562 L 233.257812 144.214844 L 233.3125 144.230469 " fill-opacity="1" fill-rule="evenodd"/></g></g><g clip-path="url(#96193cf15b)"><g clip-path="url(#ead4b542c6)"><path fill="#46a64a" d="M 237.296875 163.273438 L 382.0625 308.039062 L 382.03125 308.300781 L 382.003906 308.589844 L 381.972656 308.90625 L 381.945312 309.246094 L 381.921875 309.605469 L 381.894531 309.988281 L 381.871094 310.386719 L 381.84375 310.808594 L 381.820312 311.246094 L 381.796875 311.695312 L 381.769531 312.160156 L 381.746094 312.640625 L 381.722656 313.132812 L 381.695312 313.632812 L 381.667969 314.144531 L 381.640625 314.664062 L 381.609375 315.1875 L 381.578125 315.71875 L 381.550781 316.253906 L 381.515625 316.789062 L 381.480469 317.328125 L 381.441406 317.867188 L 381.363281 318.9375 L 381.316406 319.46875 L 381.269531 319.992188 L 381.222656 320.511719 L 381.167969 321.023438 L 381.113281 321.527344 L 381.054688 322.019531 L 380.992188 322.5 L 380.925781 322.964844 L 236.164062 178.203125 L 236.226562 177.738281 L 236.289062 177.253906 L 236.347656 176.761719 L 236.402344 176.261719 L 236.457031 175.746094 L 236.507812 175.230469 L 236.554688 174.703125 L 236.597656 174.171875 L 236.636719 173.636719 L 236.679688 173.101562 L 236.75 172.023438 L 236.785156 171.488281 L 236.816406 170.953125 L 236.847656 170.421875 L 236.875 169.898438 L 236.902344 169.378906 L 236.929688 168.867188 L 236.957031 168.367188 L 236.984375 167.878906 L 237.007812 167.398438 L 237.03125 166.933594 L 237.058594 166.480469 L 237.082031 166.042969 L 237.105469 165.625 L 237.128906 165.222656 L 237.15625 164.84375 L 237.183594 164.480469 L 237.210938 164.144531 L 237.238281 163.828125 L 237.265625 163.539062 L 237.296875 163.273438 " fill-opacity="1" fill-rule="evenodd"/></g></g><g clip-path="url(#a7cfce8346)"><g clip-path="url(#e31ca1afa3)"><path fill="#46a64a" d="M 268.710938 199.191406 L 413.472656 343.953125 L 408.503906 343.953125 L 263.742188 199.191406 L 268.710938 199.191406 " fill-opacity="1" fill-rule="evenodd"/></g></g><g clip-path="url(#bffd331d92)"><g clip-path="url(#b872d1f4ae)"><path fill="#46a64a" d="M 230.976562 178.683594 L 375.742188 323.449219 L 375.402344 323.480469 L 230.636719 178.714844 L 230.976562 178.683594 " fill-opacity="1" fill-rule="evenodd"/></g></g><g clip-path="url(#60e81ff84f)"><g clip-path="url(#37cc160af8)"><path fill="#46a64a" d="M 238.996094 199.191406 L 383.761719 343.953125 L 379.585938 343.953125 L 234.824219 199.191406 L 238.996094 199.191406 " fill-opacity="1" fill-rule="evenodd"/></g></g><g clip-path="url(#da3403fa24)"><g clip-path="url(#440f2e6499)"><path fill="#46a64a" d="M 234.382812 181.988281 L 379.148438 326.753906 L 379.125 326.929688 L 379.109375 327.109375 L 379.097656 327.289062 L 379.085938 327.464844 L 379.078125 327.824219 L 379.078125 328.003906 L 379.082031 328.183594 L 379.097656 328.542969 L 379.128906 328.902344 L 379.152344 329.078125 L 379.199219 329.4375 L 379.230469 329.613281 L 379.261719 329.792969 L 379.339844 330.144531 L 379.382812 330.316406 L 379.476562 330.667969 L 379.527344 330.839844 L 379.582031 331.007812 L 379.640625 331.179688 L 379.699219 331.347656 L 379.761719 331.515625 L 379.828125 331.683594 L 379.96875 332.011719 L 380.046875 332.175781 L 380.121094 332.335938 L 235.359375 187.570312 L 235.28125 187.410156 L 235.132812 187.082031 L 235.0625 186.917969 L 234.875 186.414062 L 234.816406 186.246094 L 234.761719 186.074219 L 234.710938 185.902344 L 234.664062 185.726562 L 234.617188 185.554688 L 234.574219 185.378906 L 234.535156 185.203125 L 234.5 185.027344 L 234.46875 184.851562 L 234.410156 184.492188 L 234.386719 184.316406 L 234.363281 184.136719 L 234.347656 183.957031 L 234.335938 183.78125 L 234.324219 183.597656 L 234.316406 183.417969 L 234.3125 183.238281 L 234.3125 183.058594 L 234.316406 182.882812 L 234.320312 182.699219 L 234.332031 182.523438 L 234.34375 182.34375 L 234.363281 182.164062 L 234.382812 181.988281 " fill-opacity="1" fill-rule="evenodd"/></g></g><g clip-path="url(#df062ff515)"><g clip-path="url(#5a208aeea9)"><path fill="#46a64a" d="M 236.164062 178.203125 L 380.925781 322.964844 L 380.628906 322.996094 L 235.863281 178.230469 L 236.164062 178.203125 " fill-opacity="1" fill-rule="evenodd"/></g></g><g clip-path="url(#67e9d2b206)"><g clip-path="url(#150d6a6fd9)"><path fill="#46a64a" d="M 235.359375 187.570312 L 380.121094 332.335938 L 380.003906 332.359375 L 379.878906 332.378906 L 379.75 332.398438 L 379.628906 332.410156 L 379.511719 332.417969 L 379.402344 332.414062 L 379.308594 332.40625 L 379.230469 332.382812 L 234.46875 187.621094 L 234.542969 187.640625 L 234.640625 187.652344 L 234.746094 187.652344 L 234.863281 187.644531 L 234.988281 187.632812 L 235.113281 187.617188 L 235.238281 187.59375 L 235.359375 187.570312 " fill-opacity="1" fill-rule="evenodd"/></g></g><g clip-path="url(#400bb8fdfa)"><g clip-path="url(#66486431f4)"><path fill="#46a64a" d="M 234.46875 187.621094 L 379.230469 332.382812 L 378.832031 332.21875 L 378.460938 332.039062 L 378.121094 331.851562 L 377.808594 331.648438 L 377.519531 331.4375 L 377.257812 331.214844 L 232.492188 186.449219 L 232.753906 186.671875 L 233.042969 186.882812 L 233.355469 187.085938 L 233.695312 187.277344 L 234.066406 187.457031 L 234.46875 187.621094 " fill-opacity="1" fill-rule="evenodd"/></g></g><g clip-path="url(#91fe372f49)"><g clip-path="url(#40532482d7)"><path fill="#46a64a" d="M 234.988281 179.742188 L 379.753906 324.503906 L 379.851562 324.609375 L 379.949219 324.730469 L 380.046875 324.863281 L 380.144531 325.011719 L 380.242188 325.171875 L 380.339844 325.339844 L 380.433594 325.519531 L 380.527344 325.703125 L 380.617188 325.898438 L 380.707031 326.097656 L 380.789062 326.304688 L 380.867188 326.515625 L 380.941406 326.726562 L 381.011719 326.941406 L 381.074219 327.160156 L 381.128906 327.375 L 381.179688 327.589844 L 381.222656 327.800781 L 381.253906 328.011719 L 381.277344 328.214844 L 381.292969 328.414062 L 381.296875 328.609375 L 381.292969 328.792969 L 381.273438 328.972656 L 381.246094 329.140625 L 381.207031 329.296875 L 381.15625 329.441406 L 381.089844 329.574219 L 381.007812 329.691406 L 380.914062 329.796875 L 380.804688 329.882812 L 380.679688 329.953125 L 380.617188 329.964844 L 380.566406 329.9375 L 235.800781 185.171875 L 235.855469 185.199219 L 235.914062 185.191406 L 236.039062 185.121094 L 236.148438 185.03125 L 236.242188 184.929688 L 236.324219 184.808594 L 236.390625 184.675781 L 236.441406 184.53125 L 236.484375 184.375 L 236.511719 184.207031 L 236.527344 184.03125 L 236.53125 183.847656 L 236.527344 183.652344 L 236.511719 183.453125 L 236.488281 183.25 L 236.457031 183.035156 L 236.414062 182.824219 L 236.367188 182.609375 L 236.308594 182.394531 L 236.246094 182.179688 L 236.179688 181.964844 L 236.101562 181.75 L 236.023438 181.542969 L 235.941406 181.335938 L 235.855469 181.132812 L 235.765625 180.941406 L 235.667969 180.753906 L 235.574219 180.574219 L 235.480469 180.40625 L 235.382812 180.246094 L 235.28125 180.101562 L 235.183594 179.964844 L 235.085938 179.847656 L 234.988281 179.742188 " fill-opacity="1" fill-rule="evenodd"/></g></g><g clip-path="url(#3fb05ed6e3)"><g clip-path="url(#f07d177e16)"><path fill="#46a64a" d="M 250.253906 199.191406 L 395.015625 343.953125 L 394.875 344.816406 L 394.734375 345.675781 L 394.597656 346.535156 L 394.460938 347.398438 L 394.328125 348.257812 L 394.0625 349.984375 L 393.804688 351.710938 L 393.679688 352.574219 L 393.429688 354.304688 L 393.308594 355.171875 L 393.066406 356.902344 L 392.949219 357.765625 L 392.828125 358.628906 L 392.714844 359.496094 L 392.597656 360.363281 L 392.363281 362.09375 L 392.136719 363.824219 L 391.910156 365.550781 L 391.6875 367.28125 L 391.570312 368.144531 L 391.460938 369.007812 L 391.238281 370.730469 L 391.125 371.59375 L 246.363281 226.828125 L 246.476562 225.96875 L 246.585938 225.105469 L 247.03125 221.652344 L 247.148438 220.789062 L 247.257812 219.921875 L 247.714844 216.460938 L 247.949219 214.734375 L 248.183594 213 L 248.300781 212.136719 L 248.421875 211.269531 L 248.667969 209.539062 L 249.042969 206.949219 L 249.171875 206.085938 L 249.300781 205.21875 L 249.429688 204.355469 L 249.5625 203.496094 L 249.695312 202.632812 L 249.96875 200.910156 L 250.113281 200.050781 L 250.253906 199.191406 " fill-opacity="1" fill-rule="evenodd"/></g></g><g clip-path="url(#fc273e318c)"><g clip-path="url(#f443b6f08f)"><path fill="#46a64a" d="M 235.863281 178.230469 L 380.628906 322.996094 L 380.496094 323.175781 L 380.371094 323.355469 L 380.144531 323.730469 L 380.035156 323.917969 L 379.9375 324.113281 L 379.84375 324.308594 L 379.753906 324.503906 L 234.988281 179.742188 L 235.078125 179.542969 L 235.175781 179.347656 L 235.273438 179.15625 L 235.378906 178.964844 L 235.492188 178.777344 L 235.609375 178.59375 L 235.730469 178.410156 L 235.863281 178.230469 " fill-opacity="1" fill-rule="evenodd"/></g></g><g clip-path="url(#cadec8b2a0)"><g clip-path="url(#a502ad102d)"><path fill="#46a64a" d="M 246.363281 226.828125 L 391.125 371.59375 L 391.023438 372.371094 L 246.261719 227.609375 L 246.363281 226.828125 " fill-opacity="1" fill-rule="evenodd"/></g></g><g clip-path="url(#5647403ba2)"><g clip-path="url(#e91d994284)"><path fill="#46a64a" d="M 246.261719 227.609375 L 391.023438 372.371094 L 390.46875 372.367188 L 245.707031 227.605469 L 246.261719 227.609375 " fill-opacity="1" fill-rule="evenodd"/></g></g><g clip-path="url(#9ee37a3619)"><g clip-path="url(#c9c1a856f4)"><path fill="#46a64a" d="M 245.707031 227.605469 L 390.46875 372.367188 L 390.46875 372.761719 L 390.476562 373.140625 L 390.480469 373.511719 L 390.484375 373.867188 L 390.488281 374.210938 L 390.492188 374.539062 L 390.5 374.859375 L 390.503906 375.167969 L 390.507812 375.460938 L 390.511719 375.742188 L 390.507812 376.011719 L 390.507812 376.269531 L 390.5 376.515625 L 390.492188 376.75 L 390.480469 376.972656 L 390.464844 377.183594 L 390.445312 377.382812 L 390.417969 377.570312 L 390.390625 377.746094 L 390.355469 377.914062 L 390.3125 378.066406 L 390.265625 378.207031 L 390.210938 378.339844 L 390.148438 378.457031 L 390.078125 378.566406 L 390 378.664062 L 389.917969 378.75 L 389.820312 378.824219 L 389.71875 378.886719 L 389.605469 378.941406 L 389.484375 378.984375 L 389.347656 379.015625 L 244.585938 234.253906 L 244.71875 234.222656 L 244.839844 234.175781 L 244.953125 234.125 L 245.058594 234.0625 L 245.152344 233.984375 L 245.238281 233.898438 L 245.316406 233.800781 L 245.382812 233.695312 L 245.445312 233.574219 L 245.5 233.441406 L 245.546875 233.300781 L 245.589844 233.148438 L 245.625 232.984375 L 245.65625 232.808594 L 245.679688 232.621094 L 245.703125 232.421875 L 245.714844 232.210938 L 245.726562 231.988281 L 245.738281 231.753906 L 245.742188 231.507812 L 245.746094 231.25 L 245.746094 230.980469 L 245.742188 230.695312 L 245.738281 230.402344 L 245.734375 230.097656 L 245.730469 229.777344 L 245.722656 229.449219 L 245.71875 229.101562 L 245.714844 228.746094 L 245.710938 228.378906 L 245.707031 227.996094 L 245.707031 227.605469 " fill-opacity="1" fill-rule="evenodd"/></g></g><g clip-path="url(#5aeea902d3)"><g clip-path="url(#c749f1eed3)"><path fill="#46a64a" d="M 237.832031 227.53125 L 382.597656 372.296875 L 382.128906 372.292969 L 237.367188 227.527344 L 237.832031 227.53125 " fill-opacity="1" fill-rule="evenodd"/></g></g><g clip-path="url(#38e9c3c5a4)"><g clip-path="url(#158d4459bd)"><path fill="#46a64a" d="M 244.585938 234.253906 L 389.347656 379.015625 L 388.886719 379.109375 L 388.394531 379.214844 L 387.875 379.335938 L 387.332031 379.46875 L 386.765625 379.609375 L 386.179688 379.761719 L 385.578125 379.921875 L 384.960938 380.085938 L 384.335938 380.25 L 383.703125 380.417969 L 383.066406 380.589844 L 382.425781 380.753906 L 381.789062 380.917969 L 381.152344 381.074219 L 380.523438 381.222656 L 379.90625 381.363281 L 379.296875 381.496094 L 378.710938 381.613281 L 378.136719 381.71875 L 377.585938 381.804688 L 377.058594 381.875 L 376.558594 381.925781 L 376.085938 381.953125 L 375.648438 381.960938 L 375.246094 381.945312 L 374.882812 381.898438 L 374.558594 381.824219 L 374.28125 381.722656 L 374.050781 381.585938 L 229.285156 236.820312 L 229.515625 236.957031 L 229.796875 237.058594 L 230.117188 237.132812 L 230.480469 237.179688 L 230.882812 237.199219 L 231.324219 237.191406 L 231.792969 237.164062 L 232.296875 237.109375 L 232.820312 237.042969 L 233.375 236.953125 L 233.945312 236.847656 L 234.535156 236.730469 L 235.140625 236.601562 L 235.757812 236.460938 L 236.386719 236.308594 L 237.023438 236.152344 L 237.660156 235.988281 L 238.300781 235.824219 L 238.9375 235.65625 L 239.570312 235.488281 L 240.199219 235.320312 L 240.8125 235.15625 L 241.414062 234.996094 L 242 234.847656 L 242.566406 234.703125 L 243.113281 234.570312 L 243.632812 234.449219 L 244.121094 234.34375 L 244.585938 234.253906 " fill-opacity="1" fill-rule="evenodd"/></g></g><g clip-path="url(#e36fa03204)"><g clip-path="url(#a1f28c57b1)"><path fill="#46a64a" d="M 257.035156 227.605469 L 401.796875 372.367188 L 401.242188 372.371094 L 256.480469 227.609375 L 257.035156 227.605469 " fill-opacity="1" fill-rule="evenodd"/></g></g><g clip-path="url(#6e45b2a472)"><g clip-path="url(#9a52eaf68b)"><path fill="#46a64a" d="M 233.257812 144.214844 L 378.023438 288.976562 L 377.839844 288.894531 L 377.667969 288.796875 L 377.507812 288.683594 L 377.359375 288.558594 L 232.597656 143.792969 L 232.742188 143.917969 L 232.902344 144.035156 L 233.074219 144.128906 L 233.257812 144.214844 " fill-opacity="1" fill-rule="evenodd"/></g></g><g clip-path="url(#58bc699a7e)"><g clip-path="url(#688f1f6bc9)"><path fill="#46a64a" d="M 239.890625 149.152344 L 384.652344 293.914062 L 384.652344 293.933594 L 384.648438 293.980469 L 384.640625 294.0625 L 384.628906 294.171875 L 384.613281 294.316406 L 384.597656 294.488281 L 384.574219 294.691406 L 384.546875 294.921875 L 384.515625 295.183594 L 384.476562 295.472656 L 384.4375 295.789062 L 384.390625 296.132812 L 384.339844 296.503906 L 384.28125 296.902344 L 384.21875 297.328125 L 384.148438 297.777344 L 384.074219 298.25 L 383.90625 299.273438 L 383.808594 299.820312 L 383.707031 300.386719 L 383.597656 300.980469 L 383.480469 301.59375 L 383.359375 302.230469 L 383.226562 302.886719 L 383.085938 303.566406 L 382.9375 304.261719 L 382.777344 304.980469 L 382.613281 305.714844 L 382.4375 306.472656 L 382.257812 307.246094 L 382.0625 308.039062 L 237.296875 163.273438 L 237.492188 162.480469 L 237.675781 161.707031 L 237.851562 160.953125 L 238.015625 160.21875 L 238.171875 159.5 L 238.320312 158.800781 L 238.460938 158.125 L 238.59375 157.464844 L 238.71875 156.828125 L 238.835938 156.214844 L 238.941406 155.625 L 239.046875 155.054688 L 239.140625 154.507812 L 239.230469 153.984375 L 239.308594 153.484375 L 239.386719 153.011719 L 239.457031 152.5625 L 239.519531 152.140625 L 239.574219 151.742188 L 239.628906 151.371094 L 239.671875 151.027344 L 239.714844 150.707031 L 239.753906 150.421875 L 239.785156 150.160156 L 239.808594 149.925781 L 239.832031 149.722656 L 239.851562 149.550781 L 239.867188 149.40625 L 239.875 149.296875 L 239.886719 149.21875 L 239.890625 149.167969 L 239.890625 149.152344 " fill-opacity="1" fill-rule="evenodd"/></g></g><g clip-path="url(#593b9de19d)"><g clip-path="url(#31106f5ef3)"><path fill="#46a64a" d="M 252.488281 199.191406 L 397.25 343.953125 L 395.015625 343.953125 L 250.253906 199.191406 L 252.488281 199.191406 " fill-opacity="1" fill-rule="evenodd"/></g></g><g clip-path="url(#e0155914d6)"><g clip-path="url(#e013bb5470)"><path fill="#46a64a" d="M 263.742188 199.191406 L 408.503906 343.953125 L 408.566406 345.679688 L 408.597656 346.546875 L 408.632812 347.410156 L 408.671875 348.277344 L 408.710938 349.140625 L 408.75 350.007812 L 408.878906 352.609375 L 408.976562 354.34375 L 409.027344 355.214844 L 409.074219 356.082031 L 409.128906 356.949219 L 409.179688 357.816406 L 409.234375 358.6875 L 409.285156 359.554688 L 409.453125 362.15625 L 409.511719 363.023438 L 409.6875 365.613281 L 409.746094 366.480469 L 409.804688 367.339844 L 409.863281 368.203125 L 409.980469 369.921875 L 410.042969 370.78125 L 410.101562 371.640625 L 265.335938 226.875 L 265.277344 226.019531 L 265.21875 225.160156 L 265.097656 223.4375 L 265.039062 222.578125 L 264.921875 220.851562 L 264.804688 219.121094 L 264.75 218.257812 L 264.632812 216.523438 L 264.414062 213.054688 L 264.363281 212.1875 L 264.3125 211.316406 L 264.210938 209.582031 L 264.164062 208.710938 L 264.070312 206.980469 L 263.984375 205.246094 L 263.90625 203.511719 L 263.871094 202.644531 L 263.800781 200.917969 L 263.769531 200.050781 L 263.742188 199.191406 " fill-opacity="1" fill-rule="evenodd"/></g></g><g clip-path="url(#831975f091)"><g clip-path="url(#0b5ffe763a)"><path fill="#46a64a" d="M 265.371094 227.527344 L 410.136719 372.292969 L 409.671875 372.296875 L 264.90625 227.53125 L 265.371094 227.527344 " fill-opacity="1" fill-rule="evenodd"/></g></g><g clip-path="url(#2ae362e29a)"><g clip-path="url(#d54cf4fa34)"><path fill="#46a64a" d="M 273.835938 236.207031 L 418.601562 380.972656 L 418.527344 381.214844 L 418.398438 381.417969 L 418.21875 381.585938 L 417.988281 381.722656 L 417.707031 381.824219 L 417.386719 381.898438 L 417.023438 381.945312 L 416.617188 381.960938 L 416.179688 381.953125 L 415.707031 381.925781 L 415.210938 381.875 L 414.683594 381.804688 L 414.128906 381.71875 L 413.558594 381.613281 L 412.96875 381.496094 L 412.363281 381.363281 L 411.742188 381.222656 L 411.117188 381.074219 L 410.480469 380.917969 L 409.84375 380.753906 L 409.203125 380.589844 L 408.566406 380.417969 L 407.929688 380.25 L 407.304688 380.085938 L 406.691406 379.921875 L 406.089844 379.761719 L 405.503906 379.609375 L 404.9375 379.46875 L 404.390625 379.335938 L 403.871094 379.214844 L 403.378906 379.109375 L 402.917969 379.015625 L 258.15625 234.253906 L 258.617188 234.34375 L 259.109375 234.449219 L 259.625 234.570312 L 260.171875 234.703125 L 260.738281 234.847656 L 261.324219 234.996094 L 261.925781 235.15625 L 262.539062 235.320312 L 263.167969 235.488281 L 263.800781 235.65625 L 264.4375 235.824219 L 265.078125 235.988281 L 265.714844 236.152344 L 266.351562 236.308594 L 266.980469 236.460938 L 267.597656 236.601562 L 268.203125 236.730469 L 268.792969 236.847656 L 269.367188 236.953125 L 269.917969 237.042969 L 270.445312 237.109375 L 270.945312 237.164062 L 271.417969 237.191406 L 271.855469 237.199219 L 272.257812 237.179688 L 272.621094 237.132812 L 272.945312 237.058594 L 273.222656 236.957031 L 273.453125 236.820312 L 273.632812 236.652344 L 273.765625 236.449219 L 273.835938 236.207031 " fill-opacity="1" fill-rule="evenodd"/></g></g><g clip-path="url(#0ff7638d89)"><g clip-path="url(#a11efe77cb)"><path fill="#46a64a" d="M 258.15625 234.253906 L 402.917969 379.015625 L 402.785156 378.984375 L 402.660156 378.941406 L 402.550781 378.886719 L 402.445312 378.824219 L 402.351562 378.75 L 257.585938 233.984375 L 257.683594 234.0625 L 257.785156 234.125 L 257.898438 234.175781 L 258.019531 234.222656 L 258.15625 234.253906 " fill-opacity="1" fill-rule="evenodd"/></g></g><g clip-path="url(#0831e53673)"><g clip-path="url(#6efbc7ae45)"><path fill="#46a64a" d="M 265.335938 226.875 L 410.101562 371.640625 L 410.136719 372.292969 L 265.371094 227.527344 L 265.335938 226.875 " fill-opacity="1" fill-rule="evenodd"/></g></g><g clip-path="url(#0f4048676c)"><g clip-path="url(#32d0b7075c)"><path fill="#46a64a" d="M 272.171875 231.886719 L 416.9375 376.652344 L 417.242188 376.933594 L 417.527344 377.226562 L 417.785156 377.53125 L 418.011719 377.847656 L 418.21875 378.183594 L 418.386719 378.53125 L 418.519531 378.890625 L 418.621094 379.273438 L 418.675781 379.671875 L 418.699219 380.085938 L 418.671875 380.519531 L 418.601562 380.972656 L 273.835938 236.207031 L 273.90625 235.753906 L 273.933594 235.320312 L 273.914062 234.90625 L 273.855469 234.507812 L 273.757812 234.128906 L 273.621094 233.765625 L 273.453125 233.417969 L 273.25 233.085938 L 273.019531 232.765625 L 272.761719 232.460938 L 272.480469 232.167969 L 272.171875 231.886719 " fill-opacity="1" fill-rule="evenodd"/></g></g><g clip-path="url(#45e50235cb)"><g clip-path="url(#02e89d5c62)"><path fill="#46a64a" d="M 262.074219 158.628906 L 406.835938 303.394531 L 406.921875 304.53125 L 407.039062 305.722656 L 407.183594 306.964844 L 407.363281 308.253906 L 407.566406 309.582031 L 407.796875 310.949219 L 408.042969 312.34375 L 408.3125 313.769531 L 408.59375 315.214844 L 408.890625 316.679688 L 409.199219 318.15625 L 409.511719 319.640625 L 410.152344 322.617188 L 410.476562 324.101562 L 410.800781 325.574219 L 411.113281 327.03125 L 411.421875 328.46875 L 411.71875 329.882812 L 412.003906 331.269531 L 412.273438 332.621094 L 412.523438 333.9375 L 412.757812 335.207031 L 412.964844 336.429688 L 413.144531 337.601562 L 413.296875 338.71875 L 413.421875 339.769531 L 413.511719 340.757812 L 413.5625 341.675781 L 413.574219 342.515625 L 413.546875 343.277344 L 413.472656 343.953125 L 268.710938 199.191406 L 268.78125 198.515625 L 268.808594 197.753906 L 268.796875 196.910156 L 268.746094 195.992188 L 268.65625 195.003906 L 268.535156 193.953125 L 268.382812 192.839844 L 268.203125 191.664062 L 267.992188 190.441406 L 267.761719 189.171875 L 267.511719 187.859375 L 267.242188 186.503906 L 266.953125 185.121094 L 266.660156 183.707031 L 266.347656 182.265625 L 266.035156 180.8125 L 265.714844 179.339844 L 265.390625 177.855469 L 265.066406 176.367188 L 264.746094 174.875 L 264.433594 173.390625 L 264.125 171.914062 L 263.828125 170.449219 L 263.546875 169.003906 L 263.277344 167.582031 L 263.03125 166.183594 L 262.804688 164.816406 L 262.597656 163.492188 L 262.421875 162.199219 L 262.273438 160.957031 L 262.15625 159.765625 L 262.074219 158.628906 " fill-opacity="1" fill-rule="evenodd"/></g></g><g clip-path="url(#c1955b4c83)"><g clip-path="url(#b05349e42f)"><path fill="#46a64a" d="M 261.226562 103.085938 L 405.992188 247.847656 L 406.441406 248.34375 L 406.863281 248.871094 L 407.265625 249.421875 L 407.640625 250.003906 L 407.996094 250.609375 L 408.328125 251.242188 L 408.640625 251.898438 L 408.933594 252.578125 L 409.207031 253.28125 L 409.464844 254.003906 L 409.703125 254.746094 L 409.925781 255.511719 L 410.136719 256.292969 L 410.332031 257.09375 L 410.515625 257.90625 L 410.6875 258.738281 L 410.851562 259.582031 L 411.003906 260.441406 L 411.144531 261.3125 L 411.28125 262.195312 L 411.410156 263.089844 L 411.535156 263.992188 L 411.652344 264.902344 L 411.769531 265.820312 L 411.882812 266.746094 L 411.992188 267.675781 L 412.105469 268.609375 L 267.339844 123.847656 L 267.230469 122.910156 L 267.117188 121.980469 L 267.007812 121.054688 L 266.890625 120.140625 L 266.769531 119.226562 L 266.648438 118.324219 L 266.515625 117.433594 L 266.382812 116.546875 L 266.238281 115.679688 L 266.085938 114.820312 L 265.925781 113.972656 L 265.75 113.140625 L 265.570312 112.328125 L 265.371094 111.527344 L 265.164062 110.746094 L 264.9375 109.984375 L 264.699219 109.238281 L 264.441406 108.515625 L 264.167969 107.8125 L 263.875 107.132812 L 263.5625 106.476562 L 263.230469 105.84375 L 262.875 105.238281 L 262.5 104.660156 L 262.101562 104.105469 L 261.675781 103.578125 L 261.226562 103.085938 " fill-opacity="1" fill-rule="evenodd"/></g></g><g clip-path="url(#9487bbfbbd)"><g clip-path="url(#078c3909cd)"><path fill="#46a64a" d="M 267.339844 123.847656 L 412.105469 268.609375 L 412.121094 268.757812 L 412.140625 268.902344 L 412.15625 269.046875 L 412.175781 269.195312 L 412.191406 269.339844 L 412.210938 269.488281 L 412.226562 269.632812 L 412.246094 269.78125 L 267.480469 125.019531 L 267.464844 124.871094 L 267.445312 124.722656 L 267.429688 124.578125 L 267.410156 124.429688 L 267.390625 124.285156 L 267.375 124.136719 L 267.359375 123.992188 L 267.339844 123.847656 " fill-opacity="1" fill-rule="evenodd"/></g></g><g clip-path="url(#5eba097e74)"><g clip-path="url(#50e1fb586e)"><path fill="#46a64a" d="M 371.546875 184.117188 L 516.308594 328.878906 L 412.246094 328.878906 L 267.480469 184.117188 L 371.546875 184.117188 " fill-opacity="1" fill-rule="evenodd"/></g></g><g clip-path="url(#b4fb3608fb)"><g clip-path="url(#ad82e4dae8)"><path fill="#46a64a" d="M 267.480469 112.757812 L 371.546875 112.757812 L 371.546875 184.117188 L 267.480469 184.117188 L 267.480469 155.96875 C 264.929688 152.464844 263.640625 149.152344 263.640625 149.152344 C 263.640625 149.152344 261.957031 156.6875 262.074219 158.628906 C 262.769531 170.449219 269.726562 192.4375 268.710938 199.191406 L 263.742188 199.191406 C 264.039062 208.386719 264.710938 217.734375 265.335938 226.875 L 265.371094 227.527344 L 264.90625 227.53125 C 267.632812 229.796875 274.84375 231.265625 273.835938 236.207031 C 273.363281 238.984375 262.902344 235.132812 258.15625 234.253906 C 256.675781 233.96875 257.03125 231.871094 257.035156 227.605469 L 256.480469 227.609375 L 256.378906 226.828125 C 255.183594 217.640625 254.007812 208.355469 252.488281 199.191406 L 250.253906 199.191406 C 248.730469 208.355469 247.554688 217.640625 246.363281 226.828125 L 246.261719 227.609375 L 245.707031 227.605469 C 245.710938 231.871094 246.0625 233.96875 244.585938 234.253906 C 239.835938 235.132812 229.378906 238.984375 228.902344 236.207031 C 227.894531 231.265625 235.105469 229.796875 237.832031 227.53125 L 237.367188 227.527344 L 237.402344 226.875 C 238.027344 217.734375 238.699219 208.386719 238.996094 199.191406 L 234.824219 199.191406 C 233.804688 192.4375 240.765625 170.449219 241.460938 158.628906 C 241.574219 156.6875 239.890625 149.152344 239.890625 149.152344 C 239.890625 149.152344 239.410156 154.738281 237.296875 163.273438 C 236.964844 165.949219 236.882812 173.289062 236.164062 178.203125 L 235.863281 178.230469 C 235.507812 178.707031 235.21875 179.210938 234.988281 179.742188 C 236.011719 180.789062 237.332031 184.527344 235.914062 185.191406 C 235.558594 185.355469 235.695312 183.757812 234.382812 181.988281 C 234.144531 183.882812 234.519531 185.863281 235.359375 187.570312 C 235.046875 187.636719 234.644531 187.691406 234.46875 187.621094 C 230.03125 185.914062 230.945312 182.054688 230.976562 178.683594 L 230.636719 178.714844 C 229.757812 173.105469 229.9375 163.707031 230.074219 161.707031 C 231.09375 154.59375 232.007812 148.421875 233.3125 144.230469 L 233.257812 144.214844 C 232.25 143.816406 231.714844 142.699219 232.050781 141.65625 C 232.066406 141.621094 236.082031 129.429688 235.078125 120.007812 C 235.027344 119.546875 234.988281 119.089844 234.960938 118.644531 C 234.660156 113.742188 235.648438 109.722656 237.453125 106.820312 C 239.261719 103.914062 241.875 102.105469 244.859375 101.597656 C 246.257812 99.722656 250.058594 96.671875 258.558594 101.085938 C 265.042969 104.453125 266.160156 113.859375 267.339844 123.847656 C 267.386719 124.234375 267.433594 124.625 267.480469 125.019531 L 267.480469 112.757812 " fill-opacity="1" fill-rule="evenodd"/></g></g><path fill="#526d74" d="M 264.636719 227.292969 C 267.121094 229.699219 274.878906 231.089844 273.835938 236.207031 C 273.363281 238.984375 262.902344 235.132812 258.15625 234.253906 C 256.640625 233.960938 257.046875 231.769531 257.035156 227.296875 C 259.492188 227.273438 262.175781 227.292969 264.636719 227.292969 " fill-opacity="1" fill-rule="evenodd"/><path fill="#526d74" d="M 238.101562 227.292969 C 235.621094 229.699219 227.859375 231.089844 228.902344 236.207031 C 229.378906 238.984375 239.835938 235.132812 244.585938 234.253906 C 246.097656 233.960938 245.691406 231.769531 245.707031 227.296875 C 243.246094 227.273438 240.5625 227.292969 238.101562 227.292969 " fill-opacity="1" fill-rule="evenodd"/><path fill="#ff9800" d="M 267.480469 184.117188 L 371.546875 184.117188 L 371.546875 112.757812 L 267.480469 112.757812 L 267.480469 184.117188 " fill-opacity="1" fill-rule="evenodd"/><path fill="#424242" d="M 271.195312 180.398438 L 367.828125 180.398438 L 367.828125 116.472656 L 271.195312 116.472656 L 271.195312 180.398438 " fill-opacity="1" fill-rule="evenodd"/><path stroke-linecap="butt" transform="matrix(0.0531027, 0, 0, -0.0531027, 169.67109, 298.510586)" fill="none" stroke-linejoin="miter" d="M 2234.995301 3162.038777 L 3408.575233 3162.038777 " stroke="#ffffff" stroke-width="47.999001" stroke-opacity="1" stroke-miterlimit="2.613"/><path stroke-linecap="butt" transform="matrix(0.0531027, 0, 0, -0.0531027, 169.67109, 298.510586)" fill="none" stroke-linejoin="miter" d="M 2234.995301 2938.121433 L 3408.575233 2938.121433 " stroke="#ffffff" stroke-width="47.999001" stroke-opacity="1" stroke-miterlimit="2.613"/><path stroke-linecap="butt" transform="matrix(0.0531027, 0, 0, -0.0531027, 169.67109, 298.510586)" fill="none" stroke-linejoin="miter" d="M 2234.995301 2714.130528 L 3408.575233 2714.130528 " stroke="#ffffff" stroke-width="47.999001" stroke-opacity="1" stroke-miterlimit="2.613"/><path stroke-linecap="butt" transform="matrix(0.0531027, 0, 0, -0.0531027, 169.67109, 298.510586)" fill="none" stroke-linejoin="miter" d="M 2234.995301 2490.139623 L 3408.575233 2490.139623 " stroke="#ffffff" stroke-width="47.999001" stroke-opacity="1" stroke-miterlimit="2.613"/><path fill="#ef5350" d="M 239.050781 197.398438 C 238.789062 207.167969 238.070312 217.140625 237.402344 226.875 L 237.367188 227.527344 L 246.261719 227.609375 L 246.363281 226.828125 C 247.632812 217.042969 248.886719 207.144531 250.554688 197.398438 L 239.050781 197.398438 " fill-opacity="1" fill-rule="evenodd"/><path fill="#ef5350" d="M 263.6875 197.398438 C 263.949219 207.167969 264.667969 217.140625 265.335938 226.875 L 265.371094 227.527344 L 256.480469 227.609375 L 256.378906 226.828125 C 255.105469 217.042969 253.855469 207.144531 252.1875 197.398438 L 263.6875 197.398438 " fill-opacity="1" fill-rule="evenodd"/><path fill="#f2ba91" d="M 301.238281 147.648438 C 299.089844 150.257812 295.53125 151.882812 292.121094 150.929688 L 294.367188 155.5625 C 297.519531 154.019531 301.9375 153.484375 301.648438 148.4375 C 301.640625 148.25 301.425781 147.902344 301.238281 147.648438 " fill-opacity="1" fill-rule="evenodd"/><path fill="#f2ba91" d="M 295.644531 153.683594 C 295.644531 153.683594 294.050781 152.773438 294.167969 151.527344 C 294.277344 150.351562 297.550781 147.011719 298.839844 148.121094 C 299.246094 148.46875 296.21875 149.351562 295.644531 153.683594 " fill-opacity="1" fill-rule="evenodd"/><path fill="#f2ba91" d="M 235.359375 187.570312 C 233.867188 184.539062 233.84375 180.628906 236.117188 177.910156 L 230.972656 178.050781 C 231.082031 181.558594 229.75 185.808594 234.46875 187.621094 C 234.644531 187.691406 235.046875 187.636719 235.359375 187.570312 " fill-opacity="1" fill-rule="evenodd"/><path fill="#f2ba91" d="M 232.15625 179.988281 C 232.15625 179.988281 233.644531 178.914062 234.730469 179.53125 C 235.757812 180.113281 237.453125 184.472656 235.914062 185.191406 C 235.425781 185.417969 235.871094 182.292969 232.15625 179.988281 " fill-opacity="1" fill-rule="evenodd"/><path fill="#424242" d="M 232.050781 141.65625 C 231.714844 142.699219 232.25 143.816406 233.257812 144.214844 C 233.296875 144.226562 233.335938 144.242188 233.375 144.253906 C 233.917969 144.429688 244.753906 148.332031 252.738281 153.171875 C 261 150.414062 269.691406 145.058594 270.207031 144.820312 C 270.320312 144.773438 270.421875 144.710938 270.519531 144.644531 C 271.328125 144.085938 271.644531 143.007812 271.21875 142.085938 C 268.914062 137.105469 268.109375 130.34375 267.339844 123.847656 C 266.160156 113.859375 265.042969 104.453125 258.558594 101.085938 C 250.058594 96.671875 246.257812 99.722656 244.859375 101.597656 C 241.875 102.105469 239.261719 103.914062 237.453125 106.820312 C 235.648438 109.722656 234.660156 113.742188 234.960938 118.644531 C 234.988281 119.089844 235.027344 119.546875 235.078125 120.007812 C 236.082031 129.429688 232.066406 141.621094 232.050781 141.65625 " fill-opacity="1" fill-rule="evenodd"/><path fill="#f2ba91" d="M 246.816406 128.136719 L 255.164062 128.136719 L 258.480469 139.699219 L 243.5 139.699219 L 246.816406 128.136719 " fill-opacity="1" fill-rule="evenodd"/><path fill="#ffd3b3" d="M 240.175781 113.707031 C 238.082031 120.238281 242.953125 132.019531 250.164062 132.949219 C 258.933594 132.949219 262.421875 116.710938 259.792969 110.890625 C 259.792969 110.890625 252.292969 110.132812 247.59375 106.871094 C 247.59375 106.871094 243.945312 113.265625 240.175781 113.707031 " fill-opacity="1" fill-rule="evenodd"/><path fill="#e53935" d="M 233.953125 142.414062 C 232.292969 146.511719 231.25 153.480469 230.074219 161.707031 C 229.9375 163.707031 229.757812 173.105469 230.636719 178.714844 L 236.164062 178.203125 C 236.882812 173.289062 236.964844 165.949219 237.296875 163.273438 C 239.410156 154.738281 239.890625 149.152344 239.890625 149.152344 C 239.890625 149.152344 241.574219 156.6875 241.460938 158.628906 C 240.765625 170.449219 233.804688 192.4375 234.824219 199.191406 L 268.710938 199.191406 C 269.726562 192.4375 262.769531 170.449219 262.074219 158.628906 C 261.957031 156.6875 263.640625 149.152344 263.640625 149.152344 C 263.640625 149.152344 267.214844 158.339844 274.246094 162.304688 C 280.171875 161.117188 288.503906 158.738281 294.933594 155.757812 L 292.320312 150.582031 C 292.320312 150.582031 280.574219 153.640625 275.941406 154.242188 C 272.617188 146.421875 272.011719 145.726562 269.582031 142.414062 C 263.695312 134.390625 238.101562 132.183594 233.953125 142.414062 " fill-opacity="1" fill-rule="evenodd"/><path fill="#f2ba91" d="M 257.410156 135.957031 L 246.992188 134.535156 L 244.578125 135.933594 L 251.140625 145.921875 L 257.515625 136.328125 L 257.410156 135.957031 " fill-opacity="1" fill-rule="evenodd"/><g fill="#424040" fill-opacity="1"><g transform="translate(126.653979, 344.803597)"><g><path d="M 1.75 -0.671875 L 1.988281 -0.214844 L 2.730469 0.046875 L 5.367188 0.0234375 L 5.847656 -0.214844 L 6.160156 -0.957031 L 6.136719 -1.703125 L 6.183594 -2.203125 L 6.113281 -3.234375 L 6.136719 -3.691406 L 6.113281 -4.144531 L 6.160156 -4.648438 L 6.375 -5.152344 L 7.09375 -5.390625 L 10.832031 -5.417969 L 11.289062 -5.632812 L 11.550781 -6.113281 L 11.527344 -6.640625 L 11.574219 -8.078125 L 11.503906 -8.53125 L 11.265625 -9.035156 L 10.546875 -9.273438 L 6.902344 -9.273438 L 6.351562 -9.46875 L 6.085938 -9.898438 L 6.085938 -11.3125 L 6.160156 -11.816406 L 6.136719 -12.222656 L 6.375 -12.703125 L 7.070312 -12.941406 L 7.765625 -12.917969 L 8.460938 -12.964844 L 9.632812 -12.894531 L 10.113281 -12.941406 L 11.097656 -12.894531 L 11.574219 -12.964844 L 12.03125 -13.183594 L 12.199219 -13.660156 L 12.199219 -14.117188 L 12.246094 -14.597656 L 12.199219 -15.050781 L 12.246094 -15.554688 L 12.199219 -16.058594 L 11.960938 -16.511719 L 11.527344 -16.730469 L 10.953125 -16.800781 L 10.089844 -16.730469 L 9.585938 -16.753906 L 9.082031 -16.730469 L 8.628906 -16.777344 L 8.171875 -16.730469 L 2.445312 -16.730469 L 1.988281 -16.488281 L 1.726562 -16.035156 L 1.820312 -13.15625 L 1.773438 -12.703125 L 1.75 -9.300781 L 1.820312 -8.867188 L 1.773438 -8.414062 L 1.773438 -7.933594 L 1.726562 -7.40625 L 1.820312 -6.664062 L 1.75 -1.703125 L 1.796875 -1.152344 Z M 1.75 -0.671875 "/></g></g></g><g fill="#424040" fill-opacity="1"><g transform="translate(139.714889, 344.803597)"><g><path d="M 0.3125 -0.648438 L 0.429688 -0.144531 L 0.910156 -0.0234375 L 3.019531 -0.0234375 L 3.644531 0.046875 L 4.195312 -0.191406 L 4.625 -0.625 L 5.03125 -1.4375 L 5.441406 -1.894531 L 6.015625 -2.132812 L 6.496094 -2.085938 L 7.835938 -2.109375 L 8.339844 -2.039062 L 8.890625 -2.109375 L 9.324219 -2.109375 L 9.828125 -2.0625 L 10.953125 -2.109375 L 11.742188 -1.84375 L 12.246094 -1.460938 L 12.367188 -1.03125 L 12.628906 -0.597656 L 13.039062 -0.214844 L 13.660156 0.0234375 L 14.09375 -0.0234375 L 14.929688 0.046875 L 16.417969 0 L 16.847656 -0.144531 L 16.945312 -0.648438 L 16.800781 -1.246094 L 16.632812 -1.675781 L 16.320312 -2.085938 L 16.175781 -2.566406 L 15.9375 -2.925781 L 15.792969 -3.378906 L 15.386719 -4.242188 L 15.21875 -4.699219 L 14.980469 -5.105469 L 14.644531 -5.992188 L 14.378906 -6.375 L 14.1875 -6.855469 L 13.972656 -7.261719 L 13.804688 -7.742188 L 13.589844 -8.101562 L 13.445312 -8.582031 L 13.183594 -9.011719 L 12.988281 -9.417969 L 12.75 -9.828125 L 12.628906 -10.28125 L 12.152344 -11.121094 L 12.007812 -11.574219 L 11.574219 -12.488281 L 11.457031 -12.871094 L 11.097656 -13.710938 L 10.617188 -14.597656 L 10.234375 -15.507812 L 10.019531 -15.867188 L 9.875 -16.320312 L 9.441406 -16.777344 L 8.628906 -16.992188 L 7.859375 -16.753906 L 7.40625 -16.320312 L 7.261719 -15.890625 L 6.230469 -13.734375 L 5.96875 -13.300781 L 4.625 -10.28125 L 4.503906 -9.875 L 4.242188 -9.441406 L 3.859375 -8.582031 L 3.5 -7.957031 L 3.332031 -7.5 L 2.996094 -6.878906 L 2.851562 -6.375 L 2.636719 -5.992188 L 2.46875 -5.511719 L 1.796875 -4.265625 L 1.101562 -2.515625 L 0.816406 -2.132812 L 0.597656 -1.652344 Z M 7.71875 -5.917969 L 7.261719 -6.113281 L 7.191406 -6.589844 L 8.148438 -8.773438 L 8.363281 -9.15625 L 8.675781 -9.394531 L 8.964844 -9.203125 L 9.273438 -8.269531 L 9.539062 -7.859375 L 9.632812 -7.476562 L 9.875 -7 L 10.042969 -6.566406 L 9.996094 -6.136719 L 9.585938 -5.945312 Z M 7.71875 -5.917969 "/></g></g></g><g fill="#424040" fill-opacity="1"><g transform="translate(157.113469, 344.803597)"><g><path d="M 8.820312 0.238281 L 10.257812 0.3125 L 12.582031 -0.167969 L 13.902344 -0.742188 L 14.261719 -0.984375 L 14.691406 -1.246094 L 15.097656 -1.535156 L 15.410156 -1.84375 L 15.675781 -2.253906 L 16.082031 -2.566406 L 16.800781 -3.8125 L 17.015625 -4.242188 L 17.136719 -4.699219 L 17.304688 -5.175781 L 17.375 -5.632812 L 17.230469 -6.0625 L 16.632812 -6.328125 L 14.070312 -6.351562 L 13.542969 -6.113281 L 13.0625 -5.65625 L 12.871094 -5.25 L 11.960938 -4.265625 L 11.144531 -3.859375 L 10.664062 -3.714844 L 10.160156 -3.667969 L 8.820312 -3.691406 L 7.527344 -4.171875 L 7.070312 -4.386719 L 6.757812 -4.722656 L 5.871094 -5.871094 L 5.679688 -6.28125 L 5.390625 -7.214844 L 5.320312 -8.339844 L 5.34375 -9.109375 L 5.511719 -9.539062 L 5.535156 -10.019531 L 5.679688 -10.449219 L 6.085938 -11.3125 L 6.6875 -12.054688 L 7.476562 -12.628906 L 7.933594 -12.824219 L 8.773438 -13.0625 L 10.257812 -13.015625 L 11.167969 -12.847656 L 11.671875 -12.679688 L 12.367188 -12.101562 L 12.726562 -11.71875 L 12.941406 -11.3125 L 13.375 -10.855469 L 13.902344 -10.640625 L 16.320312 -10.59375 L 16.800781 -10.640625 L 17.183594 -10.855469 L 17.328125 -11.359375 L 17.136719 -11.839844 L 17.066406 -12.269531 L 16.679688 -13.183594 L 15.792969 -14.402344 L 14.546875 -15.53125 L 14.019531 -15.890625 L 12.65625 -16.511719 L 11.71875 -16.777344 L 10.523438 -16.945312 L 8.339844 -16.945312 L 7.933594 -16.898438 L 7.476562 -16.753906 L 6.542969 -16.5625 L 6.085938 -16.394531 L 5.726562 -16.175781 L 5.296875 -16.011719 L 3.617188 -14.929688 L 3.332031 -14.546875 L 2.683594 -13.949219 L 2.398438 -13.542969 L 1.292969 -11.382812 L 0.863281 -8.386719 L 0.957031 -7.621094 L 0.957031 -6.664062 L 1.199219 -5.726562 L 1.390625 -5.273438 L 1.460938 -4.839844 L 1.703125 -4.410156 L 1.871094 -4.003906 L 2.828125 -2.613281 L 3.691406 -1.773438 L 4.097656 -1.511719 L 4.457031 -1.222656 L 6.085938 -0.335938 L 6.566406 -0.167969 L 6.925781 -0.0703125 L 7.429688 0.0976562 L 7.933594 0.144531 L 8.363281 0.238281 Z M 8.820312 0.238281 "/></g></g></g><g fill="#424040" fill-opacity="1"><g transform="translate(175.398748, 344.803597)"><g><path d="M 7.070312 0.191406 L 8.21875 0.289062 L 9.417969 0.238281 L 10.378906 0.0234375 L 10.882812 -0.167969 L 11.359375 -0.289062 L 11.742188 -0.527344 L 12.175781 -0.71875 L 12.558594 -0.984375 L 13.636719 -1.941406 L 13.902344 -2.371094 L 14.210938 -2.730469 L 14.355469 -3.210938 L 14.597656 -3.617188 L 14.761719 -4.074219 L 14.929688 -6.496094 L 14.859375 -8.4375 L 14.957031 -8.941406 L 14.957031 -9.371094 L 14.859375 -9.851562 L 14.835938 -10.304688 L 14.882812 -10.808594 L 14.859375 -11.480469 L 14.90625 -12.222656 L 14.882812 -12.75 L 14.957031 -13.207031 L 14.882812 -13.683594 L 14.90625 -15.625 L 14.835938 -16.035156 L 14.644531 -16.5625 L 13.875 -16.777344 L 11.625 -16.800781 L 11.097656 -16.585938 L 10.855469 -16.058594 L 10.882812 -13.710938 L 10.832031 -13.230469 L 10.855469 -12.296875 L 10.808594 -11.792969 L 10.882812 -11.289062 L 10.808594 -9.394531 L 10.90625 -8.964844 L 10.855469 -8.4375 L 10.882812 -7.574219 L 10.832031 -7.09375 L 10.855469 -5.871094 L 10.761719 -5.105469 L 10.546875 -4.648438 L 10.328125 -4.3125 L 9.945312 -3.953125 L 8.988281 -3.644531 L 8.339844 -3.59375 L 7.550781 -3.644531 L 7.117188 -3.761719 L 6.589844 -4.027344 L 6.230469 -4.339844 L 5.945312 -4.671875 L 5.800781 -5.175781 L 5.753906 -9.394531 L 5.679688 -9.875 L 5.65625 -11.359375 L 5.703125 -11.792969 L 5.703125 -13.710938 L 5.632812 -14.402344 L 5.632812 -14.859375 L 5.753906 -15.578125 L 5.753906 -16.082031 L 5.488281 -16.539062 L 4.914062 -16.753906 L 2.398438 -16.777344 L 1.917969 -16.511719 L 1.703125 -16.035156 L 1.703125 -14.597656 L 1.582031 -14.1875 L 1.675781 -13.183594 L 1.605469 -12.269531 L 1.726562 -10.832031 L 1.628906 -10.378906 L 1.703125 -9.851562 L 1.652344 -9.394531 L 1.675781 -8.914062 L 1.628906 -8.460938 L 1.703125 -7.5 L 1.675781 -5.777344 L 1.75 -5.082031 L 1.75 -4.578125 L 1.894531 -4.097656 L 1.964844 -3.644531 L 2.109375 -3.1875 L 2.589844 -2.371094 L 3.234375 -1.582031 L 3.546875 -1.269531 L 4.363281 -0.789062 L 4.722656 -0.503906 L 5.175781 -0.3125 L 5.726562 -0.144531 L 6.085938 0.046875 L 6.613281 0.0703125 Z M 7.070312 0.191406 "/></g></g></g><g fill="#424040" fill-opacity="1"><g transform="translate(191.934581, 344.803597)"><g><path d="M 1.796875 -0.695312 L 2.011719 -0.261719 L 2.78125 0.0234375 L 11.265625 -0.0234375 L 11.9375 -0.261719 L 12.199219 -0.695312 L 12.152344 -1.222656 L 12.175781 -1.703125 L 12.222656 -2.132812 L 12.152344 -2.660156 L 12.222656 -3.117188 L 11.910156 -3.644531 L 11.527344 -3.882812 L 11 -3.8125 L 6.78125 -3.859375 L 6.28125 -4.074219 L 6.136719 -4.601562 L 6.160156 -5.488281 L 6.085938 -5.945312 L 6.113281 -6.472656 L 6.0625 -6.949219 L 6.113281 -7.453125 L 6.085938 -8.652344 L 6.160156 -9.324219 L 6.085938 -9.851562 L 6.160156 -10.355469 L 6.085938 -14.09375 L 6.136719 -14.621094 L 6.085938 -15.792969 L 5.847656 -16.511719 L 5.226562 -16.800781 L 2.730469 -16.753906 L 2.039062 -16.488281 L 1.726562 -15.84375 L 1.871094 -14.597656 L 1.820312 -14.140625 L 1.75 -13.636719 L 1.820312 -13.15625 L 1.871094 -12.703125 L 1.796875 -12.175781 L 1.820312 -11.71875 L 1.773438 -11.242188 L 1.84375 -10.738281 L 1.773438 -10.304688 L 1.820312 -9.828125 L 1.75 -9.371094 L 1.820312 -8.339844 L 1.75 -7.886719 L 1.820312 -6.925781 L 1.75 -6.445312 L 1.773438 -5.488281 L 1.820312 -5.058594 L 1.796875 -2.132812 L 1.84375 -1.652344 L 1.75 -1.199219 Z M 1.796875 -0.695312 "/></g></g></g><g fill="#424040" fill-opacity="1"><g transform="translate(204.827743, 344.803597)"><g><path d="M 4.601562 -0.742188 L 4.792969 -0.238281 L 5.296875 0 L 5.753906 -0.046875 L 6.230469 0 L 6.6875 -0.046875 L 8.171875 -0.046875 L 8.652344 -0.238281 L 8.84375 -0.71875 L 8.820312 -1.175781 L 8.867188 -1.726562 L 8.84375 -2.683594 L 8.773438 -3.089844 L 8.84375 -3.59375 L 8.890625 -5.058594 L 8.84375 -5.488281 L 8.914062 -6.496094 L 8.820312 -11.265625 L 8.890625 -11.742188 L 8.84375 -12.269531 L 9.035156 -12.703125 L 9.5625 -12.917969 L 9.96875 -12.941406 L 10.449219 -12.917969 L 10.882812 -12.964844 L 12.199219 -12.941406 L 12.75 -13.15625 L 12.988281 -13.636719 L 12.941406 -14.140625 L 12.988281 -16.105469 L 12.75 -16.585938 L 12.269531 -16.824219 L 11.695312 -16.777344 L 11.3125 -16.824219 L 10.855469 -16.824219 L 10.328125 -16.753906 L 9.851562 -16.753906 L 9.371094 -16.800781 L 8.890625 -16.800781 L 8.339844 -16.730469 L 1.199219 -16.777344 L 0.671875 -16.539062 L 0.429688 -16.058594 L 0.40625 -13.660156 L 0.671875 -13.132812 L 1.152344 -12.894531 L 1.773438 -12.964844 L 3.90625 -12.941406 L 4.339844 -12.679688 L 4.578125 -12.222656 L 4.648438 -9.585938 L 4.578125 -8.84375 L 4.625 -8.386719 L 4.578125 -7.910156 L 4.578125 -6.949219 L 4.648438 -6.253906 L 4.554688 -5.535156 L 4.578125 -5.058594 L 4.554688 -4.554688 L 4.625 -3.089844 L 4.578125 -2.613281 Z M 4.601562 -0.742188 "/></g></g></g><g fill="#424040" fill-opacity="1"><g transform="translate(218.224168, 344.803597)"><g><path d="M 5.511719 -0.671875 L 5.777344 -0.261719 L 6.230469 -0.0234375 L 7.09375 0.0234375 L 7.574219 -0.0234375 L 8.078125 0 L 8.746094 -0.0234375 L 9.46875 -0.261719 L 9.707031 -0.742188 L 9.707031 -1.152344 L 9.660156 -1.652344 L 9.683594 -2.109375 L 9.660156 -2.539062 L 9.777344 -4.003906 L 9.707031 -4.503906 L 9.777344 -5.894531 L 9.683594 -6.328125 L 9.800781 -7.023438 L 10.640625 -8.484375 L 10.832031 -8.941406 L 11.097656 -9.347656 L 11.695312 -10.136719 L 14.453125 -14.691406 L 14.738281 -15.050781 L 14.90625 -15.484375 L 15.242188 -16.058594 L 15.171875 -16.632812 L 14.714844 -16.824219 L 14.238281 -16.753906 L 13.300781 -16.824219 L 12.796875 -16.753906 L 11.886719 -16.753906 L 11.433594 -16.800781 L 10.832031 -16.5625 L 10.328125 -16.105469 L 9.921875 -15.289062 L 9.609375 -14.835938 L 9.46875 -14.378906 L 8.914062 -13.589844 L 8.554688 -12.726562 L 7.765625 -11.433594 L 7.429688 -11.382812 L 6.878906 -12.246094 L 6.664062 -12.679688 L 6.519531 -13.15625 L 5.320312 -15.265625 L 5.058594 -15.675781 L 4.867188 -16.152344 L 4.339844 -16.539062 L 3.738281 -16.800781 L 0.574219 -16.753906 L 0.046875 -16.609375 L 0 -16.082031 L 0.238281 -15.507812 L 2.828125 -11.410156 L 3.019531 -11 L 5.152344 -7.644531 L 5.34375 -7.023438 L 5.464844 -6.328125 L 5.441406 -4.433594 L 5.488281 -3.953125 L 5.511719 -3.5 L 5.464844 -3.066406 L 5.441406 -2.15625 L 5.558594 -1.175781 Z M 5.511719 -0.671875 "/></g></g></g><g fill="#424040" fill-opacity="1"><g transform="translate(233.465898, 344.803597)"><g/></g></g><g fill="#424040" fill-opacity="1"><g transform="translate(239.9604, 344.803597)"><g><path d="M 0.3125 -0.648438 L 0.429688 -0.144531 L 0.910156 -0.0234375 L 3.019531 -0.0234375 L 3.644531 0.046875 L 4.195312 -0.191406 L 4.625 -0.625 L 5.03125 -1.4375 L 5.441406 -1.894531 L 6.015625 -2.132812 L 6.496094 -2.085938 L 7.835938 -2.109375 L 8.339844 -2.039062 L 8.890625 -2.109375 L 9.324219 -2.109375 L 9.828125 -2.0625 L 10.953125 -2.109375 L 11.742188 -1.84375 L 12.246094 -1.460938 L 12.367188 -1.03125 L 12.628906 -0.597656 L 13.039062 -0.214844 L 13.660156 0.0234375 L 14.09375 -0.0234375 L 14.929688 0.046875 L 16.417969 0 L 16.847656 -0.144531 L 16.945312 -0.648438 L 16.800781 -1.246094 L 16.632812 -1.675781 L 16.320312 -2.085938 L 16.175781 -2.566406 L 15.9375 -2.925781 L 15.792969 -3.378906 L 15.386719 -4.242188 L 15.21875 -4.699219 L 14.980469 -5.105469 L 14.644531 -5.992188 L 14.378906 -6.375 L 14.1875 -6.855469 L 13.972656 -7.261719 L 13.804688 -7.742188 L 13.589844 -8.101562 L 13.445312 -8.582031 L 13.183594 -9.011719 L 12.988281 -9.417969 L 12.75 -9.828125 L 12.628906 -10.28125 L 12.152344 -11.121094 L 12.007812 -11.574219 L 11.574219 -12.488281 L 11.457031 -12.871094 L 11.097656 -13.710938 L 10.617188 -14.597656 L 10.234375 -15.507812 L 10.019531 -15.867188 L 9.875 -16.320312 L 9.441406 -16.777344 L 8.628906 -16.992188 L 7.859375 -16.753906 L 7.40625 -16.320312 L 7.261719 -15.890625 L 6.230469 -13.734375 L 5.96875 -13.300781 L 4.625 -10.28125 L 4.503906 -9.875 L 4.242188 -9.441406 L 3.859375 -8.582031 L 3.5 -7.957031 L 3.332031 -7.5 L 2.996094 -6.878906 L 2.851562 -6.375 L 2.636719 -5.992188 L 2.46875 -5.511719 L 1.796875 -4.265625 L 1.101562 -2.515625 L 0.816406 -2.132812 L 0.597656 -1.652344 Z M 7.71875 -5.917969 L 7.261719 -6.113281 L 7.191406 -6.589844 L 8.148438 -8.773438 L 8.363281 -9.15625 L 8.675781 -9.394531 L 8.964844 -9.203125 L 9.273438 -8.269531 L 9.539062 -7.859375 L 9.632812 -7.476562 L 9.875 -7 L 10.042969 -6.566406 L 9.996094 -6.136719 L 9.585938 -5.945312 Z M 7.71875 -5.917969 "/></g></g></g><g fill="#424040" fill-opacity="1"><g transform="translate(257.35898, 344.803597)"><g><path d="M 14.140625 -0.382812 L 14.835938 -0.0703125 L 15.457031 0.121094 L 16.011719 -0.144531 L 16.226562 -0.648438 L 16.34375 -7.167969 L 16.25 -7.835938 L 16.296875 -8.363281 L 16.203125 -11.242188 L 16.273438 -12.199219 L 16.226562 -12.65625 L 16.226562 -13.613281 L 16.320312 -14.09375 L 16.273438 -14.8125 L 16.320312 -16.058594 L 16.035156 -16.488281 L 15.507812 -16.730469 L 15.027344 -16.777344 L 14.570312 -16.777344 L 14.042969 -16.730469 L 13.542969 -16.800781 L 13.109375 -16.753906 L 12.628906 -16.777344 L 12.054688 -16.539062 L 11.816406 -16.035156 L 11.792969 -11.671875 L 11.886719 -11.167969 L 11.886719 -10.714844 L 11.792969 -10.210938 L 11.816406 -9.25 L 11.695312 -8.867188 L 11.359375 -8.964844 L 10.304688 -10.042969 L 9.945312 -10.328125 L 9.109375 -11.191406 L 8.722656 -11.480469 L 8.460938 -11.816406 L 7.957031 -12.34375 L 7.214844 -12.964844 L 6.949219 -13.324219 L 6.496094 -13.636719 L 6.253906 -13.996094 L 5.847656 -14.285156 L 5.535156 -14.691406 L 4.242188 -16.011719 L 3.285156 -16.65625 L 2.636719 -16.847656 L 2.0625 -16.5625 L 1.75 -16.105469 L 1.796875 -12.75 L 1.75 -12.269531 L 1.820312 -11.289062 L 1.773438 -10.855469 L 1.796875 -10.355469 L 1.726562 -9.851562 L 1.820312 -6.421875 L 1.773438 -5.992188 L 1.773438 -5.535156 L 1.726562 -5.007812 L 1.726562 -4.554688 L 1.796875 -4.050781 L 1.773438 -3.066406 L 1.820312 -2.589844 L 1.75 -1.675781 L 1.820312 -1.199219 L 1.820312 -0.742188 L 2.039062 -0.214844 L 2.492188 0.046875 L 3.308594 0 L 4.503906 0.0703125 L 5.007812 0 L 5.558594 0.046875 L 6.039062 -0.191406 L 6.253906 -0.671875 L 6.183594 -1.152344 L 6.253906 -7.023438 L 6.160156 -7.527344 L 6.398438 -7.8125 L 6.710938 -7.742188 L 10.136719 -4.386719 L 10.523438 -4.074219 L 12.847656 -1.75 L 13.15625 -1.367188 L 13.542969 -1.054688 L 13.828125 -0.695312 Z M 14.140625 -0.382812 "/></g></g></g><g fill="#424040" fill-opacity="1"><g transform="translate(275.428572, 344.803597)"><g><path d="M 1.796875 -0.742188 L 2.085938 -0.214844 L 2.46875 0 L 3.019531 0 L 3.523438 0.0703125 L 4.003906 0.0703125 L 4.503906 0 L 8.820312 -0.0234375 L 10.355469 -0.238281 L 11.742188 -0.671875 L 13.78125 -2.039062 L 14.738281 -3.140625 L 15.484375 -4.339844 L 15.601562 -4.792969 L 15.84375 -5.25 L 15.9375 -5.726562 L 16.105469 -6.160156 L 16.175781 -6.664062 L 16.296875 -7.167969 L 16.273438 -7.574219 L 16.371094 -9.109375 L 16.011719 -10.472656 L 15.960938 -10.976562 L 15.84375 -11.410156 L 15.484375 -12.367188 L 14.929688 -13.183594 L 14.738281 -13.589844 L 14.117188 -14.332031 L 13.710938 -14.644531 L 13.039062 -15.289062 L 12.152344 -15.84375 L 11.671875 -16.082031 L 10.355469 -16.511719 L 9.371094 -16.703125 L 5.96875 -16.730469 L 5.488281 -16.777344 L 3.953125 -16.730469 L 3.476562 -16.777344 L 3.042969 -16.753906 L 2.539062 -16.777344 L 2.109375 -16.511719 L 1.75 -16.058594 L 1.75 -15.074219 L 1.796875 -14.597656 L 1.773438 -14.117188 L 1.820312 -13.207031 L 1.75 -12.679688 L 1.820312 -12.199219 L 1.75 -11.71875 L 1.84375 -9.800781 L 1.773438 -8.890625 L 1.84375 -7.859375 L 1.773438 -7.40625 L 1.84375 -6.902344 L 1.773438 -5.96875 L 1.820312 -4.050781 L 1.773438 -3.570312 L 1.84375 -1.652344 Z M 6.878906 -3.859375 L 6.304688 -4.074219 L 6.085938 -4.601562 L 6.136719 -5.082031 L 6.039062 -5.511719 L 6.113281 -5.992188 L 6.113281 -12.152344 L 6.398438 -12.582031 L 7.09375 -12.847656 L 7.597656 -12.824219 L 8.101562 -12.847656 L 8.820312 -12.796875 L 9.777344 -12.511719 L 10.59375 -11.984375 L 11.191406 -11.3125 L 11.457031 -10.855469 L 11.769531 -10.472656 L 12.054688 -9.058594 L 12.128906 -8.316406 L 12.007812 -7.140625 L 11.863281 -6.6875 L 11.503906 -5.824219 L 11.191406 -5.390625 L 10.882812 -5.058594 L 10.59375 -4.671875 L 10.210938 -4.433594 L 9.730469 -4.195312 L 8.867188 -3.953125 Z M 6.878906 -3.859375 "/></g></g></g><g fill="#424040" fill-opacity="1"><g transform="translate(292.851121, 344.803597)"><g/></g></g><g fill="#424040" fill-opacity="1"><g transform="translate(299.345622, 344.803597)"><g><path d="M 6.949219 0.191406 L 7.644531 0.261719 L 8.414062 0.238281 L 10.761719 -0.214844 L 12.007812 -0.886719 L 12.773438 -1.414062 L 13.445312 -2.179688 L 13.925781 -2.949219 L 14.117188 -3.378906 L 14.261719 -3.859375 L 14.332031 -4.289062 L 14.355469 -5.777344 L 14.285156 -6.253906 L 14.164062 -6.710938 L 13.683594 -7.597656 L 13.109375 -8.339844 L 12.703125 -8.675781 L 11.433594 -9.25 L 9.46875 -9.730469 L 7.046875 -10.042969 L 6.039062 -10.402344 L 5.679688 -10.59375 L 5.296875 -10.976562 L 5.273438 -11.625 L 5.34375 -12.246094 L 5.609375 -12.582031 L 6.015625 -12.894531 L 6.351562 -13.039062 L 6.78125 -13.132812 L 8.316406 -13.183594 L 8.84375 -12.988281 L 9.203125 -12.703125 L 9.996094 -11.863281 L 10.738281 -11.625 L 12.320312 -11.574219 L 12.75 -11.625 L 13.207031 -11.574219 L 13.660156 -11.863281 L 13.875 -12.320312 L 13.683594 -13.253906 L 13.300781 -14.117188 L 12.988281 -14.5 L 12.75 -14.882812 L 12.4375 -15.242188 L 10.90625 -16.296875 L 9.585938 -16.753906 L 9.082031 -16.847656 L 8.652344 -16.898438 L 8.125 -17.015625 L 6.78125 -16.992188 L 4.890625 -16.609375 L 4.457031 -16.441406 L 4.074219 -16.203125 L 3.691406 -16.058594 L 3.210938 -15.769531 L 2.875 -15.457031 L 2.445312 -15.171875 L 2.179688 -14.761719 L 1.871094 -14.453125 L 1.703125 -14.019531 L 1.460938 -13.636719 L 1.125 -12.246094 L 1.152344 -10.640625 L 1.316406 -9.96875 L 1.628906 -9.132812 L 2.230469 -8.339844 L 2.898438 -7.71875 L 3.738281 -7.214844 L 5.105469 -6.757812 L 5.96875 -6.566406 L 7.933594 -6.421875 L 8.363281 -6.351562 L 8.84375 -6.328125 L 9.707031 -5.96875 L 10.042969 -5.679688 L 10.160156 -5.058594 L 10.019531 -4.433594 L 9.632812 -4.097656 L 9.25 -3.882812 L 8.363281 -3.617188 L 7.695312 -3.59375 L 6.972656 -3.644531 L 6.421875 -3.785156 L 6.0625 -3.953125 L 5.632812 -4.21875 L 5.273438 -4.554688 L 4.914062 -5.03125 L 4.433594 -5.226562 L 2.613281 -5.273438 L 2.132812 -5.226562 L 1.652344 -5.25 L 1.175781 -5.03125 L 1.007812 -4.53125 L 1.054688 -4.003906 L 1.152344 -3.570312 L 1.535156 -2.613281 L 2.132812 -1.871094 L 2.828125 -1.175781 L 3.234375 -0.910156 L 4.960938 -0.121094 L 5.488281 -0.046875 L 5.945312 0.121094 Z M 6.949219 0.191406 "/></g></g></g><g fill="#424040" fill-opacity="1"><g transform="translate(314.635273, 344.803597)"><g><path d="M 4.601562 -0.742188 L 4.792969 -0.238281 L 5.296875 0 L 5.753906 -0.046875 L 6.230469 0 L 6.6875 -0.046875 L 8.171875 -0.046875 L 8.652344 -0.238281 L 8.84375 -0.71875 L 8.820312 -1.175781 L 8.867188 -1.726562 L 8.84375 -2.683594 L 8.773438 -3.089844 L 8.84375 -3.59375 L 8.890625 -5.058594 L 8.84375 -5.488281 L 8.914062 -6.496094 L 8.820312 -11.265625 L 8.890625 -11.742188 L 8.84375 -12.269531 L 9.035156 -12.703125 L 9.5625 -12.917969 L 9.96875 -12.941406 L 10.449219 -12.917969 L 10.882812 -12.964844 L 12.199219 -12.941406 L 12.75 -13.15625 L 12.988281 -13.636719 L 12.941406 -14.140625 L 12.988281 -16.105469 L 12.75 -16.585938 L 12.269531 -16.824219 L 11.695312 -16.777344 L 11.3125 -16.824219 L 10.855469 -16.824219 L 10.328125 -16.753906 L 9.851562 -16.753906 L 9.371094 -16.800781 L 8.890625 -16.800781 L 8.339844 -16.730469 L 1.199219 -16.777344 L 0.671875 -16.539062 L 0.429688 -16.058594 L 0.40625 -13.660156 L 0.671875 -13.132812 L 1.152344 -12.894531 L 1.773438 -12.964844 L 3.90625 -12.941406 L 4.339844 -12.679688 L 4.578125 -12.222656 L 4.648438 -9.585938 L 4.578125 -8.84375 L 4.625 -8.386719 L 4.578125 -7.910156 L 4.578125 -6.949219 L 4.648438 -6.253906 L 4.554688 -5.535156 L 4.578125 -5.058594 L 4.554688 -4.554688 L 4.625 -3.089844 L 4.578125 -2.613281 Z M 4.601562 -0.742188 "/></g></g></g><g fill="#424040" fill-opacity="1"><g transform="translate(328.031699, 344.803597)"><g><path d="M 0.3125 -0.648438 L 0.429688 -0.144531 L 0.910156 -0.0234375 L 3.019531 -0.0234375 L 3.644531 0.046875 L 4.195312 -0.191406 L 4.625 -0.625 L 5.03125 -1.4375 L 5.441406 -1.894531 L 6.015625 -2.132812 L 6.496094 -2.085938 L 7.835938 -2.109375 L 8.339844 -2.039062 L 8.890625 -2.109375 L 9.324219 -2.109375 L 9.828125 -2.0625 L 10.953125 -2.109375 L 11.742188 -1.84375 L 12.246094 -1.460938 L 12.367188 -1.03125 L 12.628906 -0.597656 L 13.039062 -0.214844 L 13.660156 0.0234375 L 14.09375 -0.0234375 L 14.929688 0.046875 L 16.417969 0 L 16.847656 -0.144531 L 16.945312 -0.648438 L 16.800781 -1.246094 L 16.632812 -1.675781 L 16.320312 -2.085938 L 16.175781 -2.566406 L 15.9375 -2.925781 L 15.792969 -3.378906 L 15.386719 -4.242188 L 15.21875 -4.699219 L 14.980469 -5.105469 L 14.644531 -5.992188 L 14.378906 -6.375 L 14.1875 -6.855469 L 13.972656 -7.261719 L 13.804688 -7.742188 L 13.589844 -8.101562 L 13.445312 -8.582031 L 13.183594 -9.011719 L 12.988281 -9.417969 L 12.75 -9.828125 L 12.628906 -10.28125 L 12.152344 -11.121094 L 12.007812 -11.574219 L 11.574219 -12.488281 L 11.457031 -12.871094 L 11.097656 -13.710938 L 10.617188 -14.597656 L 10.234375 -15.507812 L 10.019531 -15.867188 L 9.875 -16.320312 L 9.441406 -16.777344 L 8.628906 -16.992188 L 7.859375 -16.753906 L 7.40625 -16.320312 L 7.261719 -15.890625 L 6.230469 -13.734375 L 5.96875 -13.300781 L 4.625 -10.28125 L 4.503906 -9.875 L 4.242188 -9.441406 L 3.859375 -8.582031 L 3.5 -7.957031 L 3.332031 -7.5 L 2.996094 -6.878906 L 2.851562 -6.375 L 2.636719 -5.992188 L 2.46875 -5.511719 L 1.796875 -4.265625 L 1.101562 -2.515625 L 0.816406 -2.132812 L 0.597656 -1.652344 Z M 7.71875 -5.917969 L 7.261719 -6.113281 L 7.191406 -6.589844 L 8.148438 -8.773438 L 8.363281 -9.15625 L 8.675781 -9.394531 L 8.964844 -9.203125 L 9.273438 -8.269531 L 9.539062 -7.859375 L 9.632812 -7.476562 L 9.875 -7 L 10.042969 -6.566406 L 9.996094 -6.136719 L 9.585938 -5.945312 Z M 7.71875 -5.917969 "/></g></g></g><g fill="#424040" fill-opacity="1"><g transform="translate(345.430278, 344.803597)"><g><path d="M 1.75 -0.671875 L 1.988281 -0.214844 L 2.730469 0.046875 L 5.367188 0.0234375 L 5.847656 -0.214844 L 6.160156 -0.957031 L 6.136719 -1.703125 L 6.183594 -2.203125 L 6.113281 -3.234375 L 6.136719 -3.691406 L 6.113281 -4.144531 L 6.160156 -4.648438 L 6.375 -5.152344 L 7.09375 -5.390625 L 10.832031 -5.417969 L 11.289062 -5.632812 L 11.550781 -6.113281 L 11.527344 -6.640625 L 11.574219 -8.078125 L 11.503906 -8.53125 L 11.265625 -9.035156 L 10.546875 -9.273438 L 6.902344 -9.273438 L 6.351562 -9.46875 L 6.085938 -9.898438 L 6.085938 -11.3125 L 6.160156 -11.816406 L 6.136719 -12.222656 L 6.375 -12.703125 L 7.070312 -12.941406 L 7.765625 -12.917969 L 8.460938 -12.964844 L 9.632812 -12.894531 L 10.113281 -12.941406 L 11.097656 -12.894531 L 11.574219 -12.964844 L 12.03125 -13.183594 L 12.199219 -13.660156 L 12.199219 -14.117188 L 12.246094 -14.597656 L 12.199219 -15.050781 L 12.246094 -15.554688 L 12.199219 -16.058594 L 11.960938 -16.511719 L 11.527344 -16.730469 L 10.953125 -16.800781 L 10.089844 -16.730469 L 9.585938 -16.753906 L 9.082031 -16.730469 L 8.628906 -16.777344 L 8.171875 -16.730469 L 2.445312 -16.730469 L 1.988281 -16.488281 L 1.726562 -16.035156 L 1.820312 -13.15625 L 1.773438 -12.703125 L 1.75 -9.300781 L 1.820312 -8.867188 L 1.773438 -8.414062 L 1.773438 -7.933594 L 1.726562 -7.40625 L 1.820312 -6.664062 L 1.75 -1.703125 L 1.796875 -1.152344 Z M 1.75 -0.671875 "/></g></g></g><g fill="#424040" fill-opacity="1"><g transform="translate(358.491189, 344.803597)"><g><path d="M 1.75 -0.671875 L 1.988281 -0.214844 L 2.730469 0.046875 L 5.367188 0.0234375 L 5.847656 -0.214844 L 6.160156 -0.957031 L 6.136719 -1.703125 L 6.183594 -2.203125 L 6.113281 -3.234375 L 6.136719 -3.691406 L 6.113281 -4.144531 L 6.160156 -4.648438 L 6.375 -5.152344 L 7.09375 -5.390625 L 10.832031 -5.417969 L 11.289062 -5.632812 L 11.550781 -6.113281 L 11.527344 -6.640625 L 11.574219 -8.078125 L 11.503906 -8.53125 L 11.265625 -9.035156 L 10.546875 -9.273438 L 6.902344 -9.273438 L 6.351562 -9.46875 L 6.085938 -9.898438 L 6.085938 -11.3125 L 6.160156 -11.816406 L 6.136719 -12.222656 L 6.375 -12.703125 L 7.070312 -12.941406 L 7.765625 -12.917969 L 8.460938 -12.964844 L 9.632812 -12.894531 L 10.113281 -12.941406 L 11.097656 -12.894531 L 11.574219 -12.964844 L 12.03125 -13.183594 L 12.199219 -13.660156 L 12.199219 -14.117188 L 12.246094 -14.597656 L 12.199219 -15.050781 L 12.246094 -15.554688 L 12.199219 -16.058594 L 11.960938 -16.511719 L 11.527344 -16.730469 L 10.953125 -16.800781 L 10.089844 -16.730469 L 9.585938 -16.753906 L 9.082031 -16.730469 L 8.628906 -16.777344 L 8.171875 -16.730469 L 2.445312 -16.730469 L 1.988281 -16.488281 L 1.726562 -16.035156 L 1.820312 -13.15625 L 1.773438 -12.703125 L 1.75 -9.300781 L 1.820312 -8.867188 L 1.773438 -8.414062 L 1.773438 -7.933594 L 1.726562 -7.40625 L 1.820312 -6.664062 L 1.75 -1.703125 L 1.796875 -1.152344 Z M 1.75 -0.671875 "/></g></g></g><g fill="#424040" fill-opacity="1"><g transform="translate(371.5521, 344.803597)"><g/></g></g><g fill="#424040" fill-opacity="1"><g transform="translate(378.046602, 344.803597)"><g><path d="M 3.210938 0.0703125 L 4.386719 0.0234375 L 4.816406 0.046875 L 5.367188 0 L 5.871094 -0.191406 L 6.085938 -0.695312 L 6.0625 -1.175781 L 6.085938 -1.703125 L 6.039062 -2.589844 L 6.085938 -3.042969 L 6.0625 -3.59375 L 6.28125 -4.027344 L 6.832031 -4.289062 L 7.359375 -4.339844 L 7.859375 -4.242188 L 10.328125 -4.433594 L 12.605469 -5.34375 L 12.964844 -5.632812 L 13.300781 -6.015625 L 13.613281 -6.328125 L 13.925781 -6.6875 L 14.429688 -7.453125 L 14.835938 -8.386719 L 14.90625 -8.914062 L 15.050781 -9.300781 L 15.097656 -11.265625 L 15.003906 -11.671875 L 14.929688 -12.199219 L 14.644531 -13.085938 L 14.1875 -13.902344 L 13.613281 -14.691406 L 12.535156 -15.625 L 11.742188 -16.152344 L 10.785156 -16.441406 L 10.378906 -16.609375 L 9.898438 -16.609375 L 9.417969 -16.777344 L 8.699219 -16.800781 L 7.933594 -16.777344 L 7.40625 -16.703125 L 5.945312 -16.730469 L 5.464844 -16.800781 L 3.980469 -16.703125 L 3.453125 -16.730469 L 3.019531 -16.800781 L 2.515625 -16.703125 L 2.011719 -16.441406 L 1.796875 -16.058594 L 1.820312 -13.15625 L 1.726562 -12.199219 L 1.773438 -11.742188 L 1.75 -5.535156 L 1.796875 -5.082031 L 1.773438 -0.648438 L 2.039062 -0.191406 L 2.78125 0.046875 Z M 6.804688 -8.125 L 6.328125 -8.414062 L 6.113281 -8.820312 L 6.039062 -10.761719 L 6.085938 -11.265625 L 6.085938 -12.246094 L 6.328125 -12.703125 L 6.832031 -12.941406 L 9.324219 -12.871094 L 9.800781 -12.65625 L 10.1875 -12.390625 L 10.496094 -12.078125 L 10.738281 -11.601562 L 10.808594 -11.167969 L 10.855469 -10.496094 L 10.808594 -9.851562 L 10.640625 -9.417969 L 10.425781 -9.035156 L 10.113281 -8.652344 L 9.730469 -8.363281 L 9.347656 -8.246094 L 8.605469 -8.148438 L 7.382812 -8.171875 Z M 6.804688 -8.125 "/></g></g></g><g fill="#424040" fill-opacity="1"><g transform="translate(393.815564, 344.803597)"><g><path d="M 8.964844 0.289062 L 10.304688 0.261719 L 11.742188 0.0703125 L 13.542969 -0.527344 L 14.332031 -0.957031 L 14.691406 -1.246094 L 15.148438 -1.460938 L 15.816406 -2.039062 L 16.128906 -2.46875 L 16.464844 -2.804688 L 17.519531 -4.410156 L 17.878906 -5.320312 L 18.070312 -6.230469 L 18.09375 -6.664062 L 18.214844 -7.140625 L 18.238281 -7.644531 L 18.335938 -8.339844 L 18.261719 -9.539062 L 18.09375 -10.523438 L 17.496094 -12.320312 L 17.039062 -13.207031 L 16.511719 -13.925781 L 15.84375 -14.667969 L 15.148438 -15.265625 L 14.597656 -15.652344 L 13.875 -15.960938 L 13.515625 -16.226562 L 11.671875 -16.800781 L 10.28125 -17.039062 L 9.632812 -17.066406 L 7.09375 -16.703125 L 5.296875 -16.035156 L 4.9375 -15.769531 L 4.503906 -15.554688 L 3.691406 -14.957031 L 2.515625 -13.589844 L 1.773438 -12.320312 L 1.414062 -11.410156 L 1.007812 -9.5625 L 0.933594 -7.621094 L 1.007812 -7.117188 L 1.125 -6.6875 L 1.175781 -6.230469 L 1.390625 -5.320312 L 2.492188 -3.140625 L 2.78125 -2.851562 L 3.089844 -2.46875 L 3.453125 -2.132812 L 3.714844 -1.820312 L 4.503906 -1.199219 L 6.375 -0.238281 L 7.070312 0 L 7.597656 0.046875 L 8.460938 0.238281 Z M 10.304688 -3.953125 L 8.988281 -3.953125 L 8.460938 -4.027344 L 7.597656 -4.386719 L 7.214844 -4.601562 L 6.566406 -5.128906 L 6.253906 -5.464844 L 5.917969 -5.917969 L 5.800781 -6.304688 L 5.585938 -6.734375 L 5.390625 -7.621094 L 5.390625 -9.082031 L 5.511719 -9.515625 L 5.585938 -9.96875 L 5.777344 -10.402344 L 5.917969 -10.832031 L 6.496094 -11.601562 L 7.695312 -12.414062 L 8.003906 -12.535156 L 8.941406 -12.773438 L 9.609375 -12.824219 L 10.761719 -12.679688 L 11.191406 -12.582031 L 11.625 -12.390625 L 12.367188 -11.863281 L 13.300781 -10.882812 L 13.589844 -9.96875 L 13.804688 -9.515625 L 13.875 -9.082031 L 13.828125 -7.621094 L 13.636719 -6.734375 L 13.46875 -6.304688 L 13.207031 -5.871094 L 13.0625 -5.511719 L 12.726562 -5.128906 L 11.574219 -4.339844 L 11.144531 -4.21875 L 10.785156 -4.050781 Z M 10.304688 -3.953125 "/></g></g></g><g fill="#424040" fill-opacity="1"><g transform="translate(413.03548, 344.803597)"><g><path d="M 1.84375 -0.765625 L 2.011719 -0.238281 L 2.492188 0 L 2.949219 0.0234375 L 3.929688 -0.046875 L 4.433594 0 L 5.152344 0 L 5.894531 -0.238281 L 6.0625 -0.695312 L 6.113281 -1.199219 L 6.015625 -1.703125 L 6.085938 -2.730469 L 6.039062 -4.21875 L 6.253906 -4.699219 L 6.734375 -4.9375 L 7.167969 -4.9375 L 7.597656 -4.960938 L 8.195312 -4.769531 L 8.582031 -4.363281 L 9.203125 -3.523438 L 9.371094 -3.066406 L 10.042969 -1.871094 L 10.355469 -1.414062 L 10.570312 -1.007812 L 10.855469 -0.625 L 11.335938 -0.191406 L 11.9375 -0.046875 L 12.796875 0 L 13.324219 -0.046875 L 13.804688 0 L 14.761719 0 L 15.289062 -0.046875 L 15.792969 -0.167969 L 15.890625 -0.671875 L 15.578125 -1.269531 L 14.8125 -2.445312 L 14.597656 -2.851562 L 14.308594 -3.285156 L 14.070312 -3.714844 L 13.757812 -4.097656 L 13.039062 -5.34375 L 12.964844 -5.917969 L 13.230469 -6.421875 L 13.902344 -7.070312 L 14.1875 -7.476562 L 14.355469 -7.933594 L 14.621094 -8.363281 L 14.789062 -8.773438 L 15.050781 -9.683594 L 15.074219 -11.574219 L 14.957031 -12.03125 L 14.882812 -12.488281 L 14.761719 -12.964844 L 14.117188 -14.285156 L 13.78125 -14.644531 L 13.566406 -15.003906 L 12.367188 -15.914062 L 11.527344 -16.34375 L 9.539062 -16.753906 L 8.941406 -16.800781 L 8.246094 -16.777344 L 7.71875 -16.800781 L 7.238281 -16.753906 L 6.710938 -16.800781 L 6.304688 -16.753906 L 4.867188 -16.800781 L 4.410156 -16.730469 L 3.425781 -16.824219 L 2.972656 -16.753906 L 2.445312 -16.777344 L 1.988281 -16.5625 L 1.796875 -16.058594 L 1.726562 -9.347656 L 1.796875 -8.652344 L 1.796875 -7.453125 L 1.75 -6.949219 L 1.726562 -6.039062 L 1.796875 -5.511719 L 1.726562 -4.53125 L 1.820312 -3.140625 L 1.773438 -2.636719 Z M 6.734375 -8.820312 L 6.328125 -9.035156 L 6.085938 -9.539062 L 6.015625 -12.222656 L 6.304688 -12.703125 L 6.78125 -12.941406 L 7.167969 -12.964844 L 8.484375 -12.941406 L 9.585938 -12.796875 L 10.328125 -12.34375 L 10.570312 -11.984375 L 10.738281 -11.601562 L 10.785156 -10.90625 L 10.714844 -10.257812 L 10.523438 -9.777344 L 10.257812 -9.371094 L 9.96875 -9.082031 L 9.609375 -8.914062 L 7.742188 -8.746094 L 7.261719 -8.820312 Z M 6.734375 -8.820312 "/></g></g></g><g fill="#424040" fill-opacity="1"><g transform="translate(429.643203, 344.803597)"><g><path d="M 4.601562 -0.742188 L 4.792969 -0.238281 L 5.296875 0 L 5.753906 -0.046875 L 6.230469 0 L 6.6875 -0.046875 L 8.171875 -0.046875 L 8.652344 -0.238281 L 8.84375 -0.71875 L 8.820312 -1.175781 L 8.867188 -1.726562 L 8.84375 -2.683594 L 8.773438 -3.089844 L 8.84375 -3.59375 L 8.890625 -5.058594 L 8.84375 -5.488281 L 8.914062 -6.496094 L 8.820312 -11.265625 L 8.890625 -11.742188 L 8.84375 -12.269531 L 9.035156 -12.703125 L 9.5625 -12.917969 L 9.96875 -12.941406 L 10.449219 -12.917969 L 10.882812 -12.964844 L 12.199219 -12.941406 L 12.75 -13.15625 L 12.988281 -13.636719 L 12.941406 -14.140625 L 12.988281 -16.105469 L 12.75 -16.585938 L 12.269531 -16.824219 L 11.695312 -16.777344 L 11.3125 -16.824219 L 10.855469 -16.824219 L 10.328125 -16.753906 L 9.851562 -16.753906 L 9.371094 -16.800781 L 8.890625 -16.800781 L 8.339844 -16.730469 L 1.199219 -16.777344 L 0.671875 -16.539062 L 0.429688 -16.058594 L 0.40625 -13.660156 L 0.671875 -13.132812 L 1.152344 -12.894531 L 1.773438 -12.964844 L 3.90625 -12.941406 L 4.339844 -12.679688 L 4.578125 -12.222656 L 4.648438 -9.585938 L 4.578125 -8.84375 L 4.625 -8.386719 L 4.578125 -7.910156 L 4.578125 -6.949219 L 4.648438 -6.253906 L 4.554688 -5.535156 L 4.578125 -5.058594 L 4.554688 -4.554688 L 4.625 -3.089844 L 4.578125 -2.613281 Z M 4.601562 -0.742188 "/></g></g></g><g fill="#424040" fill-opacity="1"><g transform="translate(443.039645, 344.803597)"><g><path d="M 0.3125 -0.648438 L 0.429688 -0.144531 L 0.910156 -0.0234375 L 3.019531 -0.0234375 L 3.644531 0.046875 L 4.195312 -0.191406 L 4.625 -0.625 L 5.03125 -1.4375 L 5.441406 -1.894531 L 6.015625 -2.132812 L 6.496094 -2.085938 L 7.835938 -2.109375 L 8.339844 -2.039062 L 8.890625 -2.109375 L 9.324219 -2.109375 L 9.828125 -2.0625 L 10.953125 -2.109375 L 11.742188 -1.84375 L 12.246094 -1.460938 L 12.367188 -1.03125 L 12.628906 -0.597656 L 13.039062 -0.214844 L 13.660156 0.0234375 L 14.09375 -0.0234375 L 14.929688 0.046875 L 16.417969 0 L 16.847656 -0.144531 L 16.945312 -0.648438 L 16.800781 -1.246094 L 16.632812 -1.675781 L 16.320312 -2.085938 L 16.175781 -2.566406 L 15.9375 -2.925781 L 15.792969 -3.378906 L 15.386719 -4.242188 L 15.21875 -4.699219 L 14.980469 -5.105469 L 14.644531 -5.992188 L 14.378906 -6.375 L 14.1875 -6.855469 L 13.972656 -7.261719 L 13.804688 -7.742188 L 13.589844 -8.101562 L 13.445312 -8.582031 L 13.183594 -9.011719 L 12.988281 -9.417969 L 12.75 -9.828125 L 12.628906 -10.28125 L 12.152344 -11.121094 L 12.007812 -11.574219 L 11.574219 -12.488281 L 11.457031 -12.871094 L 11.097656 -13.710938 L 10.617188 -14.597656 L 10.234375 -15.507812 L 10.019531 -15.867188 L 9.875 -16.320312 L 9.441406 -16.777344 L 8.628906 -16.992188 L 7.859375 -16.753906 L 7.40625 -16.320312 L 7.261719 -15.890625 L 6.230469 -13.734375 L 5.96875 -13.300781 L 4.625 -10.28125 L 4.503906 -9.875 L 4.242188 -9.441406 L 3.859375 -8.582031 L 3.5 -7.957031 L 3.332031 -7.5 L 2.996094 -6.878906 L 2.851562 -6.375 L 2.636719 -5.992188 L 2.46875 -5.511719 L 1.796875 -4.265625 L 1.101562 -2.515625 L 0.816406 -2.132812 L 0.597656 -1.652344 Z M 7.71875 -5.917969 L 7.261719 -6.113281 L 7.191406 -6.589844 L 8.148438 -8.773438 L 8.363281 -9.15625 L 8.675781 -9.394531 L 8.964844 -9.203125 L 9.273438 -8.269531 L 9.539062 -7.859375 L 9.632812 -7.476562 L 9.875 -7 L 10.042969 -6.566406 L 9.996094 -6.136719 L 9.585938 -5.945312 Z M 7.71875 -5.917969 "/></g></g></g><g fill="#424040" fill-opacity="1"><g transform="translate(460.438225, 344.803597)"><g><path d="M 1.796875 -0.695312 L 2.011719 -0.261719 L 2.78125 0.0234375 L 11.265625 -0.0234375 L 11.9375 -0.261719 L 12.199219 -0.695312 L 12.152344 -1.222656 L 12.175781 -1.703125 L 12.222656 -2.132812 L 12.152344 -2.660156 L 12.222656 -3.117188 L 11.910156 -3.644531 L 11.527344 -3.882812 L 11 -3.8125 L 6.78125 -3.859375 L 6.28125 -4.074219 L 6.136719 -4.601562 L 6.160156 -5.488281 L 6.085938 -5.945312 L 6.113281 -6.472656 L 6.0625 -6.949219 L 6.113281 -7.453125 L 6.085938 -8.652344 L 6.160156 -9.324219 L 6.085938 -9.851562 L 6.160156 -10.355469 L 6.085938 -14.09375 L 6.136719 -14.621094 L 6.085938 -15.792969 L 5.847656 -16.511719 L 5.226562 -16.800781 L 2.730469 -16.753906 L 2.039062 -16.488281 L 1.726562 -15.84375 L 1.871094 -14.597656 L 1.820312 -14.140625 L 1.75 -13.636719 L 1.820312 -13.15625 L 1.871094 -12.703125 L 1.796875 -12.175781 L 1.820312 -11.71875 L 1.773438 -11.242188 L 1.84375 -10.738281 L 1.773438 -10.304688 L 1.820312 -9.828125 L 1.75 -9.371094 L 1.820312 -8.339844 L 1.75 -7.886719 L 1.820312 -6.925781 L 1.75 -6.445312 L 1.773438 -5.488281 L 1.820312 -5.058594 L 1.796875 -2.132812 L 1.84375 -1.652344 L 1.75 -1.199219 Z M 1.796875 -0.695312 "/></g></g></g></svg>